Maname.glyphspackage
{
glyphname = exclam;
layers = (
{
layerId = "51BB9282-3B82-4DF1-A67A-294D3E37D73A";
shapes = (
{
closed = 1;
nodes = (
(132,140,l),
(138,315,o),
(146,450,o),
(160,599,c),
(153,600,o),
(144,600,o),
(135,600,cs),
(111,600,o),
(83,597,o),
(65,585,c),
(69,461,o),
(74,287,o),
(77,139,c)
);
},
{
closed = 1;
nodes = (
(134,-29,o),
(154,-9,o),
(154,22,cs),
(154,57,o),
(129,74,o),
(102,74,cs),
(71,74,o),
(50,52,o),
(50,21,cs),
(50,-12,o),
(75,-29,o),
(103,-29,cs)
);
}
);
width = 210;
}
);
unicode = 33;
}
{
glyphname = numbersign;
layers = (
{
layerId = "51BB9282-3B82-4DF1-A67A-294D3E37D73A";
shapes = (
{
closed = 1;
nodes = (
(402,3,o),
(436,9,o),
(464,10,c),
(464,530,l),
(379,518,l),
(384,388,o),
(386,306,o),
(386,233,cs),
(386,160,o),
(384,75,o),
(379,2,c)
);
},
{
closed = 1;
nodes = (
(193,0,o),
(219,6,o),
(248,7,c),
(248,527,l),
(170,515,l),
(175,384,o),
(176,303,o),
(176,230,cs),
(176,156,o),
(175,72,o),
(170,-1,c)
);
},
{
closed = 1;
nodes = (
(184,133,o),
(277,134,o),
(359,134,cs),
(443,134,o),
(519,133,o),
(592,127,c),
(589,150,o),
(584,165,o),
(582,194,c),
(63,194,l),
(75,127,l)
);
},
{
closed = 1;
nodes = (
(180,320,o),
(272,322,o),
(356,322,cs),
(440,322,o),
(515,320,o),
(588,315,c),
(585,339,o),
(581,361,o),
(579,390,c),
(60,390,l),
(71,315,l)
);
}
);
width = 662;
}
);
unicode = 35;
}
{
glyphname = dollar;
layers = (
{
anchors = (
{
name = bottom;
pos = (249,0);
},
{
name = top;
pos = (234,678);
}
);
layerId = "51BB9282-3B82-4DF1-A67A-294D3E37D73A";
shapes = (
{
closed = 1;
nodes = (
(368,-10,o),
(420,80,o),
(420,164,cs),
(420,357,o),
(141,388,o),
(141,502,cs),
(141,544,o),
(179,578,o),
(233,575,cs),
(307,570,o),
(337,502,o),
(351,485,c),
(297,609,l),
(318,554,o),
(332,497,o),
(333,460,c),
(404,452,l),
(407,474,o),
(410,507,o),
(410,539,cs),
(410,558,o),
(409,577,o),
(407,591,c),
(407,591,o),
(336,616,o),
(260,623,cs),
(249,624,o),
(245,624,o),
(235,624,cs),
(118,624,o),
(55,540,o),
(55,467,cs),
(55,317,o),
(326,291,o),
(326,146,cs),
(326,109,o),
(308,45,o),
(219,45,cs),
(138,45,o),
(105,99,o),
(89,118,c),
(97,75,o),
(91,51,o),
(136,40,c),
(107,74,o),
(105,110,o),
(102,156,c),
(34,164,l),
(28,125,o),
(25,92,o),
(25,59,cs),
(25,43,o),
(25,28,o),
(27,17,c),
(27,17,o),
(103,-10,o),
(197,-10,cs)
);
},
{
closed = 1;
nodes = (
(259,-88,l),
(257,-67,o),
(256,-25,o),
(256,37,cs),
(256,235,o),
(266,616,o),
(267,701,c),
(203,693,l),
(203,632,ls),
(203,457,o),
(196,69,o),
(193,-93,c)
);
}
);
width = 469;
}
);
unicode = 36;
}
{
glyphname = percent;
layers = (
{
layerId = "51BB9282-3B82-4DF1-A67A-294D3E37D73A";
shapes = (
{
closed = 1;
nodes = (
(300,-62,l),
(395,167,o),
(561,521,o),
(625,651,c),
(540,648,l),
(442,412,o),
(338,175,o),
(219,-62,c)
);
},
{
closed = 1;
nodes = (
(273,261,o),
(345,319,o),
(345,449,cs),
(345,574,o),
(279,625,o),
(201,625,cs),
(109,625,o),
(46,555,o),
(46,438,cs),
(46,325,o),
(105,261,o),
(191,261,cs)
);
},
{
closed = 1;
nodes = (
(143,312,o),
(119,370,o),
(119,445,cs),
(119,527,o),
(147,578,o),
(194,578,cs),
(241,578,o),
(267,525,o),
(267,444,cs),
(267,374,o),
(248,312,o),
(195,312,cs)
);
},
{
closed = 1;
nodes = (
(747,-11,o),
(815,51,o),
(815,177,cs),
(815,302,o),
(749,353,o),
(671,353,cs),
(580,353,o),
(517,283,o),
(517,166,cs),
(517,51,o),
(578,-11,o),
(663,-11,cs)
);
},
{
closed = 1;
nodes = (
(613,40,o),
(590,102,o),
(590,176,cs),
(590,257,o),
(617,306,o),
(664,306,cs),
(712,306,o),
(738,255,o),
(738,175,cs),
(738,106,o),
(719,40,o),
(665,40,cs)
);
}
);
width = 861;
}
);
unicode = 37;
}
{
glyphname = ampersand;
layers = (
{
layerId = "51BB9282-3B82-4DF1-A67A-294D3E37D73A";
shapes = (
{
closed = 1;
nodes = (
(588,-10,o),
(604,-8,o),
(641,8,c),
(632,47,l),
(448,94,o),
(214,294,o),
(214,465,cs),
(214,531,o),
(249,586,o),
(322,586,cs),
(378,586,o),
(431,553,o),
(431,494,cs),
(431,469,o),
(421,419,o),
(356,410,c),
(356,382,o),
(361,346,o),
(367,331,c),
(444,339,o),
(515,388,o),
(515,475,cs),
(515,567,o),
(437,641,o),
(325,641,cs),
(211,641,o),
(126,565,o),
(126,452,cs),
(126,265,o),
(362,42,o),
(524,-3,cs),
(542,-8,o),
(556,-10,o),
(572,-10,cs)
);
},
{
closed = 1;
nodes = (
(504,-15,o),
(576,241,o),
(572,321,c),
(568,348,o),
(543,360,o),
(519,365,c),
(525,279,o),
(496,62,o),
(287,62,cs),
(159,62,o),
(110,144,o),
(110,213,cs),
(110,304,o),
(195,355,o),
(239,355,c),
(223,392,l),
(175,392,o),
(40,335,o),
(40,196,cs),
(40,89,o),
(121,-15,o),
(270,-15,cs)
);
}
);
userData = {
com.typemytype.robofont.layerData = {
"Jan 19 17, 12:12" = {
anchors = (
);
components = (
);
contours = (
{
points = (
{
smooth = 0;
x = 488;
y = 216;
},
{
smooth = 0;
x = 165;
y = 477;
},
{
segmentType = curve;
smooth = 1;
x = 165;
y = 651;
},
{
smooth = 0;
x = 165;
y = 732;
},
{
smooth = 0;
x = 242;
y = 750;
},
{
segmentType = curve;
smooth = 1;
x = 274;
y = 750;
},
{
smooth = 0;
x = 309;
y = 750;
},
{
smooth = 0;
x = 374;
y = 735;
},
{
segmentType = curve;
smooth = 1;
x = 374;
y = 654;
},
{
smooth = 0;
x = 374;
y = 489;
},
{
smooth = 0;
x = -38;
y = 410;
},
{
segmentType = curve;
smooth = 1;
x = -38;
y = 192;
},
{
smooth = 0;
x = -38;
y = 64;
},
{
smooth = 0;
x = 72;
y = -2;
},
{
segmentType = curve;
smooth = 1;
x = 203;
y = -2;
},
{
smooth = 0;
x = 425;
y = -2;
},
{
smooth = 0;
x = 505;
y = 157;
},
{
segmentType = curve;
smooth = 0;
x = 614;
y = 382;
},
{
smooth = 0;
x = 585;
y = 394;
},
{
smooth = 0;
x = 537;
y = 411;
},
{
segmentType = curve;
smooth = 0;
x = 481;
y = 401;
},
{
smooth = 0;
x = 453;
y = 245;
},
{
smooth = 0;
x = 412;
y = 86;
},
{
segmentType = curve;
smooth = 1;
x = 236;
y = 86;
},
{
smooth = 0;
x = 147;
y = 86;
},
{
smooth = 0;
x = 96;
y = 138;
},
{
segmentType = curve;
smooth = 1;
x = 96;
y = 200;
},
{
smooth = 0;
x = 96;
y = 448;
},
{
smooth = 0;
x = 471;
y = 438;
},
{
segmentType = curve;
smooth = 1;
x = 471;
y = 668;
},
{
smooth = 0;
x = 471;
y = 780;
},
{
smooth = 0;
x = 353;
y = 816;
},
{
segmentType = curve;
smooth = 1;
x = 270;
y = 816;
},
{
smooth = 0;
x = 158;
y = 816;
},
{
smooth = 0;
x = 48;
y = 765;
},
{
segmentType = curve;
smooth = 1;
x = 48;
y = 638;
},
{
smooth = 0;
x = 48;
y = 441;
},
{
smooth = 0;
x = 471;
y = 52;
},
{
segmentType = curve;
smooth = 0;
x = 505;
y = -3;
},
{
segmentType = line;
smooth = 0;
x = 646;
y = 1;
}
);
}
);
lib = {
};
name = ampersand;
unicodes = (
);
width = 600;
};
};
};
width = 666;
}
);
unicode = 38;
}
{
glyphname = quotesingle;
layers = (
{
layerId = "51BB9282-3B82-4DF1-A67A-294D3E37D73A";
shapes = (
{
closed = 1;
nodes = (
(97,420,o),
(135,529,o),
(145,611,c),
(125,616,o),
(102,620,o),
(79,620,cs),
(72,620,o),
(64,620,o),
(57,619,c),
(59,553,o),
(38,455,o),
(19,404,c),
(34,390,o),
(48,380,o),
(71,378,c)
);
}
);
width = 158;
}
);
unicode = 39;
}
{
glyphname = parenleft;
layers = (
{
layerId = "51BB9282-3B82-4DF1-A67A-294D3E37D73A";
shapes = (
{
closed = 1;
nodes = (
(242,-85,l),
(165,9,o),
(151,148,o),
(151,239,cs),
(151,380,o),
(185,540,o),
(253,654,c),
(243,665,o),
(224,677,o),
(204,680,c),
(115,548,o),
(61,389,o),
(70,233,cs),
(73,181,ls),
(82,25,o),
(157,-94,o),
(198,-126,c)
);
}
);
width = 286;
}
);
unicode = 40;
}
{
glyphname = parenright;
layers = (
{
layerId = "51BB9282-3B82-4DF1-A67A-294D3E37D73A";
shapes = (
{
closed = 1;
nodes = (
(146,-92,o),
(223,29,o),
(226,181,cs),
(227,233,ls),
(230,389,o),
(179,548,o),
(94,680,c),
(74,677,o),
(55,665,o),
(45,654,c),
(113,540,o),
(147,380,o),
(147,239,cs),
(147,148,o),
(133,9,o),
(56,-85,c),
(100,-126,l)
);
}
);
width = 286;
}
);
unicode = 41;
}
{
glyphname = asterisk;
layers = (
{
layerId = "51BB9282-3B82-4DF1-A67A-294D3E37D73A";
shapes = (
{
closed = 1;
nodes = (
(206,450,l),
(194,485,o),
(180,527,o),
(179,561,c),
(172,547,l),
(187,541,o),
(220,537,o),
(245,537,cs),
(263,537,o),
(276,539,o),
(286,541,c),
(283,567,l),
(254,571,o),
(206,582,o),
(182,597,c),
(182,584,l),
(208,626,o),
(215,666,o),
(220,694,c),
(199,707,l),
(192,685,o),
(154,625,o),
(132,608,c),
(154,609,l),
(119,645,o),
(74,661,o),
(45,671,c),
(27,653,l),
(52,638,o),
(103,595,o),
(119,564,c),
(119,557,o),
(109,592,o),
(109,586,c),
(79,567,o),
(43,531,o),
(22,502,c),
(39,482,l),
(69,510,o),
(108,533,o),
(143,544,c),
(127,551,l),
(130,526,o),
(157,460,o),
(178,444,c)
);
}
);
width = 289;
}
);
unicode = 42;
}
{
glyphname = plus;
layers = (
{
layerId = "51BB9282-3B82-4DF1-A67A-294D3E37D73A";
shapes = (
{
closed = 1;
nodes = (
(267,22,l),
(265,76,o),
(264,145,o),
(264,218,cs),
(264,292,o),
(265,369,o),
(267,437,c),
(191,434,l),
(193,381,o),
(194,320,o),
(194,247,cs),
(194,173,o),
(193,86,o),
(191,19,c)
);
},
{
closed = 1;
nodes = (
(87,202,o),
(150,203,o),
(218,203,cs),
(286,203,o),
(358,202,o),
(427,200,c),
(434,275,l),
(374,273,o),
(304,272,o),
(235,272,cs),
(166,272,o),
(97,273,o),
(37,275,c),
(36,200,l)
);
}
);
width = 462;
}
);
unicode = 43;
}
{
glyphname = comma;
layers = (
{
layerId = "51BB9282-3B82-4DF1-A67A-294D3E37D73A";
shapes = (
{
closed = 1;
nodes = (
(97,-100,o),
(135,9,o),
(145,91,c),
(125,96,o),
(102,100,o),
(79,100,cs),
(72,100,o),
(64,100,o),
(57,99,c),
(57,33,o),
(38,-65,o),
(19,-116,c),
(27,-129,o),
(51,-140,o),
(71,-142,c)
);
}
);
width = 195;
}
);
unicode = 44;
}
{
glyphname = hyphen;
layers = (
{
layerId = "51BB9282-3B82-4DF1-A67A-294D3E37D73A";
shapes = (
{
closed = 1;
nodes = (
(391,213,l),
(392,239,o),
(395,266,o),
(399,287,c),
(333,283,o),
(282,281,o),
(230,281,cs),
(178,281,o),
(124,283,o),
(49,287,c),
(38,213,l)
);
}
);
width = 437;
}
);
unicode = 45;
}
{
glyphname = period;
layers = (
{
layerId = "51BB9282-3B82-4DF1-A67A-294D3E37D73A";
shapes = (
{
closed = 1;
nodes = (
(123,-14,o),
(146,8,o),
(146,42,cs),
(146,80,o),
(118,99,o),
(88,99,cs),
(54,99,o),
(31,76,o),
(31,42,cs),
(31,5,o),
(59,-14,o),
(90,-14,cs)
);
}
);
width = 180;
}
);
unicode = 46;
}
{
glyphname = slash;
layers = (
{
layerId = "51BB9282-3B82-4DF1-A67A-294D3E37D73A";
shapes = (
{
closed = 1;
nodes = (
(81,-62,l),
(176,167,o),
(342,521,o),
(406,651,c),
(328,648,l),
(230,412,o),
(126,175,o),
(7,-62,c)
);
}
);
width = 410;
}
);
unicode = 47;
}
{
glyphname = zero;
layers = (
{
layerId = "51BB9282-3B82-4DF1-A67A-294D3E37D73A";
shapes = (
{
closed = 1;
nodes = (
(380,-4,o),
(483,94,o),
(483,301,cs),
(483,497,o),
(391,602,o),
(265,602,cs),
(132,602,o),
(29,485,o),
(29,289,cs),
(29,109,o),
(116,-4,o),
(253,-4,cs)
);
},
{
closed = 1;
nodes = (
(174,59,o),
(125,145,o),
(125,298,cs),
(125,464,o),
(182,546,o),
(255,546,cs),
(331,546,o),
(390,456,o),
(390,293,cs),
(390,148,o),
(343,59,o),
(258,59,cs)
);
}
);
width = 536;
}
);
unicode = 48;
}
{
glyphname = one;
layers = (
{
layerId = "51BB9282-3B82-4DF1-A67A-294D3E37D73A";
shapes = (
{
closed = 1;
nodes = (
(295,0,l),
(287,49,l),
(266,48,o),
(215,43,o),
(216,116,cs),
(218,266,o),
(220,526,o),
(226,587,c),
(226,587,o),
(83,556,o),
(36,558,c),
(41,501,l),
(100,501,o),
(136,485,o),
(141,451,cs),
(143,437,o),
(148,363,o),
(148,288,cs),
(148,220,o),
(144,135,o),
(140,109,cs),
(133,64,o),
(104,44,o),
(43,47,c),
(48,0,l)
);
}
);
width = 342;
}
);
unicode = 49;
}
{
glyphname = two;
layers = (
{
layerId = "51BB9282-3B82-4DF1-A67A-294D3E37D73A";
shapes = (
{
closed = 1;
nodes = (
(466,0,l),
(473,145,l),
(410,138,l),
(405,116,o),
(398,69,o),
(338,68,cs),
(156,66,l),
(147,69,l),
(147,187,o),
(453,215,o),
(453,427,cs),
(453,538,o),
(370,587,o),
(269,587,cs),
(195,587,o),
(128,561,o),
(83,530,c),
(80,524,o),
(78,516,o),
(78,508,cs),
(78,478,o),
(98,438,o),
(116,421,c),
(133,453,o),
(186,529,o),
(264,529,cs),
(328,529,o),
(359,477,o),
(359,423,cs),
(359,256,o),
(56,207,o),
(56,38,cs),
(56,0,l)
);
}
);
width = 523;
}
);
unicode = 50;
}
{
glyphname = three;
layers = (
{
layerId = "51BB9282-3B82-4DF1-A67A-294D3E37D73A";
shapes = (
{
closed = 1;
nodes = (
(341,-6,o),
(405,83,o),
(405,165,cs),
(405,253,o),
(331,304,o),
(241,304,cs),
(228,304,o),
(217,303,o),
(206,302,c),
(214,292,l),
(315,309,o),
(382,374,o),
(382,455,cs),
(382,535,o),
(316,584,o),
(210,584,cs),
(132,584,o),
(76,558,o),
(47,538,c),
(47,505,o),
(56,467,o),
(82,433,c),
(91,480,o),
(135,537,o),
(205,537,cs),
(254,537,o),
(291,509,o),
(291,444,cs),
(291,369,o),
(242,333,o),
(136,318,c),
(142,266,l),
(291,269,o),
(321,221,o),
(321,159,cs),
(321,90,o),
(283,51,o),
(213,51,cs),
(144,51,o),
(87,89,o),
(69,128,c),
(56,101,o),
(48,50,o),
(48,24,cs),
(48,15,o),
(49,14,o),
(49,9,c),
(76,3,o),
(141,-6,o),
(189,-6,cs)
);
}
);
width = 455;
}
);
unicode = 51;
}
{
glyphname = four;
layers = (
{
layerId = "51BB9282-3B82-4DF1-A67A-294D3E37D73A";
shapes = (
{
closed = 1;
nodes = (
(533,148,l),
(523,219,l),
(74,219,l),
(69,169,l),
(159,282,o),
(331,500,o),
(360,580,c),
(306,582,o),
(278,578,o),
(250,571,c),
(212,479,o),
(129,379,o),
(23,177,c),
(46,148,l)
);
},
{
closed = 1;
nodes = (
(395,-19,l),
(395,32,ls),
(395,180,o),
(399,252,o),
(409,421,c),
(360,407,o),
(329,378,o),
(329,378,c),
(330,337,ls),
(332,269,o),
(323,142,o),
(315,-19,c)
);
}
);
width = 567;
}
);
unicode = 52;
}
{
glyphname = five;
layers = (
{
layerId = "51BB9282-3B82-4DF1-A67A-294D3E37D73A";
shapes = (
{
closed = 1;
nodes = (
(332,-7,o),
(413,95,o),
(413,204,cs),
(413,311,o),
(335,395,o),
(161,395,cs),
(122,395,l),
(136,516,l),
(251,516,o),
(259,516,o),
(364,510,c),
(367,583,l),
(81,583,l),
(75,492,o),
(68,431,o),
(59,334,c),
(133,334,ls),
(260,334,o),
(321,273,o),
(321,191,cs),
(321,131,o),
(289,62,o),
(191,62,cs),
(140,62,o),
(96,81,o),
(65,115,c),
(53,95,o),
(48,67,o),
(48,44,cs),
(48,30,o),
(50,14,o),
(52,6,c),
(66,-2,o),
(111,-7,o),
(151,-7,cs)
);
}
);
width = 458;
}
);
unicode = 53;
}
{
glyphname = six;
layers = (
{
layerId = "51BB9282-3B82-4DF1-A67A-294D3E37D73A";
shapes = (
{
closed = 1;
nodes = (
(397,-13,o),
(460,82,o),
(460,192,cs),
(460,325,o),
(369,383,o),
(279,383,cs),
(227,383,o),
(154,364,o),
(109,277,c),
(108,276,o),
(127,241,o),
(126,241,c),
(152,282,o),
(196,319,o),
(257,319,cs),
(316,319,o),
(367,284,o),
(367,182,cs),
(367,99,o),
(333,44,o),
(267,44,cs),
(186,44,o),
(147,128,o),
(147,251,cs),
(147,395,o),
(201,527,o),
(384,546,c),
(378,596,l),
(180,591,o),
(55,450,o),
(55,252,cs),
(55,118,o),
(112,-13,o),
(266,-13,cs)
);
}
);
width = 507;
}
);
unicode = 54;
}
{
glyphname = seven;
layers = (
{
layerId = "51BB9282-3B82-4DF1-A67A-294D3E37D73A";
shapes = (
{
closed = 1;
nodes = (
(269,239,o),
(374,436,o),
(460,544,c),
(424,581,l),
(50,581,l),
(33,554,o),
(31,512,o),
(39,471,c),
(74,495,o),
(127,520,o),
(196,517,cs),
(400,509,l),
(399,531,l),
(283,433,o),
(167,188,o),
(132,34,c),
(143,14,o),
(186,2,o),
(223,2,c)
);
}
);
width = 483;
}
);
unicode = 55;
}
{
glyphname = eight;
layers = (
{
layerId = "51BB9282-3B82-4DF1-A67A-294D3E37D73A";
shapes = (
{
closed = 1;
nodes = (
(335,-7,o),
(406,59,o),
(406,150,cs),
(406,328,o),
(133,317,o),
(133,458,cs),
(133,507,o),
(166,546,o),
(218,546,cs),
(271,546,o),
(307,505,o),
(307,444,cs),
(307,382,o),
(271,342,o),
(229,326,c),
(249,304,l),
(297,309,o),
(380,355,o),
(380,452,cs),
(380,542,o),
(310,591,o),
(227,591,cs),
(137,591,o),
(57,533,o),
(57,436,cs),
(57,261,o),
(319,280,o),
(319,141,cs),
(319,95,o),
(290,40,o),
(222,40,cs),
(167,40,o),
(122,75,o),
(122,142,cs),
(122,215,o),
(174,264,o),
(213,285,c),
(201,306,l),
(96,299,o),
(42,220,o),
(42,145,cs),
(42,67,o),
(101,-7,o),
(221,-7,cs)
);
}
);
userData = {
com.typemytype.robofont.layerData = {
"Jan 19 17, 19:20" = {
anchors = (
);
components = (
);
contours = (
{
points = (
{
smooth = 0;
x = 455;
y = -25;
},
{
smooth = 0;
x = 566;
y = 55;
},
{
segmentType = curve;
smooth = 1;
x = 566;
y = 202;
},
{
smooth = 0;
x = 566;
y = 442;
},
{
smooth = 0;
x = 204;
y = 417;
},
{
segmentType = curve;
smooth = 1;
x = 185;
y = 605;
},
{
smooth = 0;
x = 185;
y = 609;
},
{
smooth = 0;
x = 184;
y = 614;
},
{
segmentType = curve;
smooth = 1;
x = 184;
y = 618;
},
{
smooth = 0;
x = 184;
y = 685;
},
{
smooth = 0;
x = 234;
y = 739;
},
{
segmentType = curve;
smooth = 1;
x = 309;
y = 739;
},
{
smooth = 0;
x = 388;
y = 739;
},
{
smooth = 0;
x = 435;
y = 680;
},
{
segmentType = curve;
smooth = 1;
x = 435;
y = 600;
},
{
smooth = 0;
x = 435;
y = 512;
},
{
smooth = 0;
x = 378;
y = 442;
},
{
segmentType = curve;
smooth = 0;
x = 320;
y = 420;
},
{
segmentType = line;
smooth = 0;
x = 348;
y = 390;
},
{
smooth = 0;
x = 420;
y = 396;
},
{
smooth = 0;
x = 539;
y = 471;
},
{
segmentType = curve;
smooth = 1;
x = 539;
y = 604;
},
{
smooth = 0;
x = 539;
y = 726;
},
{
smooth = 0;
x = 439;
y = 799;
},
{
segmentType = curve;
smooth = 1;
x = 318;
y = 799;
},
{
smooth = 0;
x = 187;
y = 799;
},
{
smooth = 0;
x = 77;
y = 720;
},
{
segmentType = curve;
smooth = 1;
x = 77;
y = 587;
},
{
smooth = 0;
x = 77;
y = 333;
},
{
smooth = 0;
x = 423;
y = 400;
},
{
segmentType = curve;
smooth = 1;
x = 437;
y = 192;
},
{
smooth = 0;
x = 442;
y = 121;
},
{
smooth = 0;
x = 405;
y = 38;
},
{
segmentType = curve;
smooth = 1;
x = 302;
y = 38;
},
{
smooth = 0;
x = 214;
y = 38;
},
{
smooth = 0;
x = 167;
y = 107;
},
{
segmentType = curve;
smooth = 1;
x = 167;
y = 189;
},
{
smooth = 0;
x = 167;
y = 286;
},
{
smooth = 0;
x = 235;
y = 332;
},
{
segmentType = curve;
smooth = 0;
x = 288;
y = 360;
},
{
segmentType = line;
smooth = 0;
x = 282;
y = 392;
},
{
smooth = 0;
x = 133;
y = 383;
},
{
smooth = 0;
x = 48;
y = 280;
},
{
segmentType = curve;
smooth = 1;
x = 48;
y = 173;
},
{
smooth = 0;
x = 48;
y = 71;
},
{
smooth = 0;
x = 125;
y = -25;
},
{
segmentType = curve;
smooth = 1;
x = 293;
y = -25;
}
);
}
);
lib = {
};
name = eight;
unicodes = (
);
width = 626;
};
};
};
width = 462;
}
);
unicode = 56;
}
{
glyphname = nine;
layers = (
{
layerId = "51BB9282-3B82-4DF1-A67A-294D3E37D73A";
shapes = (
{
closed = 1;
nodes = (
(303,-20,o),
(428,170,o),
(428,359,cs),
(428,502,o),
(357,591,o),
(235,591,cs),
(105,591,o),
(48,489,o),
(48,385,cs),
(48,255,o),
(138,204,o),
(212,204,cs),
(257,204,o),
(320,223,o),
(377,304,c),
(379,305,o),
(360,332,o),
(361,332,c),
(355,323,o),
(302,274,o),
(236,274,cs),
(177,274,o),
(128,314,o),
(128,409,cs),
(128,490,o),
(164,544,o),
(225,544,cs),
(308,544,o),
(337,444,o),
(337,348,cs),
(337,194,o),
(263,51,o),
(83,44,c),
(88,-9,l)
);
}
);
width = 487;
}
);
unicode = 57;
}
{
glyphname = less;
layers = (
{
layerId = "51BB9282-3B82-4DF1-A67A-294D3E37D73A";
shapes = (
{
closed = 1;
nodes = (
(393,31,o),
(411,50,o),
(431,68,c),
(334,136,o),
(238,202,o),
(154,270,c),
(154,248,l),
(240,323,o),
(353,405,o),
(429,457,c),
(407,477,o),
(385,497,o),
(367,517,c),
(281,432,o),
(159,338,o),
(57,257,c),
(215,140,o),
(307,75,o),
(374,10,c)
);
}
);
width = 462;
}
);
unicode = 60;
}
{
glyphname = equal;
layers = (
{
layerId = "51BB9282-3B82-4DF1-A67A-294D3E37D73A";
shapes = (
{
closed = 1;
nodes = (
(100,334,o),
(156,335,o),
(216,335,cs),
(276,335,o),
(341,334,o),
(410,332,c),
(417,407,l),
(357,405,o),
(295,404,o),
(233,404,cs),
(171,404,o),
(110,405,o),
(50,407,c),
(49,332,l)
);
},
{
closed = 1;
nodes = (
(100,195,o),
(156,195,o),
(217,195,cs),
(277,195,o),
(342,195,o),
(411,193,c),
(415,267,l),
(355,265,o),
(294,264,o),
(233,264,cs),
(172,264,o),
(112,265,o),
(52,267,c),
(49,193,l)
);
}
);
width = 462;
}
);
unicode = 61;
}
{
glyphname = greater;
layers = (
{
layerId = "51BB9282-3B82-4DF1-A67A-294D3E37D73A";
shapes = (
{
closed = 1;
nodes = (
(181,75,o),
(273,140,o),
(431,257,c),
(330,338,o),
(207,432,o),
(122,517,c),
(103,497,o),
(81,477,o),
(59,457,c),
(136,405,o),
(248,323,o),
(334,248,c),
(334,270,l),
(250,202,o),
(154,136,o),
(57,68,c),
(77,50,o),
(95,31,o),
(114,10,c)
);
}
);
width = 462;
}
);
unicode = 62;
}
{
glyphname = question;
layers = (
{
layerId = "51BB9282-3B82-4DF1-A67A-294D3E37D73A";
shapes = (
{
closed = 1;
nodes = (
(207,153,l),
(204,167,o),
(202,221,o),
(200,266,c),
(287,297,o),
(381,358,o),
(381,467,cs),
(381,545,o),
(333,608,o),
(219,608,cs),
(121,608,o),
(40,561,o),
(20,532,c),
(19,510,o),
(45,463,o),
(53,452,c),
(76,452,l),
(92,497,o),
(133,565,o),
(212,565,cs),
(282,565,o),
(316,513,o),
(316,455,cs),
(316,363,o),
(229,299,o),
(133,291,c),
(133,273,o),
(126,180,o),
(125,152,c)
);
},
{
closed = 1;
nodes = (
(194,-22,o),
(216,-1,o),
(216,32,cs),
(216,69,o),
(189,87,o),
(160,87,cs),
(127,87,o),
(105,65,o),
(105,32,cs),
(105,-4,o),
(132,-22,o),
(162,-22,cs)
);
}
);
width = 417;
}
);
unicode = 63;
}
{
glyphname = at;
layers = (
{
layerId = "51BB9282-3B82-4DF1-A67A-294D3E37D73A";
shapes = (
{
closed = 1;
nodes = (
(463,-159,o),
(472,-123,o),
(472,-103,cs),
(472,-100,o),
(472,-97,o),
(471,-95,c),
(217,-95,o),
(83,28,o),
(83,214,cs),
(83,381,o),
(190,517,o),
(389,517,cs),
(560,517,o),
(663,416,o),
(663,257,cs),
(663,165,o),
(629,67,o),
(537,67,cs),
(534,67,o),
(521,67,o),
(517,68,cs),
(506,71,o),
(501,106,o),
(501,167,cs),
(501,244,o),
(509,346,o),
(514,402,c),
(506,406,o),
(490,408,o),
(470,408,cs),
(445,408,o),
(412,405,o),
(385,397,cs),
(309,375,o),
(195,286,o),
(195,156,cs),
(195,65,o),
(253,15,o),
(315,15,cs),
(377,15,o),
(434,65,o),
(438,82,c),
(430,91,l),
(429,80,o),
(428,69,o),
(428,59,cs),
(428,22,o),
(442,4,o),
(473,-2,cs),
(483,-4,o),
(493,-4,o),
(503,-4,cs),
(598,-4,o),
(721,68,o),
(721,256,cs),
(721,420,o),
(628,589,o),
(404,589,cs),
(173,589,o),
(27,410,o),
(27,194,cs),
(27,-75,o),
(255,-172,o),
(456,-172,c)
);
},
{
closed = 1;
nodes = (
(291,69,o),
(272,106,o),
(272,169,cs),
(272,277,o),
(327,356,o),
(405,356,cs),
(414,356,o),
(422,355,o),
(430,354,c),
(431,283,ls),
(432,217,o),
(429,146,o),
(427,112,c),
(419,99,o),
(379,69,o),
(337,69,cs)
);
}
);
width = 737;
}
);
unicode = 64;
}
{
glyphname = A;
layers = (
{
anchors = (
{
name = bottom;
pos = (309,0);
},
{
name = top;
pos = (309,630);
}
);
layerId = "51BB9282-3B82-4DF1-A67A-294D3E37D73A";
shapes = (
{
closed = 1;
nodes = (
(263,0,l),
(255,39,l),
(251,39,ls),
(221,39,o),
(179,39,o),
(179,89,cs),
(179,115,o),
(190,149,o),
(338,612,c),
(306,572,l),
(346,415,l),
(418,227,o),
(461,101,o),
(461,74,cs),
(461,52,o),
(433,44,o),
(385,44,c),
(392,0,l),
(630,0,l),
(623,38,l),
(570,38,o),
(554,79,o),
(541,116,cs),
(363,624,l),
(333,614,o),
(301,604,o),
(271,600,c),
(104,105,ls),
(91,66,o),
(61,50,o),
(15,47,c),
(23,0,l)
);
},
{
closed = 1;
nodes = (
(449,216,l),
(449,275,l),
(197,269,l),
(197,214,l)
);
}
);
width = 640;
}
);
unicode = 65;
}
{
glyphname = B;
layers = (
{
layerId = "51BB9282-3B82-4DF1-A67A-294D3E37D73A";
shapes = (
{
closed = 1;
nodes = (
(288,0,ls),
(413,0,o),
(536,48,o),
(536,176,cs),
(536,257,o),
(486,323,o),
(392,336,c),
(367,317,l),
(449,321,o),
(500,400,o),
(500,475,cs),
(500,567,o),
(424,618,o),
(310,618,cs),
(287,618,o),
(242,616,o),
(205,614,cs),
(168,612,o),
(168,612,o),
(118,612,cs),
(96,612,o),
(71,612,o),
(42,614,c),
(50,566,l),
(116,566,o),
(129,528,o),
(129,484,cs),
(129,340,ls),
(129,271,o),
(126,196,o),
(122,101,cs),
(120,59,o),
(116,44,o),
(54,44,c),
(62,0,l)
);
},
{
closed = 1;
nodes = (
(237,52,o),
(215,60,o),
(207,102,cs),
(201,133,o),
(198,201,o),
(198,255,cs),
(198,289,l),
(222,293,o),
(263,297,o),
(291,297,cs),
(391,297,o),
(441,246,o),
(441,175,cs),
(441,97,o),
(380,52,o),
(279,52,cs)
);
},
{
closed = 1;
nodes = (
(199,347,l),
(199,428,o),
(200,503,o),
(206,562,c),
(222,568,o),
(254,573,o),
(280,573,cs),
(354,573,o),
(405,531,o),
(405,465,cs),
(405,421,o),
(382,351,o),
(301,348,cs),
(247,346,l)
);
}
);
width = 567;
}
);
unicode = 66;
}
{
glyphname = C;
layers = (
{
anchors = (
{
name = bottom;
pos = (316,0);
},
{
name = top;
pos = (309,640);
}
);
layerId = "51BB9282-3B82-4DF1-A67A-294D3E37D73A";
shapes = (
{
closed = 1;
nodes = (
(413,-18,o),
(488,17,o),
(541,85,c),
(510,118,l),
(463,75,o),
(409,48,o),
(335,48,cs),
(192,48,o),
(132,148,o),
(132,290,cs),
(132,448,o),
(206,552,o),
(335,552,cs),
(423,552,o),
(463,504,o),
(468,496,c),
(474,506,o),
(476,514,o),
(476,522,cs),
(476,563,o),
(428,581,o),
(395,581,cs),
(387,581,o),
(380,580,o),
(377,577,c),
(413,571,o),
(450,494,o),
(475,426,c),
(527,424,l),
(532,455,o),
(538,514,o),
(538,556,cs),
(538,573,o),
(537,587,o),
(536,595,c),
(520,602,o),
(471,615,o),
(404,615,cs),
(182,615,o),
(30,471,o),
(30,258,cs),
(30,80,o),
(136,-18,o),
(309,-18,cs)
);
}
);
width = 570;
}
);
unicode = 67;
}
{
glyphname = D;
layers = (
{
anchors = (
{
name = bottom;
pos = (266,0);
},
{
name = top;
pos = (279,650);
}
);
layerId = "51BB9282-3B82-4DF1-A67A-294D3E37D73A";
shapes = (
{
closed = 1;
nodes = (
(263,1,ls),
(479,2,o),
(591,164,o),
(591,356,cs),
(591,538,o),
(490,619,o),
(321,619,cs),
(302,619,o),
(284,618,o),
(251,616,cs),
(217,614,o),
(170,612,o),
(122,612,cs),
(88,612,o),
(57,613,o),
(22,615,c),
(28,567,l),
(99,567,o),
(104,529,o),
(107,484,cs),
(110,437,o),
(111,383,o),
(111,346,cs),
(111,271,o),
(107,196,o),
(104,103,cs),
(103,72,o),
(85,46,o),
(18,46,c),
(25,0,l)
);
},
{
closed = 1;
nodes = (
(224,60,o),
(193,81,o),
(188,120,cs),
(186,136,o),
(185,176,o),
(185,207,cs),
(185,262,o),
(185,286,o),
(187,348,cs),
(189,408,o),
(192,489,o),
(197,554,c),
(217,561,o),
(253,568,o),
(291,568,cs),
(441,568,o),
(505,460,o),
(505,326,cs),
(505,185,o),
(435,60,o),
(285,60,cs)
);
}
);
width = 631;
}
);
unicode = 68;
}
{
glyphname = E;
layers = (
{
anchors = (
{
name = bottom;
pos = (266,0);
},
{
name = ogonek;
pos = (479,2);
},
{
name = top;
pos = (279,650);
}
);
layerId = "51BB9282-3B82-4DF1-A67A-294D3E37D73A";
shapes = (
{
closed = 1;
nodes = (
(481,0,l),
(484,40,o),
(484,89,o),
(484,123,cs),
(484,163,l),
(429,157,l),
(417,106,o),
(400,60,o),
(367,22,c),
(427,70,l),
(395,62,o),
(319,55,o),
(258,55,cs),
(245,55,o),
(224,55,o),
(215,56,cs),
(186,59,o),
(183,85,o),
(182,104,cs),
(180,138,o),
(179,217,o),
(179,264,cs),
(179,346,o),
(182,431,o),
(190,518,cs),
(192,541,o),
(202,564,o),
(240,564,cs),
(296,564,o),
(367,562,o),
(429,556,c),
(356,594,l),
(389,564,o),
(408,511,o),
(413,465,c),
(469,460,l),
(471,480,o),
(476,527,o),
(475,565,cs),
(474,617,l),
(399,613,o),
(313,612,o),
(266,612,cs),
(210,612,ls),
(148,612,o),
(72,613,o),
(28,616,c),
(32,569,l),
(85,569,o),
(96,548,o),
(99,511,cs),
(102,475,o),
(102,376,o),
(102,351,cs),
(102,274,o),
(99,167,o),
(94,109,cs),
(91,71,o),
(86,52,o),
(27,47,c),
(32,0,l)
);
},
{
closed = 1;
nodes = (
(190,285,o),
(260,287,o),
(323,287,cs),
(350,287,o),
(377,287,o),
(405,285,c),
(405,355,l),
(288,341,l),
(132,341,l),
(132,283,l)
);
}
);
width = 517;
}
);
unicode = 69;
}
{
glyphname = F;
layers = (
{
layerId = "51BB9282-3B82-4DF1-A67A-294D3E37D73A";
shapes = (
{
closed = 1;
nodes = (
(270,0,l),
(263,39,l),
(247,39,o),
(191,39,o),
(187,112,cs),
(186,130,o),
(186,193,o),
(186,243,cs),
(186,321,o),
(187,420,o),
(194,512,cs),
(196,538,o),
(208,559,o),
(261,559,cs),
(278,559,o),
(367,557,o),
(437,554,c),
(371,594,l),
(404,564,o),
(424,504,o),
(429,459,c),
(484,453,l),
(487,473,o),
(491,513,o),
(490,554,cs),
(489,617,l),
(391,613,o),
(306,611,o),
(240,611,cs),
(176,611,o),
(92,611,o),
(33,616,c),
(38,568,l),
(96,568,o),
(103,547,o),
(105,511,cs),
(107,483,o),
(109,410,o),
(109,345,cs),
(109,253,o),
(105,141,o),
(102,109,cs),
(98,66,o),
(85,52,o),
(25,47,c),
(30,0,l)
);
},
{
closed = 1;
nodes = (
(190,295,o),
(260,297,o),
(323,297,cs),
(350,297,o),
(377,297,o),
(405,295,c),
(405,365,l),
(288,351,l),
(132,351,l),
(132,293,l)
);
}
);
width = 514;
}
);
unicode = 70;
}
{
glyphname = G;
layers = (
{
anchors = (
{
name = bottom;
pos = (326,0);
},
{
name = top;
pos = (339,650);
}
);
layerId = "51BB9282-3B82-4DF1-A67A-294D3E37D73A";
shapes = (
{
closed = 1;
nodes = (
(391,-21,o),
(492,1,o),
(548,82,c),
(498,106,l),
(467,70,o),
(424,40,o),
(348,40,cs),
(196,40,o),
(129,158,o),
(129,289,cs),
(129,434,o),
(211,565,o),
(359,565,cs),
(438,565,o),
(494,527,o),
(508,510,c),
(513,519,o),
(515,527,o),
(515,535,cs),
(515,572,o),
(459,587,o),
(424,587,cs),
(411,587,o),
(401,585,o),
(398,581,c),
(434,576,o),
(472,520,o),
(497,452,c),
(557,450,l),
(558,463,o),
(558,485,o),
(558,509,cs),
(558,552,o),
(555,581,o),
(553,598,c),
(543,602,o),
(484,619,o),
(404,619,cs),
(139,619,o),
(30,431,o),
(30,263,cs),
(30,86,o),
(150,-21,o),
(316,-21,cs)
);
},
{
closed = 1;
nodes = (
(548,82,l),
(551,201,ls),
(552,247,o),
(574,254,o),
(594,254,cs),
(607,254,l),
(599,300,l),
(563,298,o),
(517,296,o),
(475,296,cs),
(445,296,o),
(411,297,o),
(372,300,c),
(377,251,l),
(430,251,o),
(454,236,o),
(454,203,c),
(444,35,l)
);
}
);
width = 641;
}
);
unicode = 71;
}
{
glyphname = H;
layers = (
{
anchors = (
{
name = bottom;
pos = (346,0);
},
{
name = top;
pos = (359,650);
}
);
layerId = "51BB9282-3B82-4DF1-A67A-294D3E37D73A";
shapes = (
{
closed = 1;
nodes = (
(298,0,l),
(290,46,l),
(249,46,o),
(208,63,o),
(206,118,cs),
(204,169,o),
(203,217,o),
(203,261,cs),
(203,365,o),
(208,477,o),
(213,511,cs),
(220,560,o),
(245,563,o),
(295,567,c),
(289,617,l),
(248,615,o),
(200,613,o),
(147,613,cs),
(110,613,o),
(68,614,o),
(27,616,c),
(34,567,l),
(109,567,o),
(117,537,o),
(119,491,cs),
(120,470,o),
(122,406,o),
(122,335,cs),
(122,250,o),
(119,155,o),
(116,106,cs),
(113,58,o),
(79,49,o),
(30,49,c),
(36,0,l)
);
},
{
closed = 1;
nodes = (
(567,276,l),
(567,341,l),
(410,335,l),
(149,335,l),
(149,276,l)
);
},
{
closed = 1;
nodes = (
(670,0,l),
(661,47,l),
(621,47,o),
(580,63,o),
(578,118,cs),
(576,170,o),
(575,218,o),
(575,263,cs),
(575,357,o),
(579,447,o),
(584,514,cs),
(587,559,o),
(623,564,o),
(667,567,c),
(661,617,l),
(619,615,o),
(572,613,o),
(520,613,cs),
(483,613,o),
(441,614,o),
(400,616,c),
(407,567,l),
(483,567,o),
(490,537,o),
(492,491,cs),
(494,449,o),
(495,371,o),
(495,321,cs),
(495,251,o),
(493,157,o),
(490,106,cs),
(487,58,o),
(452,49,o),
(403,49,c),
(410,0,l)
);
}
);
width = 693;
}
);
unicode = 72;
}
{
glyphname = I;
layers = (
{
anchors = (
{
name = bottom;
pos = (156,0);
},
{
name = ogonek;
pos = (287,2);
},
{
name = top;
pos = (156,650);
}
);
layerId = "51BB9282-3B82-4DF1-A67A-294D3E37D73A";
shapes = (
{
closed = 1;
nodes = (
(287,0,l),
(279,39,l),
(239,39,o),
(200,63,o),
(198,118,cs),
(196,171,o),
(195,212,o),
(195,260,cs),
(195,357,o),
(199,440,o),
(205,511,cs),
(209,559,o),
(240,567,o),
(287,569,c),
(281,617,l),
(239,615,o),
(193,613,o),
(141,613,cs),
(105,613,o),
(64,614,o),
(23,616,c),
(30,567,l),
(105,567,o),
(113,537,o),
(115,491,cs),
(116,470,o),
(118,406,o),
(118,335,cs),
(118,250,o),
(115,155,o),
(112,106,cs),
(109,58,o),
(75,48,o),
(26,48,c),
(32,0,l)
);
}
);
width = 315;
}
);
unicode = 73;
}
{
glyphname = J;
layers = (
{
anchors = (
{
name = bottom;
pos = (166,0);
},
{
name = top;
pos = (156,650);
}
);
layerId = "51BB9282-3B82-4DF1-A67A-294D3E37D73A";
shapes = (
{
closed = 1;
nodes = (
(179,-141,o),
(210,-42,o),
(210,20,cs),
(210,100,o),
(210,100,o),
(208,170,cs),
(206,240,o),
(206,252,o),
(206,334,cs),
(206,386,o),
(206,459,o),
(211,497,cs),
(218,551,o),
(239,564,o),
(294,567,c),
(288,617,l),
(236,614,o),
(193,612,o),
(151,612,cs),
(112,612,o),
(64,614,o),
(31,616,c),
(36,567,l),
(58,567,o),
(117,565,o),
(119,501,cs),
(123,394,o),
(129,219,o),
(129,114,cs),
(129,96,o),
(129,79,o),
(128,65,cs),
(125,25,o),
(117,-75,o),
(27,-75,cs),
(5,-75,o),
(-14,-69,o),
(-26,-64,c),
(-46,-100,l),
(-35,-113,o),
(-4,-141,o),
(59,-141,cs)
);
}
);
width = 325;
}
);
unicode = 74;
}
{
glyphname = K;
layers = (
{
anchors = (
{
name = bottom;
pos = (346,0);
},
{
name = top;
pos = (346,650);
}
);
layerId = "51BB9282-3B82-4DF1-A67A-294D3E37D73A";
shapes = (
{
closed = 1;
nodes = (
(641,0,l),
(631,46,l),
(622,46,ls),
(556,46,o),
(391,260,o),
(336,346,c),
(320,315,l),
(361,360,o),
(481,483,o),
(529,527,cs),
(554,550,o),
(580,571,o),
(611,571,c),
(604,616,l),
(583,614,o),
(536,612,o),
(472,613,cs),
(401,614,l),
(408,567,l),
(448,567,o),
(458,558,o),
(458,546,cs),
(458,541,o),
(456,536,o),
(452,531,cs),
(388,451,o),
(279,353,o),
(249,326,c),
(257,301,l),
(321,239,o),
(413,121,o),
(429,97,cs),
(437,85,o),
(442,74,o),
(442,65,cs),
(442,45,o),
(413,43,o),
(394,43,c),
(405,0,l)
);
},
{
closed = 1;
nodes = (
(301,-1,l),
(293,41,l),
(253,41,o),
(210,55,o),
(208,110,cs),
(206,161,o),
(205,208,o),
(205,256,cs),
(205,353,o),
(209,440,o),
(215,511,cs),
(219,560,o),
(266,567,o),
(306,567,c),
(300,617,l),
(254,614,o),
(209,613,o),
(167,613,cs),
(125,613,o),
(87,614,o),
(45,616,c),
(51,567,l),
(111,567,o),
(129,544,o),
(129,495,cs),
(129,431,o),
(129,154,o),
(125,108,cs),
(121,62,o),
(95,49,o),
(50,49,c),
(56,-1,l)
);
}
);
width = 656;
}
);
unicode = 75;
}
{
glyphname = L;
layers = (
{
anchors = (
{
name = bottom;
pos = (296,0);
},
{
name = top;
pos = (296,650);
}
);
layerId = "51BB9282-3B82-4DF1-A67A-294D3E37D73A";
shapes = (
{
closed = 1;
nodes = (
(484,0,l),
(486,10,o),
(487,38,o),
(487,72,cs),
(487,106,o),
(486,145,o),
(484,163,c),
(427,157,l),
(423,128,o),
(412,92,o),
(397,63,c),
(368,59,o),
(310,55,o),
(265,55,cs),
(251,55,o),
(249,55,o),
(238,56,cs),
(212,58,o),
(195,75,o),
(194,105,cs),
(192,159,o),
(192,177,o),
(192,197,cs),
(192,231,o),
(198,461,o),
(206,518,cs),
(212,563,o),
(229,568,o),
(289,568,c),
(283,615,l),
(247,613,o),
(200,612,o),
(155,612,cs),
(110,612,o),
(69,613,o),
(31,616,c),
(35,569,l),
(89,569,o),
(111,547,o),
(113,511,cs),
(116,453,o),
(118,383,o),
(118,325,cs),
(118,244,o),
(114,149,o),
(109,113,cs),
(102,63,o),
(82,49,o),
(31,49,c),
(37,0,l)
);
}
);
width = 518;
}
);
unicode = 76;
}
{
glyphname = M;
layers = (
{
anchors = (
{
name = bottom;
pos = (436,0);
},
{
name = top;
pos = (429,630);
}
);
layerId = "51BB9282-3B82-4DF1-A67A-294D3E37D73A";
shapes = (
{
closed = 1;
nodes = (
(289,1,l),
(280,42,l),
(233,42,o),
(214,54,o),
(208,97,cs),
(203,133,o),
(200,239,o),
(200,358,cs),
(200,427,o),
(201,491,o),
(204,541,c),
(198,551,l),
(230,438,l),
(303,316,o),
(407,83,o),
(421,25,c),
(474,41,l),
(453,69,l),
(435,204,l),
(405,324,o),
(276,551,o),
(238,615,c),
(203,613,o),
(171,613,o),
(139,613,cs),
(107,613,o),
(74,614,o),
(36,616,c),
(42,567,l),
(88,567,o),
(135,559,o),
(135,497,cs),
(135,386,ls),
(135,319,o),
(134,158,o),
(130,117,cs),
(124,59,o),
(94,45,o),
(38,45,c),
(44,1,l)
);
},
{
closed = 1;
nodes = (
(856,1,l),
(849,41,l),
(792,41,o),
(774,50,o),
(768,117,cs),
(764,163,o),
(762,276,o),
(762,351,cs),
(762,372,o),
(762,466,o),
(764,495,cs),
(768,558,o),
(798,567,o),
(852,567,c),
(845,616,l),
(802,613,o),
(758,612,o),
(727,612,cs),
(695,612,o),
(669,613,o),
(646,614,c),
(419,62,l),
(475,41,l),
(536,197,o),
(598,340,o),
(655,466,c),
(689,580,l),
(680,562,l),
(684,497,o),
(686,405,o),
(686,308,cs),
(686,210,o),
(684,132,o),
(681,107,cs),
(674,49,o),
(635,45,o),
(597,45,c),
(604,1,l)
);
}
);
width = 888;
}
);
unicode = 77;
}
{
glyphname = N;
layers = (
{
anchors = (
{
name = bottom;
pos = (366,0);
},
{
name = top;
pos = (359,630);
}
);
layerId = "51BB9282-3B82-4DF1-A67A-294D3E37D73A";
shapes = (
{
closed = 1;
nodes = (
(553,-4,o),
(576,0,o),
(614,2,c),
(611,80,o),
(609,170,o),
(609,240,cs),
(609,339,o),
(613,472,o),
(618,513,cs),
(623,552,o),
(637,568,o),
(690,568,c),
(683,617,l),
(636,611,o),
(604,611,o),
(573,611,cs),
(517,611,o),
(487,613,o),
(444,616,c),
(451,567,l),
(504,567,o),
(529,559,o),
(535,487,cs),
(538,451,o),
(540,354,o),
(540,277,cs),
(540,199,o),
(538,107,o),
(530,74,c),
(549,54,l),
(504,205,l),
(415,338,o),
(272,538,o),
(221,614,c),
(185,612,o),
(159,612,o),
(129,612,cs),
(96,612,o),
(63,613,o),
(22,616,c),
(28,567,l),
(82,567,o),
(108,541,o),
(111,496,cs),
(113,470,o),
(113,365,o),
(113,323,cs),
(113,306,o),
(110,158,o),
(106,116,cs),
(100,54,o),
(75,47,o),
(24,47,c),
(30,-1,l),
(269,-1,l),
(262,43,l),
(222,43,o),
(191,57,o),
(185,109,cs),
(182,134,o),
(180,205,o),
(180,296,cs),
(180,387,o),
(182,490,o),
(186,555,c),
(176,555,l),
(176,553,l),
(222,462,l),
(314,345,o),
(410,193,o),
(531,-11,c)
);
}
);
width = 713;
}
);
unicode = 78;
}
{
glyphname = O;
layers = (
{
anchors = (
{
name = bottom;
pos = (316,0);
},
{
name = ogonek;
pos = (476,44);
},
{
name = top;
pos = (309,650);
}
);
layerId = "51BB9282-3B82-4DF1-A67A-294D3E37D73A";
shapes = (
{
closed = 1;
nodes = (
(480,-12,o),
(592,123,o),
(592,324,cs),
(592,526,o),
(479,619,o),
(341,619,cs),
(167,619,o),
(36,473,o),
(36,275,cs),
(36,100,o),
(139,-12,o),
(302,-12,cs)
);
},
{
closed = 1;
nodes = (
(199,47,o),
(129,156,o),
(129,307,cs),
(129,488,o),
(230,565,o),
(317,565,cs),
(408,565,o),
(494,479,o),
(494,310,cs),
(494,172,o),
(437,47,o),
(314,47,cs)
);
}
);
width = 630;
}
);
unicode = 79;
}
{
glyphname = P;
layers = (
{
layerId = "51BB9282-3B82-4DF1-A67A-294D3E37D73A";
shapes = (
{
closed = 1;
nodes = (
(290,0,l),
(280,43,l),
(219,43,o),
(193,61,o),
(187,96,cs),
(182,125,o),
(182,219,o),
(182,270,c),
(151,264,l),
(151,263,o),
(151,263,o),
(152,263,c),
(178,248,o),
(225,236,o),
(277,236,cs),
(429,236,o),
(513,341,o),
(513,460,cs),
(513,558,o),
(456,619,o),
(294,619,cs),
(273,619,o),
(230,618,o),
(189,616,cs),
(152,614,o),
(117,613,o),
(88,613,cs),
(66,613,o),
(42,613,o),
(18,615,c),
(22,567,l),
(88,564,o),
(98,529,o),
(101,484,cs),
(104,442,o),
(106,365,o),
(106,315,cs),
(106,253,o),
(103,143,o),
(98,101,cs),
(93,60,o),
(81,47,o),
(27,47,c),
(35,0,l)
);
},
{
closed = 1;
nodes = (
(230,289,o),
(194,312,o),
(184,324,c),
(184,434,ls),
(184,482,o),
(185,529,o),
(188,563,c),
(205,571,o),
(225,575,o),
(254,575,cs),
(358,575,o),
(415,524,o),
(415,435,cs),
(415,376,o),
(390,289,o),
(284,289,cs)
);
}
);
width = 543;
}
);
unicode = 80;
}
{
glyphname = Q;
layers = (
{
layerId = "51BB9282-3B82-4DF1-A67A-294D3E37D73A";
shapes = (
{
closed = 1;
nodes = (
(740,-185,o),
(793,-177,o),
(841,-165,c),
(849,-90,l),
(837,-74,l),
(830,-77,o),
(765,-99,o),
(687,-99,cs),
(594,-99,o),
(433,-67,o),
(385,16,c),
(330,9,l),
(354,-47,o),
(466,-185,o),
(687,-185,cs)
);
},
{
ref = O;
}
);
width = 648;
}
);
unicode = 81;
}
{
glyphname = R;
layers = (
{
anchors = (
{
name = bottom;
pos = (299,0);
},
{
name = top;
pos = (289,660);
}
);
layerId = "51BB9282-3B82-4DF1-A67A-294D3E37D73A";
shapes = (
{
closed = 1;
nodes = (
(290,0,l),
(280,43,l),
(221,43,o),
(193,60,o),
(187,96,cs),
(182,126,o),
(182,237,o),
(182,290,c),
(151,284,l),
(151,283,o),
(151,283,o),
(152,283,c),
(178,268,o),
(227,256,o),
(283,256,cs),
(430,256,o),
(513,340,o),
(513,454,cs),
(513,563,o),
(437,619,o),
(292,619,cs),
(273,619,o),
(230,618,o),
(189,616,cs),
(152,614,o),
(117,613,o),
(88,613,cs),
(66,613,o),
(42,613,o),
(18,615,c),
(22,567,l),
(88,564,o),
(98,529,o),
(101,484,cs),
(104,442,o),
(106,365,o),
(106,315,cs),
(106,253,o),
(103,143,o),
(98,101,cs),
(93,60,o),
(81,47,o),
(27,47,c),
(35,0,l)
);
},
{
closed = 1;
nodes = (
(599,0,l),
(590,46,l),
(517,46,o),
(399,239,o),
(359,319,c),
(280,298,l),
(464,0,l)
);
},
{
closed = 1;
nodes = (
(184,434,ls),
(184,482,o),
(185,525,o),
(188,559,c),
(202,566,o),
(226,575,o),
(267,575,cs),
(359,575,o),
(419,531,o),
(419,440,cs),
(419,376,o),
(390,313,o),
(271,313,cs),
(226,313,o),
(186,322,o),
(154,341,c),
(184,286,l)
);
}
);
width = 609;
}
);
unicode = 82;
}
{
glyphname = S;
layers = (
{
anchors = (
{
name = bottom;
pos = (239,0);
},
{
name = top;
pos = (249,660);
}
);
layerId = "51BB9282-3B82-4DF1-A67A-294D3E37D73A";
shapes = (
{
closed = 1;
nodes = (
(384,-10,o),
(420,87,o),
(420,158,cs),
(420,265,o),
(340,310,o),
(260,363,cs),
(242,375,ls),
(185,413,o),
(149,458,o),
(149,505,cs),
(149,544,o),
(174,575,o),
(231,575,cs),
(314,575,o),
(347,509,o),
(355,493,cs),
(297,609,l),
(318,561,o),
(333,505,o),
(333,468,c),
(404,460,l),
(407,481,o),
(410,514,o),
(410,547,cs),
(410,566,o),
(409,584,o),
(407,598,c),
(379,612,o),
(302,623,o),
(251,623,cs),
(118,623,o),
(63,548,o),
(63,473,cs),
(63,402,o),
(112,346,o),
(174,304,cs),
(205,283,ls),
(264,243,o),
(326,213,o),
(326,147,cs),
(326,98,o),
(292,45,o),
(221,45,cs),
(162,45,o),
(135,81,o),
(112,114,c),
(112,82,o),
(116,47,o),
(162,36,c),
(132,70,o),
(127,130,o),
(127,152,c),
(58,160,l),
(52,121,o),
(50,90,o),
(50,61,cs),
(50,41,o),
(51,25,o),
(52,13,c),
(60,9,o),
(122,-10,o),
(202,-10,cs)
);
}
);
width = 469;
}
);
unicode = 83;
}
{
glyphname = T;
layers = (
{
anchors = (
{
name = bottom;
pos = (259,0);
},
{
name = top;
pos = (269,630);
}
);
layerId = "51BB9282-3B82-4DF1-A67A-294D3E37D73A";
shapes = (
{
closed = 1;
nodes = (
(376,0,l),
(367,49,l),
(349,49,o),
(306,51,o),
(301,98,cs),
(298,128,o),
(296,196,o),
(296,248,cs),
(296,351,o),
(304,489,o),
(319,601,c),
(162,584,l),
(167,574,l),
(195,574,o),
(207,570,o),
(211,538,cs),
(214,514,o),
(217,437,o),
(217,359,cs),
(217,281,o),
(214,188,o),
(206,112,cs),
(202,76,o),
(176,49,o),
(122,47,c),
(126,0,l)
);
},
{
closed = 1;
nodes = (
(524,617,l),
(446,611,o),
(315,610,o),
(243,610,cs),
(171,610,o),
(99,611,o),
(16,616,c),
(16,573,o),
(10,501,o),
(6,465,c),
(70,474,l),
(75,501,o),
(87,558,o),
(116,586,c),
(75,554,l),
(103,555,o),
(187,557,o),
(257,557,cs),
(308,557,ls),
(361,557,o),
(416,555,o),
(467,537,c),
(403,595,ls),
(435,566,o),
(454,515,o),
(460,467,c),
(515,460,l)
);
}
);
width = 532;
}
);
unicode = 84;
}
{
glyphname = U;
layers = (
{
anchors = (
{
name = bottom;
pos = (309,0);
},
{
name = ogonek;
pos = (464,42);
},
{
name = top;
pos = (309,650);
}
);
layerId = "51BB9282-3B82-4DF1-A67A-294D3E37D73A";
shapes = (
{
closed = 1;
nodes = (
(409,-13,o),
(514,33,o),
(528,192,cs),
(531,226,o),
(531,277,o),
(531,327,cs),
(531,391,o),
(532,479,o),
(535,512,cs),
(538,544,o),
(546,563,o),
(612,566,c),
(606,616,l),
(573,614,o),
(526,612,o),
(479,613,cs),
(369,615,l),
(376,571,l),
(430,571,o),
(464,554,o),
(466,494,cs),
(468,435,o),
(469,378,o),
(469,335,cs),
(469,292,o),
(468,237,o),
(465,206,cs),
(456,109,o),
(409,47,o),
(316,47,cs),
(223,47,o),
(183,108,o),
(176,174,cs),
(173,201,o),
(173,251,o),
(173,260,cs),
(173,333,o),
(176,441,o),
(180,488,cs),
(184,535,o),
(193,562,o),
(274,567,c),
(268,617,l),
(221,614,o),
(179,613,o),
(138,613,cs),
(94,613,o),
(51,614,o),
(5,616,c),
(12,567,l),
(76,567,o),
(91,547,o),
(91,493,cs),
(91,457,ls),
(91,404,o),
(91,385,o),
(89,329,cs),
(87,273,o),
(85,216,o),
(85,193,cs),
(85,21,o),
(201,-13,o),
(297,-13,cs)
);
}
);
width = 617;
}
);
unicode = 85;
}
{
glyphname = V;
kernRight = V;
layers = (
{
layerId = "51BB9282-3B82-4DF1-A67A-294D3E37D73A";
shapes = (
{
closed = 1;
nodes = (
(287,-8,o),
(326,2,o),
(356,6,c),
(401,145,o),
(473,326,o),
(545,509,cs),
(559,545,o),
(574,568,o),
(622,568,cs),
(641,568,l),
(633,615,l),
(601,612,o),
(567,611,o),
(533,611,cs),
(484,611,o),
(434,613,o),
(384,615,c),
(391,576,l),
(398,576,ls),
(431,576,o),
(473,574,o),
(473,526,cs),
(473,519,o),
(472,512,o),
(470,504,cs),
(458,455,o),
(369,216,o),
(313,69,c),
(295,173,l),
(259,270,o),
(201,461,o),
(190,502,cs),
(184,524,o),
(184,531,o),
(184,537,cs),
(184,556,o),
(205,569,o),
(235,569,cs),
(245,569,o),
(256,568,o),
(267,566,c),
(260,615,l),
(228,613,o),
(185,612,o),
(139,612,cs),
(93,612,o),
(44,613,o),
(1,615,c),
(9,567,l),
(22,567,ls),
(63,567,o),
(75,545,o),
(91,506,cs),
(143,380,o),
(220,121,o),
(257,-18,c)
);
}
);
width = 642;
}
);
unicode = 86;
}
{
glyphname = W;
layers = (
{
anchors = (
{
name = bottom;
pos = (479,0);
},
{
name = top;
pos = (479,660);
}
);
layerId = "51BB9282-3B82-4DF1-A67A-294D3E37D73A";
shapes = (
{
closed = 1;
nodes = (
(639,-8,o),
(671,2,o),
(701,6,c),
(740,145,o),
(806,331,o),
(872,511,cs),
(886,550,o),
(903,568,o),
(958,568,c),
(950,617,l),
(912,615,o),
(873,614,o),
(835,614,cs),
(797,614,o),
(757,615,o),
(721,617,c),
(728,569,l),
(740,569,ls),
(782,569,o),
(804,563,o),
(804,532,cs),
(804,525,o),
(803,519,o),
(800,500,cs),
(794,461,o),
(711,228,o),
(657,77,c),
(650,173,l),
(611,285,o),
(571,423,o),
(554,484,cs),
(546,513,o),
(543,525,o),
(543,536,cs),
(543,559,o),
(557,572,o),
(593,572,cs),
(607,572,l),
(600,616,l),
(561,613,o),
(520,612,o),
(488,612,cs),
(443,612,o),
(403,614,o),
(367,616,c),
(373,568,l),
(426,568,o),
(443,547,o),
(459,497,cs),
(523,297,o),
(572,138,o),
(609,-18,c)
);
},
{
closed = 1;
nodes = (
(287,-8,o),
(326,2,o),
(356,6,c),
(403,145,o),
(478,345,o),
(540,487,c),
(470,477,l),
(451,429,o),
(369,213,o),
(313,59,c),
(295,173,l),
(259,270,o),
(201,461,o),
(190,502,cs),
(184,524,o),
(184,531,o),
(184,537,cs),
(184,556,o),
(205,566,o),
(235,566,cs),
(267,566,l),
(260,616,l),
(228,614,o),
(185,613,o),
(139,613,cs),
(93,613,o),
(44,614,o),
(1,616,c),
(9,567,l),
(22,567,ls),
(63,567,o),
(75,545,o),
(91,506,cs),
(143,380,o),
(220,121,o),
(257,-18,c)
);
}
);
width = 959;
}
);
unicode = 87;
}
{
glyphname = X;
layers = (
{
layerId = "51BB9282-3B82-4DF1-A67A-294D3E37D73A";
shapes = (
{
closed = 1;
nodes = (
(600,1,l),
(592,48,l),
(523,48,o),
(479,111,o),
(338,332,c),
(327,342,l),
(315,361,o),
(265,447,o),
(233,503,cs),
(225,517,o),
(221,529,o),
(221,539,cs),
(221,556,o),
(237,566,o),
(285,566,c),
(277,616,l),
(232,614,o),
(173,613,o),
(128,613,cs),
(82,613,o),
(44,614,o),
(11,617,c),
(18,565,l),
(89,565,o),
(106,546,o),
(147,481,cs),
(178,432,o),
(231,344,o),
(260,288,c),
(280,267,l),
(301,240,o),
(360,156,o),
(383,110,cs),
(390,96,o),
(394,86,o),
(394,77,cs),
(394,53,o),
(365,48,o),
(325,48,c),
(334,1,l)
);
},
{
closed = 1;
nodes = (
(257,1,l),
(250,47,l),
(209,47,o),
(196,61,o),
(196,80,cs),
(196,94,o),
(203,111,o),
(212,126,cs),
(245,181,o),
(300,269,o),
(322,294,c),
(336,304,l),
(366,348,o),
(419,424,o),
(462,482,cs),
(503,537,o),
(536,567,o),
(596,567,c),
(590,617,l),
(557,614,o),
(517,613,o),
(473,613,cs),
(428,613,o),
(385,614,o),
(347,617,c),
(353,568,l),
(391,568,o),
(413,558,o),
(413,539,cs),
(413,531,o),
(409,522,o),
(399,505,cs),
(379,471,o),
(327,392,o),
(289,344,c),
(265,323,l),
(226,258,o),
(144,140,o),
(110,99,cs),
(86,70,o),
(64,51,o),
(7,51,c),
(13,1,l)
);
}
);
width = 608;
}
);
unicode = 88;
}
{
glyphname = Y;
layers = (
{
anchors = (
{
name = bottom;
pos = (289,0);
},
{
name = top;
pos = (289,650);
}
);
layerId = "51BB9282-3B82-4DF1-A67A-294D3E37D73A";
shapes = (
{
closed = 1;
nodes = (
(273,239,o),
(303,246,o),
(326,248,c),
(344,293,o),
(420,420,o),
(482,510,cs),
(509,549,o),
(527,571,o),
(573,573,c),
(565,618,l),
(525,616,o),
(485,615,o),
(448,615,cs),
(411,615,o),
(376,616,o),
(341,618,c),
(348,569,l),
(391,569,o),
(419,560,o),
(419,536,cs),
(419,528,o),
(416,518,o),
(411,507,cs),
(374,427,o),
(341,366,o),
(293,310,c),
(264,376,l),
(235,427,o),
(201,500,o),
(194,516,cs),
(188,530,o),
(186,538,o),
(186,544,cs),
(186,564,o),
(206,572,o),
(248,576,c),
(237,618,l),
(190,616,o),
(158,615,o),
(120,615,cs),
(82,615,o),
(48,616,o),
(8,618,c),
(14,573,l),
(50,573,o),
(81,562,o),
(107,514,cs),
(185,370,o),
(215,310,o),
(247,231,c)
);
},
{
closed = 1;
nodes = (
(420,0,l),
(410,51,l),
(404,51,ls),
(358,51,o),
(347,62,o),
(339,94,cs),
(334,113,o),
(328,148,o),
(328,192,cs),
(328,217,o),
(330,253,o),
(337,296,c),
(236,287,l),
(242,233,o),
(245,197,o),
(245,168,cs),
(245,146,o),
(243,129,o),
(241,112,cs),
(237,78,o),
(224,51,o),
(185,51,cs),
(154,51,l),
(160,0,l)
);
}
);
width = 571;
}
);
unicode = 89;
}
{
glyphname = Z;
layers = (
{
anchors = (
{
name = bottom;
pos = (279,0);
},
{
name = top;
pos = (279,650);
}
);
layerId = "51BB9282-3B82-4DF1-A67A-294D3E37D73A";
shapes = (
{
closed = 1;
nodes = (
(527,0,l),
(529,52,ls),
(531,100,o),
(528,144,o),
(525,163,c),
(462,157,l),
(459,128,o),
(451,90,o),
(437,61,c),
(411,57,o),
(360,53,o),
(301,53,cs),
(272,53,o),
(234,54,o),
(198,57,cs),
(185,58,o),
(172,63,o),
(172,78,cs),
(172,82,o),
(173,87,o),
(177,92,c),
(255,215,o),
(456,527,o),
(511,569,c),
(505,616,l),
(470,614,o),
(410,614,o),
(353,614,cs),
(254,614,ls),
(188,614,o),
(97,614,o),
(61,616,c),
(61,554,ls),
(61,508,o),
(63,469,o),
(65,452,c),
(129,458,l),
(132,490,o),
(141,528,o),
(159,559,c),
(203,562,o),
(288,564,o),
(354,564,cs),
(369,564,o),
(376,560,o),
(376,555,cs),
(376,551,o),
(373,545,o),
(370,540,cs),
(293,416,o),
(96,102,o),
(23,51,c),
(31,0,l)
);
}
);
width = 563;
}
);
unicode = 90;
}
{
glyphname = bracketleft;
layers = (
{
layerId = "51BB9282-3B82-4DF1-A67A-294D3E37D73A";
shapes = (
{
closed = 1;
nodes = (
(105,-124,o),
(155,-122,o),
(203,-122,cs),
(237,-122,o),
(268,-123,o),
(299,-125,c),
(291,-52,l),
(193,-54,l),
(111,-52,l),
(142,-83,l),
(137,-22,o),
(135,104,o),
(135,225,cs),
(135,373,o),
(138,517,o),
(142,584,c),
(112,568,l),
(295,568,l),
(299,633,l),
(222,632,l),
(62,633,l),
(64,576,o),
(65,423,o),
(65,307,cs),
(65,107,o),
(62,-19,o),
(62,-124,cs),
(62,-125,l)
);
}
);
width = 338;
}
);
unicode = 91;
}
{
glyphname = backslash;
layers = (
{
layerId = "51BB9282-3B82-4DF1-A67A-294D3E37D73A";
shapes = (
{
closed = 1;
nodes = (
(406,-62,l),
(286,175,o),
(182,412,o),
(85,648,c),
(7,651,l),
(71,521,o),
(237,167,o),
(332,-62,c)
);
}
);
width = 462;
}
);
unicode = 92;
}
{
glyphname = bracketright;
layers = (
{
layerId = "51BB9282-3B82-4DF1-A67A-294D3E37D73A";
shapes = (
{
closed = 1;
nodes = (
(93,-123,o),
(124,-122,o),
(158,-122,cs),
(205,-122,o),
(255,-124,o),
(298,-125,c),
(298,-124,l),
(299,-124,l),
(296,-23,o),
(295,152,o),
(295,302,cs),
(295,452,o),
(296,579,o),
(298,633,c),
(138,632,l),
(62,633,l),
(62,607,o),
(63,598,o),
(65,568,c),
(248,568,l),
(218,584,l),
(222,515,o),
(225,362,o),
(225,216,cs),
(225,94,o),
(223,-24,o),
(219,-83,c),
(249,-52,l),
(168,-54,l),
(69,-52,l),
(65,-85,o),
(64,-96,o),
(62,-125,c)
);
}
);
width = 462;
}
);
unicode = 93;
}
{
glyphname = asciicircum;
layers = (
{
layerId = "51BB9282-3B82-4DF1-A67A-294D3E37D73A";
shapes = (
{
closed = 1;
nodes = (
(112,611,o),
(149,660,o),
(163,682,c),
(147,681,l),
(162,662,o),
(210,598,o),
(242,559,c),
(259,570,o),
(281,589,o),
(294,609,c),
(270,628,o),
(186,709,o),
(156,743,c),
(128,705,o),
(65,634,o),
(27,588,c),
(41,578,o),
(56,567,o),
(75,556,c)
);
}
);
width = 289;
}
);
unicode = 94;
}
{
glyphname = underscore;
layers = (
{
layerId = "51BB9282-3B82-4DF1-A67A-294D3E37D73A";
shapes = (
{
closed = 1;
nodes = (
(477,1,l),
(478,27,o),
(483,53,o),
(484,74,c),
(411,71,o),
(328,69,o),
(238,69,cs),
(175,69,o),
(105,70,o),
(41,74,c),
(30,1,l)
);
}
);
width = 515;
}
);
unicode = 95;
}
{
glyphname = grave;
layers = (
{
layerId = "51BB9282-3B82-4DF1-A67A-294D3E37D73A";
shapes = (
{
closed = 1;
nodes = (
(229,739,l),
(191,767,o),
(104,832,o),
(62,874,c),
(43,861,o),
(15,830,o),
(10,803,c),
(51,771,o),
(154,708,o),
(205,686,c)
);
}
);
width = 239;
}
);
unicode = 96;
}
{
glyphname = a;
layers = (
{
anchors = (
{
name = bottom;
pos = (226,-10);
},
{
name = ogonek;
pos = (467,12);
},
{
name = top;
pos = (219,470);
}
);
layerId = "51BB9282-3B82-4DF1-A67A-294D3E37D73A";
shapes = (
{
closed = 1;
nodes = (
(424,-8,o),
(455,6,o),
(467,12,c),
(458,42,l),
(448,42,ls),
(394,42,o),
(390,99,o),
(390,158,cs),
(390,188,o),
(391,212,o),
(394,256,cs),
(396,285,o),
(398,307,o),
(398,331,cs),
(398,435,o),
(362,470,o),
(265,470,cs),
(175,470,o),
(108,440,o),
(62,415,c),
(61,409,o),
(60,398,o),
(60,378,cs),
(60,356,o),
(61,328,o),
(64,302,c),
(132,309,l),
(136,359,o),
(149,394,o),
(166,429,c),
(126,365,l),
(141,386,o),
(172,427,o),
(224,427,cs),
(259,427,o),
(295,409,o),
(307,352,cs),
(312,328,o),
(314,287,o),
(314,239,cs),
(314,181,o),
(311,125,o),
(306,88,c),
(314,88,l),
(317,29,o),
(332,-8,o),
(390,-8,cs)
);
},
{
closed = 1;
nodes = (
(290,-10,o),
(332,88,o),
(333,92,c),
(312,124,l),
(307,93,o),
(262,49,o),
(202,49,cs),
(155,49,o),
(129,75,o),
(129,119,cs),
(129,178,o),
(175,220,o),
(257,220,cs),
(295,220,o),
(326,210,o),
(332,206,c),
(332,270,l),
(327,270,o),
(267,266,o),
(204,251,cs),
(84,222,o),
(31,174,o),
(31,100,cs),
(31,25,o),
(86,-10,o),
(162,-10,cs)
);
}
);
width = 479;
}
);
unicode = 97;
}
{
glyphname = b;
layers = (
{
layerId = "51BB9282-3B82-4DF1-A67A-294D3E37D73A";
shapes = (
{
closed = 1;
nodes = (
(428,-10,o),
(491,147,o),
(491,271,cs),
(491,412,o),
(410,472,o),
(325,472,cs),
(254,472,o),
(178,431,o),
(141,344,c),
(164,311,l),
(194,380,o),
(244,411,o),
(291,411,cs),
(344,411,o),
(395,372,o),
(395,252,cs),
(395,129,o),
(341,39,o),
(253,39,cs),
(180,39,o),
(131,101,o),
(130,109,c),
(79,17,l),
(103,7,o),
(166,-10,o),
(231,-10,cs)
);
},
{
closed = 1;
nodes = (
(176,51,l),
(174,62,o),
(171,92,o),
(169,125,cs),
(168,144,o),
(165,228,o),
(165,328,cs),
(165,443,o),
(169,584,o),
(182,655,c),
(167,652,o),
(47,638,o),
(-13,638,c),
(-9,590,l),
(47,590,o),
(74,582,o),
(81,544,cs),
(87,511,o),
(89,398,o),
(89,316,cs),
(89,200,o),
(85,64,o),
(79,17,c)
);
}
);
width = 530;
}
);
unicode = 98;
}
{
glyphname = c;
layers = (
{
anchors = (
{
name = bottom;
pos = (226,5);
},
{
name = top;
pos = (219,480);
}
);
layerId = "51BB9282-3B82-4DF1-A67A-294D3E37D73A";
shapes = (
{
closed = 1;
nodes = (
(321,-16,o),
(378,11,o),
(421,59,c),
(404,86,l),
(375,62,o),
(333,41,o),
(279,41,cs),
(186,41,o),
(129,105,o),
(129,223,cs),
(129,330,o),
(176,418,o),
(255,418,cs),
(294,418,o),
(328,397,o),
(345,383,c),
(334,402,o),
(317,417,o),
(291,424,c),
(328,397,o),
(343,367,o),
(359,334,c),
(405,330,l),
(409,352,o),
(410,383,o),
(410,410,cs),
(410,424,o),
(410,437,o),
(409,447,c),
(406,449,o),
(364,470,o),
(296,470,cs),
(116,470,o),
(35,324,o),
(35,191,cs),
(35,44,o),
(133,-16,o),
(246,-16,cs)
);
}
);
width = 448;
}
);
metricLeft = "=o";
unicode = 99;
}
{
glyphname = d;
layers = (
{
anchors = (
{
name = bottom;
pos = (236,-10);
},
{
name = top;
pos = (219,480);
}
);
layerId = "51BB9282-3B82-4DF1-A67A-294D3E37D73A";
shapes = (
{
closed = 1;
nodes = (
(493,-16,o),
(524,-6,o),
(551,10,c),
(541,44,l),
(534,42,o),
(527,42,o),
(521,42,cs),
(476,42,o),
(458,71,o),
(455,125,cs),
(454,142,o),
(451,220,o),
(451,321,cs),
(451,437,o),
(455,584,o),
(469,655,c),
(438,651,o),
(343,639,o),
(282,639,cs),
(273,639,l),
(277,590,l),
(283,590,ls),
(350,590,o),
(366,572,o),
(367,554,cs),
(370,499,o),
(373,394,o),
(373,305,cs),
(373,215,o),
(370,146,o),
(366,109,c),
(373,76,l),
(373,34,o),
(391,-16,o),
(460,-16,cs)
);
},
{
closed = 1;
nodes = (
(320,-10,o),
(369,51,o),
(393,108,c),
(370,139,l),
(350,93,o),
(313,52,o),
(254,52,cs),
(178,52,o),
(139,119,o),
(139,211,cs),
(139,313,o),
(186,420,o),
(293,420,cs),
(342,420,o),
(373,398,o),
(383,385,c),
(414,453,l),
(395,460,o),
(363,467,o),
(322,467,cs),
(132,467,o),
(43,314,o),
(43,188,cs),
(43,74,o),
(116,-10,o),
(226,-10,cs)
);
}
);
userData = {
com.typemytype.robofont.layerData = {
"Jan 30 17, 19:39" = {
anchors = (
);
components = (
);
contours = (
{
points = (
{
smooth = 0;
x = 640;
y = -21;
},
{
smooth = 0;
x = 681;
y = -8;
},
{
segmentType = curve;
smooth = 0;
x = 716;
y = 13;
},
{
segmentType = line;
smooth = 0;
x = 703;
y = 57;
},
{
smooth = 0;
x = 693;
y = 55;
},
{
smooth = 0;
x = 684;
y = 55;
},
{
segmentType = curve;
smooth = 1;
x = 676;
y = 55;
},
{
smooth = 0;
x = 618;
y = 55;
},
{
smooth = 0;
x = 596;
y = 90;
},
{
segmentType = curve;
smooth = 1;
x = 591;
y = 162;
},
{
smooth = 0;
x = 589;
y = 187;
},
{
smooth = 0;
x = 586;
y = 291;
},
{
segmentType = curve;
smooth = 1;
x = 586;
y = 413;
},
{
smooth = 0;
x = 586;
y = 569;
},
{
smooth = 0;
x = 591;
y = 756;
},
{
segmentType = curve;
smooth = 0;
x = 609;
y = 850;
},
{
smooth = 0;
x = 609;
y = 850;
},
{
smooth = 0;
x = 453;
y = 830;
},
{
segmentType = curve;
smooth = 1;
x = 366;
y = 830;
},
{
segmentType = line;
smooth = 0;
x = 355;
y = 830;
},
{
segmentType = line;
smooth = 0;
x = 360;
y = 766;
},
{
segmentType = line;
smooth = 1;
x = 367;
y = 766;
},
{
smooth = 0;
x = 435;
y = 766;
},
{
smooth = 0;
x = 475;
y = 752;
},
{
segmentType = curve;
smooth = 1;
x = 477;
y = 707;
},
{
smooth = 0;
x = 480;
y = 639;
},
{
smooth = 0;
x = 484;
y = 507;
},
{
segmentType = curve;
smooth = 1;
x = 484;
y = 385;
},
{
smooth = 0;
x = 484;
y = 284;
},
{
smooth = 0;
x = 481;
y = 189;
},
{
segmentType = curve;
smooth = 0;
x = 475;
y = 142;
},
{
segmentType = line;
smooth = 0;
x = 484;
y = 99;
},
{
smooth = 0;
x = 484;
y = 44;
},
{
smooth = 0;
x = 508;
y = -21;
},
{
segmentType = curve;
smooth = 1;
x = 598;
y = -21;
}
);
},
{
points = (
{
smooth = 0;
x = 403;
y = -13;
},
{
smooth = 0;
x = 479;
y = 66;
},
{
segmentType = curve;
smooth = 0;
x = 511;
y = 140;
},
{
segmentType = line;
smooth = 0;
x = 480;
y = 181;
},
{
smooth = 0;
x = 460;
y = 130;
},
{
smooth = 0;
x = 407;
y = 67;
},
{
segmentType = curve;
smooth = 1;
x = 328;
y = 67;
},
{
smooth = 0;
x = 228;
y = 67;
},
{
smooth = 0;
x = 180;
y = 156;
},
{
segmentType = curve;
smooth = 1;
x = 180;
y = 261;
},
{
smooth = 0;
x = 180;
y = 426;
},
{
smooth = 0;
x = 256;
y = 545;
},
{
segmentType = curve;
smooth = 1;
x = 374;
y = 545;
},
{
smooth = 0;
x = 447;
y = 545;
},
{
smooth = 0;
x = 498;
y = 500;
},
{
segmentType = curve;
smooth = 0;
x = 498;
y = 500;
},
{
segmentType = line;
smooth = 0;
x = 538;
y = 588;
},
{
smooth = 0;
x = 513;
y = 597;
},
{
smooth = 0;
x = 470;
y = 606;
},
{
segmentType = curve;
smooth = 1;
x = 422;
y = 606;
},
{
smooth = 0;
x = 171;
y = 606;
},
{
smooth = 0;
x = 56;
y = 408;
},
{
segmentType = curve;
smooth = 1;
x = 56;
y = 248;
},
{
smooth = 0;
x = 56;
y = 95;
},
{
smooth = 0;
x = 164;
y = -13;
},
{
segmentType = curve;
smooth = 1;
x = 307;
y = -13;
}
);
}
);
lib = {
};
name = d;
unicodes = (
);
width = 745;
};
};
};
width = 574;
}
);
unicode = 100;
}
{
glyphname = e;
layers = (
{
anchors = (
{
name = bottom;
pos = (256,-10);
},
{
name = ogonek;
pos = (419,59);
},
{
name = top;
pos = (249,470);
}
);
layerId = "51BB9282-3B82-4DF1-A67A-294D3E37D73A";
shapes = (
{
closed = 1;
nodes = (
(354,-15,o),
(404,39,o),
(420,59,c),
(404,85,l),
(399,79,o),
(358,41,o),
(281,41,cs),
(163,41,o),
(131,132,o),
(131,228,cs),
(131,347,o),
(181,422,o),
(247,422,cs),
(310,422,o),
(341,352,o),
(341,278,c),
(292,278,l),
(108,260,l),
(121,223,l),
(436,225,l),
(438,239,o),
(438,252,o),
(438,265,cs),
(438,396,o),
(361,467,o),
(263,467,cs),
(147,467,o),
(38,369,o),
(38,207,cs),
(38,55,o),
(135,-15,o),
(252,-15,cs)
);
}
);
width = 473;
}
);
unicode = 101;
}
{
glyphname = f;
kernRight = f;
layers = (
{
layerId = "51BB9282-3B82-4DF1-A67A-294D3E37D73A";
shapes = (
{
closed = 1;
nodes = (
(276,0,l),
(268,41,l),
(217,41,o),
(191,67,o),
(184,140,cs),
(180,182,o),
(180,268,o),
(180,312,cs),
(180,376,o),
(180,458,o),
(182,507,cs),
(187,627,o),
(208,653,o),
(246,653,cs),
(301,653,o),
(342,599,o),
(372,553,c),
(388,584,o),
(405,640,o),
(405,682,c),
(398,685,o),
(353,699,o),
(303,699,cs),
(214,699,o),
(103,653,o),
(103,490,cs),
(103,429,l),
(101,426,l),
(105,309,o),
(105,230,o),
(105,150,cs),
(105,80,o),
(102,47,o),
(19,47,c),
(25,0,l)
);
},
{
closed = 1;
nodes = (
(158,388,l),
(306,402,l),
(296,453,l),
(246,451,o),
(205,450,o),
(163,450,cs),
(121,450,o),
(78,451,o),
(23,453,c),
(31,400,l),
(78,400,o),
(125,390,o),
(125,339,c)
);
}
);
width = 376;
}
);
unicode = 102;
}
{
glyphname = g;
layers = (
{
anchors = (
{
name = bottom;
pos = (266,9);
},
{
name = top;
pos = (259,489);
}
);
layerId = "51BB9282-3B82-4DF1-A67A-294D3E37D73A";
shapes = (
{
closed = 1;
nodes = (
(405,-206,o),
(524,-120,o),
(524,-19,cs),
(524,100,o),
(358,100,o),
(206,100,cs),
(184,100,o),
(175,109,o),
(175,122,cs),
(175,137,o),
(188,158,o),
(210,176,c),
(199,199,l),
(147,169,o),
(98,134,o),
(65,95,c),
(72,53,o),
(94,44,o),
(159,44,cs),
(268,44,o),
(427,44,o),
(427,-43,cs),
(427,-92,o),
(375,-159,o),
(254,-159,cs),
(178,-159,o),
(129,-132,o),
(129,-82,cs),
(129,-16,o),
(214,34,o),
(282,49,c),
(205,54,l),
(131,26,o),
(39,-21,o),
(39,-98,cs),
(39,-166,o),
(111,-206,o),
(230,-206,cs)
);
},
{
closed = 1;
nodes = (
(365,176,o),
(445,254,o),
(445,342,cs),
(445,442,o),
(342,470,o),
(271,470,cs),
(162,470,o),
(57,403,o),
(57,303,cs),
(57,223,o),
(125,176,o),
(230,176,cs)
);
},
{
closed = 1;
nodes = (
(197,218,o),
(150,246,o),
(150,312,cs),
(150,385,o),
(206,429,o),
(261,429,cs),
(320,429,o),
(350,379,o),
(350,328,cs),
(350,271,o),
(313,218,o),
(246,218,cs)
);
},
{
closed = 1;
nodes = (
(570,372,o),
(571,386,o),
(571,401,cs),
(571,424,o),
(569,450,o),
(567,467,c),
(488,421,o),
(427,399,o),
(403,397,c),
(436,365,l),
(475,365,o),
(526,365,o),
(569,363,c)
);
}
);
width = 592;
}
);
unicode = 103;
}
{
glyphname = h;
layers = (
{
anchors = (
{
name = bottom;
pos = (316,-10);
},
{
name = top;
pos = (369,500);
}
);
layerId = "51BB9282-3B82-4DF1-A67A-294D3E37D73A";
shapes = (
{
closed = 1;
nodes = (
(571,0,l),
(564,39,l),
(503,39,o),
(493,70,o),
(493,111,cs),
(493,129,o),
(495,166,o),
(497,199,cs),
(499,232,o),
(500,261,o),
(500,291,cs),
(500,321,o),
(499,352,o),
(496,372,cs),
(485,445,o),
(438,471,o),
(385,471,cs),
(299,471,o),
(216,402,o),
(178,350,c),
(197,321,l),
(207,339,o),
(253,395,o),
(326,395,cs),
(373,395,o),
(404,372,o),
(412,321,cs),
(415,302,o),
(417,264,o),
(417,228,cs),
(417,191,o),
(415,132,o),
(411,105,cs),
(404,56,o),
(382,46,o),
(352,46,cs),
(342,46,o),
(332,47,o),
(322,48,c),
(330,0,l)
);
},
{
closed = 1;
nodes = (
(281,0,l),
(273,39,l),
(269,39,ls),
(225,39,o),
(202,59,o),
(202,132,cs),
(202,250,o),
(206,528,o),
(221,655,c),
(210,653,o),
(92,638,o),
(30,638,c),
(35,590,l),
(95,590,o),
(119,589,o),
(122,541,cs),
(123,526,o),
(125,457,o),
(125,372,cs),
(125,263,o),
(121,149,o),
(117,115,cs),
(111,65,o),
(88,47,o),
(39,47,cs),
(29,47,l),
(37,0,l)
);
}
);
width = 598;
}
);
unicode = 104;
}
{
glyphname = k;
layers = (
{
layerId = "51BB9282-3B82-4DF1-A67A-294D3E37D73A";
shapes = (
{
closed = 1;
nodes = (
(281,0,l),
(273,39,l),
(269,39,ls),
(225,39,o),
(202,59,o),
(202,132,cs),
(202,250,o),
(206,528,o),
(221,655,c),
(202,649,o),
(91,636,o),
(30,636,c),
(35,590,l),
(95,590,o),
(120,588,o),
(122,554,cs),
(125,498,o),
(125,435,o),
(125,372,cs),
(125,309,o),
(125,149,o),
(118,105,cs),
(112,66,o),
(89,47,o),
(39,47,cs),
(29,47,l),
(37,0,l)
);
},
{
closed = 1;
nodes = (
(484,-9,o),
(516,-3,o),
(556,8,c),
(547,48,l),
(416,50,o),
(327,255,o),
(321,275,c),
(301,269,o),
(273,261,o),
(253,261,cs),
(246,261,o),
(241,262,o),
(236,263,c),
(264,206,o),
(366,4,o),
(436,-8,cs),
(442,-9,o),
(449,-9,o),
(455,-9,cs)
);
},
{
closed = 1;
nodes = (
(227,236,o),
(295,236,o),
(319,242,c),
(331,263,o),
(384,339,o),
(430,383,cs),
(458,410,o),
(478,419,o),
(502,420,c),
(492,457,l),
(452,455,o),
(403,454,o),
(375,454,cs),
(347,454,o),
(333,455,o),
(316,457,c),
(321,417,l),
(341,417,o),
(349,410,o),
(349,399,cs),
(349,395,o),
(347,389,o),
(343,383,cs),
(310,334,o),
(282,294,o),
(268,286,c),
(247,286,o),
(222,290,o),
(203,294,c),
(187,236,l)
);
}
);
width = 563;
}
);
unicode = 107;
}
{
glyphname = l;
layers = (
{
layerId = "51BB9282-3B82-4DF1-A67A-294D3E37D73A";
shapes = (
{
closed = 1;
nodes = (
(281,0,l),
(273,39,l),
(269,39,ls),
(225,39,o),
(204,56,o),
(203,132,cs),
(202,196,ls),
(200,326,o),
(207,544,o),
(221,655,c),
(198,651,o),
(85,635,o),
(30,635,c),
(35,590,l),
(95,590,o),
(120,588,o),
(122,554,cs),
(125,498,o),
(125,435,o),
(125,372,cs),
(125,309,o),
(125,149,o),
(118,105,cs),
(112,66,o),
(89,47,o),
(39,47,cs),
(29,47,l),
(37,0,l)
);
}
);
width = 307;
}
);
unicode = 108;
}
{
glyphname = m;
layers = (
{
anchors = (
{
name = bottom;
pos = (456,5);
},
{
name = top;
pos = (449,500);
}
);
layerId = "51BB9282-3B82-4DF1-A67A-294D3E37D73A";
shapes = (
{
closed = 1;
nodes = (
(852,0,l),
(845,39,l),
(810,39,o),
(781,51,o),
(782,91,cs),
(785,187,l),
(787,297,ls),
(787,309,o),
(786,344,o),
(784,370,cs),
(777,442,o),
(732,471,o),
(672,471,cs),
(592,471,o),
(516,420,o),
(478,373,c),
(497,346,l),
(500,352,o),
(543,399,o),
(612,399,cs),
(660,399,o),
(688,376,o),
(696,323,cs),
(699,303,o),
(701,267,o),
(701,229,cs),
(701,191,o),
(699,133,o),
(695,105,cs),
(687,51,o),
(665,41,o),
(631,41,cs),
(621,41,l),
(629,0,l)
);
},
{
closed = 1;
nodes = (
(287,0,l),
(280,37,l),
(250,37,o),
(214,42,o),
(214,105,cs),
(214,194,o),
(217,305,o),
(221,391,c),
(204,381,l),
(209,401,o),
(218,458,o),
(218,468,c),
(196,466,o),
(91,457,o),
(30,457,c),
(35,411,l),
(131,409,o),
(132,374,o),
(132,291,cs),
(132,240,o),
(132,162,o),
(126,94,cs),
(123,59,o),
(93,47,o),
(59,47,cs),
(52,47,o),
(46,47,o),
(39,48,c),
(45,0,l)
);
},
{
closed = 1;
nodes = (
(571,0,l),
(564,39,l),
(529,39,o),
(500,51,o),
(501,91,cs),
(504,187,l),
(506,297,ls),
(506,311,o),
(505,346,o),
(503,370,cs),
(496,441,o),
(451,471,o),
(390,471,cs),
(310,471,o),
(233,418,o),
(197,373,c),
(216,346,l),
(219,352,o),
(262,399,o),
(331,399,cs),
(379,399,o),
(407,376,o),
(415,323,cs),
(418,303,o),
(420,267,o),
(420,229,cs),
(420,191,o),
(418,133,o),
(414,105,cs),
(407,53,o),
(384,45,o),
(350,45,cs),
(340,45,l),
(348,0,l)
);
}
);
width = 872;
}
);
unicode = 109;
}
{
glyphname = n;
layers = (
{
anchors = (
{
name = bottom;
pos = (326,0);
},
{
name = top;
pos = (339,490);
}
);
layerId = "51BB9282-3B82-4DF1-A67A-294D3E37D73A";
shapes = (
{
closed = 1;
nodes = (
(594,0,l),
(587,39,l),
(556,39,o),
(518,45,o),
(518,108,cs),
(518,122,o),
(520,146,o),
(522,207,cs),
(524,287,ls),
(525,328,o),
(522,359,o),
(520,370,cs),
(507,443,o),
(464,470,o),
(406,470,cs),
(323,470,o),
(239,412,o),
(201,360,c),
(220,331,l),
(226,341,o),
(274,397,o),
(349,397,cs),
(396,397,o),
(429,375,o),
(437,323,cs),
(440,304,o),
(442,266,o),
(442,229,cs),
(442,192,o),
(440,132,o),
(436,104,cs),
(429,55,o),
(409,42,o),
(367,42,cs),
(347,42,l),
(355,0,l)
);
},
{
closed = 1;
nodes = (
(297,0,l),
(290,37,l),
(260,37,o),
(224,42,o),
(224,105,cs),
(224,194,o),
(227,305,o),
(231,391,c),
(214,375,l),
(219,395,o),
(228,458,o),
(228,468,c),
(206,466,o),
(101,457,o),
(40,457,c),
(45,411,l),
(141,409,o),
(142,374,o),
(142,291,cs),
(142,240,o),
(142,162,o),
(136,94,cs),
(133,59,o),
(103,47,o),
(69,47,cs),
(62,47,o),
(56,47,o),
(49,48,c),
(55,0,l)
);
}
);
width = 622;
}
);
unicode = 110;
}
{
glyphname = o;
layers = (
{
anchors = (
{
name = bottom;
pos = (236,-10);
},
{
name = ogonek;
pos = (377,29);
},
{
name = top;
pos = (269,490);
}
);
layerId = "51BB9282-3B82-4DF1-A67A-294D3E37D73A";
shapes = (
{
closed = 1;
nodes = (
(410,-14,o),
(475,124,o),
(475,261,cs),
(475,412,o),
(395,473,o),
(286,473,cs),
(139,473,o),
(35,361,o),
(35,198,cs),
(35,68,o),
(102,-14,o),
(236,-14,cs)
);
},
{
closed = 1;
nodes = (
(176,33,o),
(133,119,o),
(133,230,cs),
(133,343,o),
(178,429,o),
(258,429,cs),
(333,429,o),
(384,352,o),
(384,238,cs),
(384,131,o),
(339,33,o),
(255,33,cs)
);
}
);
width = 510;
}
);
unicode = 111;
}
{
glyphname = p;
layers = (
{
layerId = "51BB9282-3B82-4DF1-A67A-294D3E37D73A";
shapes = (
{
closed = 1;
nodes = (
(302,-195,l),
(295,-158,l),
(291,-158,o),
(287,-158,o),
(283,-157,c),
(209,-151,o),
(202,-103,o),
(202,-47,cs),
(202,215,ls),
(202,269,o),
(205,325,o),
(208,376,c),
(190,370,l),
(195,390,o),
(208,465,o),
(208,468,c),
(197,466,o),
(137,457,o),
(70,457,cs),
(33,457,o),
(29,457,o),
(20,458,c),
(25,409,l),
(112,409,o),
(118,379,o),
(126,280,cs),
(127,268,o),
(128,224,o),
(128,179,cs),
(128,133,o),
(127,21,o),
(125,-10,cs),
(118,-114,o),
(112,-156,o),
(35,-156,c),
(41,-195,l)
);
},
{
closed = 1;
nodes = (
(415,4,o),
(537,120,o),
(537,281,cs),
(537,405,o),
(465,473,o),
(369,473,cs),
(279,473,o),
(206,412,o),
(182,355,c),
(205,323,l),
(224,366,o),
(270,410,o),
(329,410,cs),
(406,410,o),
(434,337,o),
(434,253,cs),
(434,150,o),
(392,55,o),
(289,55,cs),
(237,55,o),
(191,79,o),
(185,84,c),
(164,16,l),
(183,9,o),
(214,4,o),
(249,4,cs)
);
}
);
width = 581;
}
);
unicode = 112;
}
{
glyphname = q;
layers = (
{
layerId = "51BB9282-3B82-4DF1-A67A-294D3E37D73A";
shapes = (
{
closed = 1;
nodes = (
(280,-6,o),
(344,31,o),
(384,123,c),
(358,155,l),
(330,90,o),
(284,55,o),
(231,55,cs),
(178,55,o),
(128,91,o),
(128,206,cs),
(128,327,o),
(184,414,o),
(247,426,cs),
(252,427,o),
(261,428,o),
(270,428,cs),
(342,428,o),
(378,366,o),
(387,349,c),
(443,449,l),
(419,459,o),
(360,474,o),
(297,474,cs),
(103,474,o),
(35,331,o),
(35,197,cs),
(35,64,o),
(102,-6,o),
(205,-6,cs)
);
},
{
closed = 1;
nodes = (
(518,-195,l),
(514,-158,l),
(466,-158,o),
(445,-121,o),
(440,-69,cs),
(436,-24,o),
(434,142,o),
(434,223,cs),
(434,322,o),
(437,400,o),
(443,449,c),
(288,464,l),
(298,430,l),
(304,431,o),
(310,431,o),
(315,431,cs),
(346,431,o),
(350,397,o),
(353,341,cs),
(354,323,o),
(356,188,o),
(356,81,cs),
(356,15,ls),
(356,-115,o),
(344,-142,o),
(264,-147,c),
(270,-195,l)
);
}
);
width = 525;
}
);
unicode = 113;
}
{
glyphname = r;
layers = (
{
anchors = (
{
name = bottom;
pos = (186,0);
},
{
name = top;
pos = (239,470);
}
);
layerId = "51BB9282-3B82-4DF1-A67A-294D3E37D73A";
shapes = (
{
closed = 1;
nodes = (
(327,0,l),
(319,37,l),
(314,37,ls),
(276,37,o),
(231,48,o),
(223,123,cs),
(221,142,o),
(220,178,o),
(220,208,cs),
(220,261,o),
(223,311,o),
(227,368,c),
(212,358,l),
(217,378,o),
(226,444,o),
(228,468,c),
(172,462,o),
(121,458,o),
(63,458,cs),
(40,458,l),
(45,410,l),
(114,410,o),
(134,391,o),
(140,349,cs),
(142,334,o),
(142,316,o),
(142,291,cs),
(142,246,o),
(141,133,o),
(135,93,cs),
(129,53,o),
(112,48,o),
(58,48,c),
(64,0,l)
);
},
{
closed = 1;
nodes = (
(218,322,o),
(257,357,o),
(298,370,cs),
(311,374,o),
(326,375,o),
(341,375,c),
(324,381,l),
(352,370,o),
(366,350,o),
(371,332,c),
(419,330,l),
(424,362,o),
(428,428,o),
(428,461,cs),
(428,470,l),
(333,470,o),
(199,383,o),
(174,293,c),
(193,265,l)
);
}
);
width = 448;
}
);
metricLeft = "=n";
unicode = 114;
}
{
glyphname = s;
layers = (
{
anchors = (
{
name = bottom;
pos = (216,-10);
},
{
name = top;
pos = (219,470);
}
);
layerId = "51BB9282-3B82-4DF1-A67A-294D3E37D73A";
shapes = (
{
closed = 1;
nodes = (
(290,-19,o),
(358,44,o),
(358,123,cs),
(358,202,o),
(289,238,o),
(227,269,cs),
(207,279,ls),
(165,300,o),
(131,326,o),
(131,366,cs),
(131,403,o),
(162,426,o),
(202,426,cs),
(267,426,o),
(299,369,o),
(304,356,c),
(308,404,l),
(254,455,l),
(270,418,o),
(282,371,o),
(283,343,c),
(341,336,l),
(344,353,o),
(345,381,o),
(345,407,cs),
(345,422,o),
(345,436,o),
(344,447,c),
(335,451,o),
(285,467,o),
(224,467,cs),
(107,467,o),
(51,409,o),
(51,341,cs),
(51,265,o),
(120,228,o),
(162,206,cs),
(181,196,ls),
(229,171,o),
(273,146,o),
(273,104,cs),
(273,67,o),
(239,26,o),
(184,26,cs),
(126,26,o),
(96,72,o),
(87,91,c),
(91,57,o),
(99,32,o),
(130,23,c),
(112,50,o),
(110,94,o),
(110,120,c),
(46,127,l),
(41,95,o),
(39,64,o),
(40,47,cs),
(42,5,l),
(67,-4,o),
(118,-19,o),
(174,-19,cs)
);
}
);
userData = {
com.typemytype.robofont.layerData = {
"Regular Nov 4 16, 19:41" = {
anchors = (
{
name = top;
x = 284;
y = 670;
},
{
name = bottom;
x = 256;
y = -10;
}
);
components = (
);
contours = (
{
points = (
{
smooth = 0;
x = 387;
y = -25;
},
{
smooth = 0;
x = 477;
y = 56;
},
{
segmentType = curve;
smooth = 1;
x = 477;
y = 162;
},
{
smooth = 0;
x = 477;
y = 352;
},
{
smooth = 0;
x = 182;
y = 340;
},
{
segmentType = curve;
smooth = 1;
x = 182;
y = 475;
},
{
smooth = 0;
x = 182;
y = 524;
},
{
smooth = 0;
x = 222;
y = 555;
},
{
segmentType = curve;
smooth = 1;
x = 274;
y = 555;
},
{
smooth = 0;
x = 358;
y = 554;
},
{
smooth = 0;
x = 379;
y = 478;
},
{
segmentType = curve;
smooth = 0;
x = 393;
y = 462;
},
{
segmentType = line;
smooth = 1;
x = 338;
y = 591;
},
{
smooth = 0;
x = 359;
y = 543;
},
{
smooth = 0;
x = 374;
y = 482;
},
{
segmentType = curve;
smooth = 0;
x = 375;
y = 445;
},
{
segmentType = line;
smooth = 0;
x = 455;
y = 437;
},
{
smooth = 0;
x = 458;
y = 459;
},
{
smooth = 0;
x = 460;
y = 495;
},
{
segmentType = curve;
smooth = 1;
x = 460;
y = 528;
},
{
smooth = 0;
x = 460;
y = 548;
},
{
smooth = 0;
x = 459;
y = 566;
},
{
segmentType = curve;
smooth = 0;
x = 458;
y = 580;
},
{
smooth = 0;
x = 458;
y = 580;
},
{
smooth = 0;
x = 388;
y = 606;
},
{
segmentType = curve;
smooth = 1;
x = 295;
y = 606;
},
{
smooth = 0;
x = 154;
y = 606;
},
{
smooth = 0;
x = 78;
y = 527;
},
{
segmentType = curve;
smooth = 1;
x = 78;
y = 434;
},
{
smooth = 0;
x = 78;
y = 267;
},
{
smooth = 0;
x = 366;
y = 264;
},
{
segmentType = curve;
smooth = 1;
x = 366;
y = 136;
},
{
smooth = 0;
x = 366;
y = 74;
},
{
smooth = 0;
x = 322;
y = 36;
},
{
segmentType = curve;
smooth = 1;
x = 256;
y = 36;
},
{
smooth = 0;
x = 168;
y = 36;
},
{
smooth = 0;
x = 147;
y = 94;
},
{
segmentType = curve;
smooth = 0;
x = 115;
y = 128;
},
{
smooth = 0;
x = 122;
y = 85;
},
{
smooth = 0;
x = 134;
y = 41;
},
{
segmentType = curve;
smooth = 0;
x = 175;
y = 30;
},
{
smooth = 0;
x = 151;
y = 65;
},
{
smooth = 0;
x = 142;
y = 109;
},
{
segmentType = curve;
smooth = 0;
x = 139;
y = 156;
},
{
segmentType = line;
smooth = 0;
x = 56;
y = 165;
},
{
smooth = 0;
x = 50;
y = 124;
},
{
smooth = 0;
x = 47;
y = 83;
},
{
segmentType = curve;
smooth = 1;
x = 47;
y = 49;
},
{
smooth = 0;
x = 47;
y = 33;
},
{
smooth = 0;
x = 48;
y = 18;
},
{
segmentType = curve;
smooth = 0;
x = 49;
y = 7;
},
{
smooth = 0;
x = 49;
y = 7;
},
{
smooth = 0;
x = 132;
y = -25;
},
{
segmentType = curve;
smooth = 1;
x = 245;
y = -25;
}
);
}
);
lib = {
};
name = s;
unicodes = (
);
width = 531;
};
};
};
width = 398;
}
);
unicode = 115;
}
{
glyphname = t;
layers = (
{
anchors = (
{
name = bottom;
pos = (186,-10);
},
{
name = ogonek;
pos = (330,43);
},
{
name = top;
pos = (159,598);
}
);
layerId = "51BB9282-3B82-4DF1-A67A-294D3E37D73A";
shapes = (
{
closed = 1;
nodes = (
(258,-13,o),
(311,23,o),
(330,43,c),
(310,69,l),
(289,56,o),
(271,51,o),
(251,51,cs),
(221,51,o),
(192,63,o),
(182,93,cs),
(177,108,o),
(174,136,o),
(174,171,cs),
(174,255,o),
(175,331,o),
(182,390,c),
(311,400,l),
(302,450,l),
(183,450,l),
(185,506,o),
(188,562,o),
(192,610,c),
(106,591,l),
(106,450,l),
(12,450,l),
(19,398,l),
(64,398,o),
(103,386,o),
(109,383,c),
(99,410,l),
(102,380,o),
(102,350,o),
(102,320,cs),
(102,274,o),
(99,224,o),
(96,184,cs),
(92,131,o),
(91,119,o),
(91,105,cs),
(91,28,o),
(121,-13,o),
(192,-13,cs)
);
}
);
width = 340;
}
);
unicode = 116;
}
{
glyphname = u;
layers = (
{
anchors = (
{
name = bottom;
pos = (256,-10);
},
{
name = ogonek;
pos = (535,0);
},
{
name = top;
pos = (249,510);
}
);
layerId = "51BB9282-3B82-4DF1-A67A-294D3E37D73A";
shapes = (
{
closed = 1;
nodes = (
(289,-11,o),
(349,53,o),
(392,111,c),
(372,139,l),
(367,127,o),
(338,65,o),
(263,65,cs),
(217,65,o),
(183,88,o),
(175,139,cs),
(172,159,o),
(171,196,o),
(171,230,cs),
(171,307,o),
(176,396,o),
(189,463,c),
(149,458,o),
(106,452,o),
(54,453,cs),
(8,454,l),
(13,404,l),
(18,404,ls),
(44,404,o),
(99,403,o),
(99,355,cs),
(99,315,o),
(97,282,o),
(95,251,cs),
(92,204,o),
(91,172,o),
(91,152,cs),
(91,63,o),
(111,-11,o),
(203,-11,cs)
);
},
{
closed = 1;
nodes = (
(535,0,l),
(528,43,l),
(453,45,o),
(448,79,o),
(448,141,cs),
(448,203,o),
(448,274,o),
(454,355,cs),
(462,464,l),
(428,459,o),
(369,454,o),
(317,454,cs),
(302,454,o),
(287,454,o),
(275,455,c),
(281,409,l),
(288,409,ls),
(317,409,o),
(368,407,o),
(370,345,cs),
(370,317,l),
(370,190,ls),
(370,156,o),
(369,114,o),
(367,92,c),
(383,102,l),
(382,82,o),
(375,23,o),
(372,0,c)
);
}
);
width = 546;
}
);
unicode = 117;
}
{
glyphname = v;
layers = (
{
layerId = "51BB9282-3B82-4DF1-A67A-294D3E37D73A";
shapes = (
{
closed = 1;
nodes = (
(291,14,l),
(315,75,o),
(373,217,o),
(433,353,cs),
(447,385,o),
(461,415,o),
(509,417,c),
(500,461,l),
(460,459,o),
(424,458,o),
(391,458,cs),
(358,458,o),
(327,459,o),
(293,461,c),
(299,413,l),
(344,413,o),
(379,409,o),
(379,380,cs),
(379,375,o),
(378,369,o),
(376,363,cs),
(329,233,o),
(279,112,o),
(252,55,c),
(246,122,l),
(223,185,o),
(186,289,o),
(172,357,cs),
(170,367,o),
(169,373,o),
(169,380,cs),
(169,410,o),
(190,416,o),
(238,420,c),
(227,461,l),
(178,459,o),
(139,459,o),
(98,459,cs),
(68,459,o),
(38,459,o),
(2,461,c),
(13,412,l),
(55,412,o),
(67,404,o),
(82,358,cs),
(94,320,o),
(117,234,o),
(202,-12,c)
);
}
);
width = 507;
}
);
unicode = 118;
}
{
glyphname = w;
layers = (
{
anchors = (
{
name = bottom;
pos = (386,-10);
},
{
name = top;
pos = (389,500);
}
);
layerId = "51BB9282-3B82-4DF1-A67A-294D3E37D73A";
shapes = (
{
closed = 1;
nodes = (
(554,1,l),
(571,57,o),
(637,242,o),
(680,352,cs),
(695,391,o),
(705,413,o),
(752,413,c),
(743,460,l),
(717,458,o),
(676,456,o),
(644,456,cs),
(613,456,o),
(571,458,o),
(543,460,c),
(550,410,l),
(594,410,o),
(627,403,o),
(627,372,cs),
(627,367,o),
(626,359,o),
(624,353,cs),
(584,231,o),
(547,122,o),
(523,67,c),
(512,159,l),
(488,226,o),
(468,283,o),
(448,354,cs),
(445,365,o),
(443,375,o),
(443,384,cs),
(443,408,o),
(459,415,o),
(495,417,c),
(487,460,l),
(379,458,l),
(280,460,l),
(293,410,l),
(330,410,o),
(350,399,o),
(363,362,cs),
(407,234,o),
(457,84,o),
(483,-12,c)
);
},
{
closed = 1;
nodes = (
(279,1,l),
(307,62,o),
(370,215,o),
(420,351,c),
(369,353,l),
(346,286,o),
(273,112,o),
(250,65,c),
(245,159,l),
(220,223,o),
(202,279,o),
(180,354,cs),
(177,364,o),
(175,373,o),
(175,380,cs),
(175,414,o),
(211,417,o),
(247,417,c),
(236,460,l),
(192,457,o),
(155,455,o),
(120,455,cs),
(85,455,o),
(52,457,o),
(10,460,c),
(18,410,l),
(54,410,o),
(74,405,o),
(90,356,cs),
(150,174,o),
(182,74,o),
(209,-12,c)
);
}
);
width = 751;
}
);
unicode = 119;
}
{
glyphname = x;
layers = (
{
layerId = "51BB9282-3B82-4DF1-A67A-294D3E37D73A";
shapes = (
{
closed = 1;
nodes = (
(487,-2,l),
(478,40,l),
(451,40,o),
(436,53,o),
(406,90,cs),
(354,154,o),
(309,226,o),
(291,260,c),
(254,262,l),
(228,297,o),
(210,328,o),
(187,368,cs),
(180,380,o),
(179,388,o),
(179,393,cs),
(179,409,o),
(193,417,o),
(222,417,c),
(214,460,l),
(185,458,o),
(153,457,o),
(119,457,cs),
(85,457,o),
(49,458,o),
(11,460,c),
(18,416,l),
(44,416,o),
(64,407,o),
(90,373,cs),
(113,343,o),
(164,261,o),
(189,219,c),
(218,218,l),
(250,181,o),
(288,124,o),
(306,91,cs),
(312,80,o),
(319,66,o),
(319,58,cs),
(319,43,o),
(297,36,o),
(265,36,c),
(272,-2,l)
);
},
{
closed = 1;
nodes = (
(209,-2,l),
(199,37,l),
(167,37,o),
(156,45,o),
(156,58,cs),
(156,66,o),
(161,76,o),
(167,87,cs),
(189,128,o),
(225,183,o),
(252,217,c),
(288,221,l),
(308,252,o),
(353,312,o),
(390,358,cs),
(417,392,o),
(437,417,o),
(472,419,c),
(466,460,l),
(383,458,ls),
(359,457,o),
(316,459,o),
(282,461,c),
(289,416,l),
(322,416,o),
(334,405,o),
(334,392,cs),
(334,387,o),
(332,382,o),
(328,374,cs),
(312,344,o),
(266,278,o),
(243,249,c),
(200,243,l),
(171,196,o),
(114,109,o),
(93,85,cs),
(75,64,o),
(45,41,o),
(10,41,c),
(17,-2,l)
);
}
);
width = 495;
}
);
unicode = 120;
}
{
glyphname = y;
layers = (
{
anchors = (
{
name = bottom;
pos = (246,-10);
},
{
name = top;
pos = (269,510);
}
);
layerId = "51BB9282-3B82-4DF1-A67A-294D3E37D73A";
shapes = (
{
closed = 1;
nodes = (
(222,4,o),
(270,12,o),
(293,12,c),
(321,73,o),
(373,202,o),
(435,346,cs),
(454,390,o),
(458,413,o),
(513,413,c),
(504,460,l),
(463,458,o),
(425,457,o),
(392,457,cs),
(358,457,o),
(329,458,o),
(296,460,c),
(303,410,l),
(347,410,o),
(376,403,o),
(376,373,cs),
(376,367,o),
(375,360,o),
(373,353,cs),
(362,313,o),
(283,111,o),
(255,54,c),
(231,156,l),
(207,229,o),
(191,280,o),
(170,354,cs),
(168,361,o),
(167,367,o),
(167,373,cs),
(167,406,o),
(199,414,o),
(249,417,c),
(239,460,l),
(189,458,o),
(145,458,o),
(100,458,cs),
(68,458,o),
(35,458,o),
(-2,460,c),
(4,414,l),
(40,414,o),
(64,405,o),
(80,356,cs),
(142,172,o),
(170,80,o),
(196,-6,c)
);
},
{
closed = 1;
nodes = (
(111,-203,o),
(189,-185,o),
(230,-122,cs),
(256,-82,o),
(285,-7,o),
(305,39,c),
(252,43,l),
(225,-24,o),
(188,-112,o),
(69,-112,cs),
(57,-112,o),
(46,-112,o),
(33,-110,c),
(30,-117,o),
(26,-130,o),
(26,-146,cs),
(26,-166,o),
(32,-189,o),
(49,-203,c)
);
}
);
width = 512;
}
);
unicode = 121;
}
{
glyphname = z;
layers = (
{
anchors = (
{
name = bottom;
pos = (226,-10);
},
{
name = top;
pos = (219,480);
}
);
layerId = "51BB9282-3B82-4DF1-A67A-294D3E37D73A";
shapes = (
{
closed = 1;
nodes = (
(384,0,l),
(388,34,o),
(389,67,o),
(389,92,cs),
(389,117,o),
(388,133,o),
(387,141,c),
(326,132,l),
(324,104,o),
(314,72,o),
(309,60,c),
(264,54,o),
(210,51,o),
(188,51,cs),
(163,51,o),
(154,55,o),
(154,68,cs),
(154,81,o),
(163,96,o),
(176,116,cs),
(191,139,o),
(348,378,o),
(391,420,c),
(386,460,l),
(353,458,o),
(280,456,o),
(202,456,cs),
(146,456,o),
(87,457,o),
(39,460,c),
(37,434,o),
(34,404,o),
(35,375,cs),
(37,322,l),
(93,329,l),
(93,345,o),
(105,387,o),
(114,401,c),
(137,405,o),
(168,408,o),
(209,408,cs),
(233,408,o),
(259,407,o),
(275,404,c),
(243,349,o),
(101,129,o),
(18,45,c),
(23,0,l)
);
}
);
width = 421;
}
);
unicode = 122;
}
{
glyphname = braceleft;
layers = (
{
layerId = "51BB9282-3B82-4DF1-A67A-294D3E37D73A";
shapes = (
{
closed = 1;
nodes = (
(293,-39,l),
(243,-18,o),
(228,23,o),
(233,68,cs),
(238,114,o),
(262,144,o),
(262,194,cs),
(262,247,o),
(234,274,o),
(192,293,c),
(192,313,l),
(183,315,o),
(168,316,o),
(148,316,cs),
(119,316,o),
(77,314,o),
(58,315,c),
(58,275,l),
(148,273,o),
(170,242,o),
(170,200,cs),
(170,158,o),
(149,100,o),
(149,57,cs),
(149,-22,o),
(220,-67,o),
(275,-76,c)
);
},
{
closed = 1;
nodes = (
(161,288,o),
(257,308,o),
(257,405,cs),
(257,458,o),
(228,495,o),
(228,557,cs),
(228,592,o),
(237,627,o),
(288,648,c),
(264,678,l),
(223,665,o),
(149,621,o),
(145,547,cs),
(142,499,o),
(168,437,o),
(168,393,cs),
(168,353,o),
(146,324,o),
(58,323,c),
(58,283,l)
);
}
);
width = 337;
}
);
unicode = 123;
}
{
glyphname = bar;
layers = (
{
layerId = "51BB9282-3B82-4DF1-A67A-294D3E37D73A";
shapes = (
{
closed = 1;
nodes = (
(128,-119,l),
(125,-84,o),
(124,5,o),
(124,105,cs),
(124,278,o),
(127,500,o),
(128,571,c),
(109,567,o),
(83,564,o),
(63,562,c),
(65,517,o),
(65,425,o),
(65,320,cs),
(65,162,o),
(64,-24,o),
(62,-124,c)
);
}
);
width = 183;
}
);
unicode = 124;
}
{
glyphname = asciitilde;
layers = (
{
layerId = "51BB9282-3B82-4DF1-A67A-294D3E37D73A";
shapes = (
{
closed = 1;
nodes = (
(381,218,o),
(419,243,o),
(443,295,c),
(433,305,o),
(423,313,o),
(408,319,c),
(384,296,o),
(360,283,o),
(323,283,cs),
(255,283,o),
(225,327,o),
(145,327,cs),
(71,327,o),
(34,290,o),
(17,249,c),
(27,239,o),
(40,232,o),
(51,226,c),
(67,252,o),
(94,267,o),
(130,267,cs),
(194,267,o),
(219,218,o),
(314,218,cs)
);
}
);
width = 462;
}
);
unicode = 126;
}
{
glyphname = cent;
layers = (
{
layerId = "51BB9282-3B82-4DF1-A67A-294D3E37D73A";
shapes = (
{
closed = 1;
nodes = (
(314,42,o),
(369,66,o),
(410,113,c),
(394,139,l),
(367,116,o),
(326,96,o),
(277,96,cs),
(192,96,o),
(132,157,o),
(132,269,cs),
(132,372,o),
(182,455,o),
(253,455,cs),
(289,455,o),
(323,434,o),
(339,421,c),
(327,440,o),
(312,454,o),
(286,460,c),
(323,435,o),
(336,407,o),
(352,375,c),
(396,371,l),
(400,392,o),
(400,421,o),
(400,447,cs),
(400,483,l),
(400,483,o),
(357,504,o),
(291,504,cs),
(120,504,o),
(43,365,o),
(43,239,cs),
(43,99,o),
(137,42,o),
(244,42,cs)
);
},
{
closed = 1;
nodes = (
(282,-34,l),
(280,-12,o),
(279,25,o),
(279,77,cs),
(279,234,o),
(288,507,o),
(290,594,c),
(229,585,l),
(220,-39,l)
);
}
);
width = 447;
}
);
unicode = 162;
}
{
glyphname = sterling;
layers = (
{
layerId = "51BB9282-3B82-4DF1-A67A-294D3E37D73A";
shapes = (
{
closed = 1;
nodes = (
(430,1,l),
(436,46,o),
(440,77,o),
(440,103,cs),
(440,111,o),
(440,118,o),
(439,125,c),
(425,126,o),
(411,126,o),
(386,123,c),
(382,95,o),
(370,69,o),
(356,46,c),
(372,66,l),
(353,68,o),
(324,69,o),
(295,69,cs),
(230,69,o),
(154,64,o),
(83,44,c),
(112,19,l),
(149,43,o),
(277,111,o),
(277,218,cs),
(277,317,o),
(169,387,o),
(169,487,cs),
(169,553,o),
(215,579,o),
(263,579,cs),
(306,579,o),
(333,557,o),
(350,543,c),
(338,562,o),
(321,577,o),
(295,577,c),
(333,557,o),
(340,527,o),
(356,494,c),
(410,490,l),
(413,511,o),
(414,539,o),
(414,565,cs),
(414,581,o),
(414,596,o),
(413,608,c),
(413,608,o),
(341,623,o),
(279,623,cs),
(223,623,o),
(79,611,o),
(79,478,cs),
(79,354,o),
(203,324,o),
(203,243,cs),
(203,236,o),
(202,229,o),
(199,219,cs),
(177,148,o),
(96,82,o),
(35,34,c),
(52,0,l)
);
},
{
closed = 1;
nodes = (
(399,271,l),
(387,340,l),
(321,336,o),
(260,334,o),
(203,334,cs),
(145,334,o),
(91,336,o),
(39,340,c),
(43,271,l)
);
}
);
width = 462;
}
);
unicode = 163;
}
{
glyphname = currency;
layers = (
{
layerId = "51BB9282-3B82-4DF1-A67A-294D3E37D73A";
shapes = (
{
closed = 1;
nodes = (
(341,115,o),
(391,196,o),
(391,280,cs),
(391,363,o),
(330,422,o),
(244,422,cs),
(153,422,o),
(77,357,o),
(77,262,cs),
(77,183,o),
(134,115,o),
(227,115,cs)
);
},
{
closed = 1;
nodes = (
(63,99,o),
(128,147,o),
(154,164,c),
(126,205,l),
(91,182,o),
(44,156,o),
(7,135,c),
(22,110,o),
(33,94,o),
(43,82,c)
);
},
{
closed = 1;
nodes = (
(142,368,l),
(116,383,o),
(49,430,o),
(28,444,c),
(18,433,o),
(8,416,o),
(-5,390,c),
(32,372,o),
(80,347,o),
(116,326,c)
);
},
{
closed = 1;
nodes = (
(175,158,o),
(142,204,o),
(142,263,cs),
(142,354,o),
(193,380,o),
(236,380,cs),
(283,380,o),
(329,338,o),
(329,273,cs),
(329,210,o),
(296,158,o),
(234,158,cs)
);
},
{
closed = 1;
nodes = (
(444,92,o),
(455,108,o),
(470,132,c),
(433,153,o),
(386,180,o),
(351,203,c),
(323,162,l),
(349,145,o),
(413,96,o),
(434,80,c)
);
},
{
closed = 1;
nodes = (
(393,343,o),
(440,370,o),
(477,391,c),
(463,416,o),
(451,432,o),
(441,444,c),
(421,427,o),
(357,379,o),
(330,362,c),
(359,321,l)
);
}
);
userData = {
com.typemytype.robofont.layerData = {
"Jan 19 17, 15:45" = {
anchors = (
);
components = (
);
contours = (
{
points = (
{
smooth = 0;
x = 428;
y = 159;
},
{
smooth = 0;
x = 481;
y = 266;
},
{
segmentType = curve;
smooth = 1;
x = 481;
y = 374;
},
{
smooth = 0;
x = 481;
y = 492;
},
{
smooth = 0;
x = 413;
y = 538;
},
{
segmentType = curve;
smooth = 1;
x = 317;
y = 538;
},
{
smooth = 0;
x = 210;
y = 538;
},
{
smooth = 0;
x = 129;
y = 453;
},
{
segmentType = curve;
smooth = 1;
x = 129;
y = 330;
},
{
smooth = 0;
x = 129;
y = 228;
},
{
smooth = 0;
x = 182;
y = 159;
},
{
segmentType = curve;
smooth = 1;
x = 287;
y = 159;
}
);
},
{
points = (
{
smooth = 0;
x = 232;
y = 195;
},
{
smooth = 0;
x = 195;
y = 259;
},
{
segmentType = curve;
smooth = 1;
x = 195;
y = 342;
},
{
smooth = 0;
x = 195;
y = 468;
},
{
smooth = 0;
x = 261;
y = 500;
},
{
segmentType = curve;
smooth = 1;
x = 293;
y = 503;
},
{
smooth = 0;
x = 363;
y = 510;
},
{
smooth = 0;
x = 411;
y = 446;
},
{
segmentType = curve;
smooth = 1;
x = 411;
y = 356;
},
{
smooth = 0;
x = 411;
y = 269;
},
{
smooth = 0;
x = 370;
y = 195;
},
{
segmentType = curve;
smooth = 1;
x = 296;
y = 195;
}
);
}
);
lib = {
};
name = currency;
unicodes = (
);
width = 600;
};
};
};
width = 462;
}
);
unicode = 164;
}
{
glyphname = yen;
layers = (
{
layerId = "51BB9282-3B82-4DF1-A67A-294D3E37D73A";
shapes = (
{
closed = 1;
nodes = (
(501,256,l),
(489,316,l),
(423,313,o),
(355,311,o),
(285,311,cs),
(216,311,o),
(144,313,o),
(69,316,c),
(74,256,l)
);
},
{
closed = 1;
nodes = (
(501,156,l),
(489,216,l),
(423,213,o),
(355,211,o),
(285,211,cs),
(216,211,o),
(144,213,o),
(69,216,c),
(74,156,l)
);
},
{
ref = Y;
}
);
width = 558;
}
);
unicode = 165;
}
{
export = 0;
glyphname = brokenbar;
layers = (
{
layerId = "51BB9282-3B82-4DF1-A67A-294D3E37D73A";
shapes = (
{
closed = 1;
nodes = (
(126,263,l),
(126,358,o),
(128,458,o),
(129,571,c),
(109,567,o),
(82,564,o),
(62,563,c),
(65,450,o),
(65,353,o),
(66,263,c)
);
},
{
closed = 1;
nodes = (
(127,-122,l),
(126,-82,o),
(125,-38,o),
(125,6,cs),
(125,64,o),
(126,124,o),
(126,178,c),
(66,178,l),
(66,83,o),
(65,-28,o),
(63,-122,c)
);
}
);
width = 186;
}
);
unicode = 166;
}
{
glyphname = section;
layers = (
{
layerId = "51BB9282-3B82-4DF1-A67A-294D3E37D73A";
shapes = (
{
closed = 1;
nodes = (
(315,-124,o),
(365,-40,o),
(365,33,cs),
(365,189,o),
(129,234,o),
(129,347,cs),
(129,403,o),
(166,432,o),
(209,432,c),
(233,474,l),
(116,474,o),
(54,406,o),
(54,316,cs),
(54,169,o),
(283,139,o),
(283,11,cs),
(283,-31,o),
(253,-75,o),
(191,-75,cs),
(131,-75,o),
(116,-47,o),
(89,-16,c),
(97,-53,o),
(92,-74,o),
(131,-84,c),
(105,-54,o),
(104,-22,o),
(101,18,c),
(42,25,l),
(36,-10,o),
(34,-38,o),
(34,-67,cs),
(34,-81,o),
(35,-94,o),
(36,-104,c),
(36,-104,o),
(86,-124,o),
(176,-124,cs)
);
},
{
closed = 1;
nodes = (
(430,10,o),
(478,89,o),
(478,170,cs),
(478,355,o),
(242,398,o),
(242,500,cs),
(242,537,o),
(271,565,o),
(315,565,cs),
(383,565,o),
(404,509,o),
(418,494,c),
(371,571,l),
(389,530,o),
(401,504,o),
(403,472,c),
(464,464,l),
(467,484,o),
(469,512,o),
(469,541,cs),
(469,557,o),
(468,573,o),
(467,585,c),
(467,585,o),
(412,607,o),
(338,607,cs),
(221,607,o),
(170,542,o),
(170,472,cs),
(170,343,o),
(404,306,o),
(404,158,cs),
(404,91,o),
(375,51,o),
(315,50,c),
(303,9,l)
);
}
);
userData = {
com.typemytype.robofont.layerData = {
"Jan 18 17, 00:43" = {
anchors = (
);
components = (
);
contours = (
{
points = (
{
smooth = 0;
x = 559;
y = 104;
},
{
smooth = 0;
x = 621;
y = 207;
},
{
segmentType = curve;
smooth = 1;
x = 621;
y = 312;
},
{
smooth = 0;
x = 621;
y = 552;
},
{
smooth = 0;
x = 314;
y = 608;
},
{
segmentType = curve;
smooth = 1;
x = 314;
y = 740;
},
{
smooth = 0;
x = 314;
y = 789;
},
{
smooth = 0;
x = 352;
y = 825;
},
{
segmentType = curve;
smooth = 1;
x = 409;
y = 825;
},
{
smooth = 0;
x = 497;
y = 825;
},
{
smooth = 0;
x = 525;
y = 752;
},
{
segmentType = curve;
smooth = 0;
x = 543;
y = 732;
},
{
segmentType = line;
smooth = 0;
x = 482;
y = 863;
},
{
smooth = 0;
x = 505;
y = 809;
},
{
smooth = 0;
x = 521;
y = 746;
},
{
segmentType = curve;
smooth = 0;
x = 523;
y = 704;
},
{
segmentType = line;
smooth = 0;
x = 603;
y = 694;
},
{
smooth = 0;
x = 606;
y = 719;
},
{
smooth = 0;
x = 609;
y = 756;
},
{
segmentType = curve;
smooth = 1;
x = 609;
y = 793;
},
{
smooth = 0;
x = 609;
y = 814;
},
{
smooth = 0;
x = 608;
y = 835;
},
{
segmentType = curve;
smooth = 0;
x = 606;
y = 851;
},
{
smooth = 0;
x = 606;
y = 851;
},
{
smooth = 0;
x = 535;
y = 879;
},
{
segmentType = curve;
smooth = 1;
x = 439;
y = 879;
},
{
smooth = 0;
x = 287;
y = 879;
},
{
smooth = 0;
x = 221;
y = 795;
},
{
segmentType = curve;
smooth = 1;
x = 221;
y = 704;
},
{
smooth = 0;
x = 221;
y = 537;
},
{
smooth = 0;
x = 525;
y = 488;
},
{
segmentType = curve;
smooth = 1;
x = 525;
y = 296;
},
{
smooth = 0;
x = 525;
y = 209;
},
{
smooth = 0;
x = 487;
y = 157;
},
{
segmentType = curve;
smooth = 0;
x = 409;
y = 156;
},
{
segmentType = line;
smooth = 0;
x = 393;
y = 103;
}
);
},
{
points = (
{
smooth = 0;
x = 402;
y = 31;
},
{
smooth = 0;
x = 464;
y = 141;
},
{
segmentType = curve;
smooth = 1;
x = 464;
y = 234;
},
{
smooth = 0;
x = 464;
y = 436;
},
{
smooth = 0;
x = 157;
y = 495;
},
{
segmentType = curve;
smooth = 1;
x = 157;
y = 641;
},
{
smooth = 0;
x = 157;
y = 715;
},
{
smooth = 0;
x = 205;
y = 752;
},
{
segmentType = curve;
smooth = 0;
x = 262;
y = 752;
},
{
segmentType = line;
smooth = 0;
x = 292;
y = 806;
},
{
smooth = 0;
x = 140;
y = 806;
},
{
smooth = 0;
x = 60;
y = 718;
},
{
segmentType = curve;
smooth = 1;
x = 60;
y = 602;
},
{
smooth = 0;
x = 60;
y = 411;
},
{
smooth = 0;
x = 357;
y = 371;
},
{
segmentType = curve;
smooth = 1;
x = 357;
y = 205;
},
{
smooth = 0;
x = 357;
y = 152;
},
{
smooth = 0;
x = 320;
y = 94;
},
{
segmentType = curve;
smooth = 1;
x = 242;
y = 93;
},
{
smooth = 0;
x = 161;
y = 92;
},
{
smooth = 0;
x = 141;
y = 129;
},
{
segmentType = curve;
smooth = 0;
x = 106;
y = 170;
},
{
smooth = 0;
x = 116;
y = 122;
},
{
smooth = 0;
x = 109;
y = 95;
},
{
segmentType = curve;
smooth = 0;
x = 160;
y = 82;
},
{
smooth = 0;
x = 127;
y = 121;
},
{
smooth = 0;
x = 125;
y = 162;
},
{
segmentType = curve;
smooth = 0;
x = 121;
y = 214;
},
{
segmentType = line;
smooth = 0;
x = 44;
y = 223;
},
{
smooth = 0;
x = 37;
y = 178;
},
{
smooth = 0;
x = 34;
y = 142;
},
{
segmentType = curve;
smooth = 1;
x = 34;
y = 104;
},
{
smooth = 0;
x = 34;
y = 86;
},
{
smooth = 0;
x = 35;
y = 69;
},
{
segmentType = curve;
smooth = 0;
x = 37;
y = 56;
},
{
smooth = 0;
x = 37;
y = 56;
},
{
smooth = 0;
x = 104;
y = 29;
},
{
segmentType = curve;
smooth = 1;
x = 226;
y = 30;
}
);
}
);
lib = {
};
name = section;
unicodes = (
);
width = 600;
};
};
};
width = 462;
}
);
unicode = 167;
}
{
glyphname = dieresis;
layers = (
{
layerId = "51BB9282-3B82-4DF1-A67A-294D3E37D73A";
shapes = (
{
closed = 1;
nodes = (
(85,444,o),
(107,462,o),
(107,489,cs),
(107,516,o),
(85,538,o),
(59,538,cs),
(32,538,o),
(10,519,o),
(10,492,cs),
(10,465,o),
(32,444,o),
(59,444,cs)
);
},
{
closed = 1;
nodes = (
(226,443,o),
(244,465,o),
(244,492,cs),
(244,519,o),
(226,540,o),
(199,540,cs),
(173,540,o),
(151,519,o),
(151,492,cs),
(151,465,o),
(173,443,o),
(199,443,cs)
);
}
);
width = 254;
}
);
unicode = 168;
}
{
glyphname = copyright;
layers = (
{
layerId = "51BB9282-3B82-4DF1-A67A-294D3E37D73A";
shapes = (
{
closed = 1;
nodes = (
(604,-88,o),
(772,80,o),
(772,287,cs),
(772,494,o),
(604,661,o),
(398,661,cs),
(191,661,o),
(23,494,o),
(23,287,cs),
(23,80,o),
(191,-88,o),
(398,-88,cs)
);
},
{
pos = (165,73);
ref = c;
scale = (0.924,0.924);
},
{
closed = 1;
nodes = (
(223,-31,o),
(80,112,o),
(80,287,cs),
(80,462,o),
(223,604,o),
(398,604,cs),
(573,604,o),
(715,462,o),
(715,287,cs),
(715,112,o),
(573,-31,o),
(398,-31,cs)
);
}
);
width = 795;
}
);
unicode = 169;
}
{
export = 0;
glyphname = logicalnot;
layers = (
{
layerId = "51BB9282-3B82-4DF1-A67A-294D3E37D73A";
shapes = (
{
closed = 1;
nodes = (
(454,80,l),
(454,319,l),
(371,316,o),
(274,316,o),
(180,316,cs),
(42,316,l),
(40,258,l),
(399,258,l),
(399,206,ls),
(399,164,o),
(399,121,o),
(398,79,c)
);
}
);
width = 485;
}
);
unicode = 172;
}
{
glyphname = registered;
layers = (
{
layerId = "51BB9282-3B82-4DF1-A67A-294D3E37D73A";
shapes = (
{
closed = 1;
nodes = (
(302,230,o),
(390,313,o),
(390,423,cs),
(390,531,o),
(306,619,o),
(194,619,cs),
(83,619,o),
(-4,532,o),
(-4,423,cs),
(-4,314,o),
(83,230,o),
(193,230,cs)
);
},
{
closed = 1;
nodes = (
(196,323,l),
(193,343,l),
(179,343,o),
(169,347,o),
(169,362,cs),
(169,374,o),
(166,403,o),
(167,427,c),
(160,417,l),
(166,416,o),
(179,413,o),
(193,413,cs),
(236,413,o),
(271,438,o),
(271,479,cs),
(271,507,o),
(253,532,o),
(213,531,cs),
(131,529,ls),
(123,529,o),
(115,529,o),
(107,530,c),
(109,511,l),
(130,511,o),
(134,499,o),
(135,484,cs),
(136,472,o),
(136,452,o),
(136,441,cs),
(136,420,o),
(135,391,o),
(133,362,cs),
(132,349,o),
(127,343,o),
(110,343,c),
(112,323,l)
);
},
{
closed = 1;
nodes = (
(105,259,o),
(33,320,o),
(33,419,cs),
(33,511,o),
(94,591,o),
(192,591,cs),
(285,591,o),
(354,520,o),
(354,424,cs),
(354,336,o),
(296,259,o),
(195,259,cs)
);
},
{
closed = 1;
nodes = (
(300,323,l),
(297,345,l),
(273,344,o),
(246,403,o),
(229,430,c),
(202,425,l),
(216,385,o),
(243,334,o),
(256,323,c)
);
},
{
closed = 1;
nodes = (
(184,437,o),
(172,437,o),
(167,440,c),
(167,461,o),
(167,490,o),
(169,507,c),
(174,509,o),
(183,512,o),
(195,512,cs),
(221,512,o),
(233,499,o),
(233,476,cs),
(233,457,o),
(224,437,o),
(194,437,cs)
);
}
);
width = 400;
}
);
unicode = 174;
}
{
glyphname = macron;
layers = (
{
layerId = "51BB9282-3B82-4DF1-A67A-294D3E37D73A";
shapes = (
{
closed = 1;
nodes = (
(357,680,l),
(358,706,o),
(363,720,o),
(365,741,c),
(299,737,o),
(250,735,o),
(199,735,cs),
(147,735,o),
(94,737,o),
(20,741,c),
(10,680,l)
);
}
);
width = 375;
}
);
unicode = 175;
}
{
glyphname = degree;
layers = (
{
layerId = "51BB9282-3B82-4DF1-A67A-294D3E37D73A";
shapes = (
{
closed = 1;
nodes = (
(164,377,o),
(209,421,o),
(209,477,cs),
(209,533,o),
(164,578,o),
(109,578,cs),
(52,578,o),
(8,533,o),
(8,477,cs),
(8,421,o),
(52,377,o),
(109,377,cs)
);
},
{
closed = 1;
nodes = (
(85,430,o),
(64,451,o),
(64,477,cs),
(64,501,o),
(85,522,o),
(110,522,cs),
(135,522,o),
(156,501,o),
(156,477,cs),
(156,451,o),
(135,430,o),
(110,430,cs)
);
}
);
width = 463;
}
);
unicode = 176;
}
{
export = 0;
glyphname = plusminus;
layers = (
{
layerId = "51BB9282-3B82-4DF1-A67A-294D3E37D73A";
shapes = (
{
closed = 1;
nodes = (
(110,254,o),
(169,255,o),
(233,255,cs),
(297,255,o),
(365,254,o),
(434,252,c),
(441,326,l),
(381,325,o),
(315,324,o),
(250,324,cs),
(185,324,o),
(120,325,o),
(60,326,c),
(59,252,l)
);
},
{
closed = 1;
nodes = (
(123,-6,o),
(177,-5,o),
(235,-5,cs),
(293,-5,o),
(355,-6,o),
(424,-8,c),
(431,67,l),
(371,65,o),
(311,64,o),
(252,64,cs),
(192,64,o),
(133,65,o),
(73,67,c),
(72,-8,l)
);
},
{
closed = 1;
nodes = (
(285,112,l),
(283,168,o),
(282,227,o),
(282,291,cs),
(282,347,o),
(283,407,o),
(285,472,c),
(211,470,l),
(213,417,o),
(214,364,o),
(214,311,cs),
(214,243,o),
(213,176,o),
(211,109,c)
);
}
);
width = 462;
}
);
unicode = 177;
}
{
export = 0;
glyphname = twosuperior;
layers = (
{
layerId = "51BB9282-3B82-4DF1-A67A-294D3E37D73A";
shapes = (
{
closed = 1;
nodes = (
(308,417,l),
(312,504,l),
(268,500,l),
(266,487,o),
(268,461,o),
(236,461,cs),
(104,460,l),
(92,442,l),
(169,488,o),
(295,573,o),
(295,681,cs),
(295,747,o),
(253,772,o),
(182,772,cs),
(141,772,o),
(86,759,o),
(64,747,c),
(64,747,o),
(63,714,o),
(66,685,c),
(100,689,l),
(110,738,o),
(146,739,o),
(162,739,cs),
(199,739,o),
(218,715,o),
(218,674,cs),
(218,578,o),
(132,519,o),
(56,455,c),
(62,417,l)
);
}
);
width = 362;
}
);
metricLeft = two;
metricRight = two;
unicode = 178;
}
{
export = 0;
glyphname = threesuperior;
layers = (
{
layerId = "51BB9282-3B82-4DF1-A67A-294D3E37D73A";
shapes = (
{
closed = 1;
nodes = (
(178,411,o),
(237,449,o),
(237,518,cs),
(237,563,o),
(199,603,o),
(131,603,cs),
(123,603,o),
(114,602,o),
(104,601,c),
(117,594,l),
(196,613,o),
(224,653,o),
(224,701,cs),
(224,746,o),
(195,774,o),
(124,774,cs),
(87,774,o),
(46,764,o),
(24,753,c),
(24,753,o),
(23,745,o),
(23,732,cs),
(23,721,o),
(24,706,o),
(25,693,c),
(60,697,l),
(66,730,o),
(80,745,o),
(112,745,cs),
(142,745,o),
(166,732,o),
(166,697,cs),
(166,652,o),
(120,619,o),
(54,610,c),
(58,579,l),
(152,581,o),
(183,555,o),
(183,513,cs),
(183,477,o),
(163,448,o),
(119,448,cs),
(79,448,o),
(49,470,o),
(37,493,c),
(29,477,o),
(24,448,o),
(24,427,cs),
(24,424,o),
(25,422,o),
(25,420,c),
(42,416,o),
(69,411,o),
(102,411,cs)
);
}
);
width = 287;
}
);
metricRight = three;
unicode = 179;
}
{
glyphname = acute;
layers = (
{
anchors = (
{
name = _top;
pos = (119,630);
}
);
layerId = "51BB9282-3B82-4DF1-A67A-294D3E37D73A";
shapes = (
{
closed = 1;
nodes = (
(85,662,o),
(195,740,o),
(236,772,c),
(232,799,o),
(204,830,o),
(185,843,c),
(143,801,o),
(48,721,o),
(10,693,c),
(34,640,l)
);
}
);
width = 246;
}
);
unicode = 180;
}
{
export = 0;
glyphname = micro;
layers = (
{
anchors = (
{
name = ogonek;
pos = (257,8);
},
{
name = top;
pos = (265,514);
}
);
layerId = "51BB9282-3B82-4DF1-A67A-294D3E37D73A";
shapes = (
{
closed = 1;
nodes = (
(164,-179,l),
(158,-109,o),
(154,-40,o),
(154,20,cs),
(154,35,o),
(155,49,o),
(155,63,c),
(144,47,l),
(146,39,o),
(166,-3,o),
(236,-3,cs),
(314,-3,o),
(369,59,o),
(407,111,c),
(387,139,l),
(387,139,o),
(335,69,o),
(257,69,cs),
(212,69,o),
(176,95,o),
(170,143,cs),
(167,166,o),
(166,193,o),
(166,227,cs),
(166,309,o),
(166,357,o),
(172,463,c),
(134,463,o),
(115,457,o),
(82,454,c),
(89,399,o),
(92,297,o),
(92,209,cs),
(92,180,o),
(92,152,o),
(91,128,cs),
(82,-179,l)
);
},
{
closed = 1;
nodes = (
(549,0,l),
(542,43,l),
(456,45,o),
(455,89,o),
(455,169,cs),
(455,240,o),
(460,353,o),
(468,464,c),
(436,464,o),
(409,461,o),
(378,454,c),
(382,405,o),
(383,361,o),
(383,318,cs),
(383,190,ls),
(383,156,o),
(383,124,o),
(382,92,c),
(382,92,o),
(390,109,o),
(396,109,cs),
(398,109,o),
(393,105,o),
(393,99,c),
(389,79,o),
(379,0,o),
(379,0,c)
);
}
);
width = 561;
}
);
unicode = 181;
}
{
glyphname = paragraph;
layers = (
{
layerId = "51BB9282-3B82-4DF1-A67A-294D3E37D73A";
shapes = (
{
closed = 1;
nodes = (
(315,203,o),
(331,204,o),
(360,212,c),
(356,237,o),
(353,292,o),
(353,362,cs),
(353,413,o),
(354,472,o),
(359,534,c),
(403,537,o),
(534,542,o),
(600,544,c),
(604,616,l),
(571,614,o),
(537,613,o),
(502,613,cs),
(459,613,o),
(416,614,o),
(373,614,cs),
(335,614,o),
(296,613,o),
(259,611,cs),
(133,604,o),
(70,535,o),
(69,418,cs),
(69,293,o),
(162,203,o),
(277,203,cs)
);
},
{
closed = 1;
nodes = (
(534,-119,l),
(530,-78,o),
(529,43,o),
(529,176,cs),
(529,350,o),
(531,545,o),
(534,609,c),
(515,606,o),
(460,603,o),
(440,601,c),
(442,558,o),
(442,508,o),
(442,455,cs),
(442,255,o),
(432,7,o),
(426,-124,c)
);
}
);
width = 642;
}
);
unicode = 182;
}
{
glyphname = periodcentered;
layers = (
{
layerId = "51BB9282-3B82-4DF1-A67A-294D3E37D73A";
shapes = (
{
closed = 1;
nodes = (
(204,169,o),
(245,206,o),
(245,261,cs),
(245,317,o),
(203,351,o),
(153,351,cs),
(100,351,o),
(62,314,o),
(62,262,cs),
(62,213,o),
(95,169,o),
(152,169,cs)
);
}
);
width = 307;
}
);
unicode = 183;
}
{
glyphname = cedilla;
layers = (
{
layerId = "51BB9282-3B82-4DF1-A67A-294D3E37D73A";
shapes = (
{
closed = 1;
nodes = (
(197,-239,o),
(264,-192,o),
(264,-127,cs),
(264,-80,o),
(230,-54,o),
(173,-54,cs),
(144,-54,o),
(117,-61,o),
(106,-65,cs),
(104,-66,o),
(130,-71,o),
(127,-72,c),
(117,1,l),
(101,0,o),
(85,-1,o),
(69,0,c),
(61,-110,l),
(74,-108,o),
(90,-107,o),
(105,-107,cs),
(143,-107,o),
(176,-114,o),
(176,-143,cs),
(176,-172,o),
(143,-193,o),
(107,-195,cs),
(90,-196,o),
(57,-194,o),
(30,-180,c),
(10,-218,l),
(28,-227,o),
(58,-239,o),
(105,-239,cs)
);
}
);
width = 274;
}
);
unicode = 184;
}
{
export = 0;
glyphname = onesuperior;
layers = (
{
layerId = "51BB9282-3B82-4DF1-A67A-294D3E37D73A";
shapes = (
{
closed = 1;
nodes = (
(208,414,l),
(203,455,l),
(191,455,o),
(161,452,o),
(161,492,cs),
(161,581,o),
(163,738,o),
(167,770,c),
(167,770,o),
(80,747,o),
(36,748,c),
(38,714,l),
(70,714,o),
(99,701,o),
(100,681,cs),
(102,667,o),
(103,632,o),
(103,591,cs),
(103,559,o),
(102,523,o),
(100,490,cs),
(98,460,o),
(75,453,o),
(49,454,c),
(52,414,l)
);
}
);
width = 255;
}
);
metricLeft = one;
metricRight = one;
unicode = 185;
}
{
glyphname = questiondown;
layers = (
{
layerId = "51BB9282-3B82-4DF1-A67A-294D3E37D73A";
shapes = (
{
closed = 1;
nodes = (
(229,-7,o),
(296,21,o),
(337,46,c),
(318,76,l),
(295,63,o),
(262,43,o),
(220,46,cs),
(137,53,o),
(98,104,o),
(98,170,cs),
(98,180,o),
(99,190,o),
(101,200,cs),
(117,302,o),
(229,326,o),
(270,330,c),
(270,348,o),
(274,430,o),
(275,458,c),
(188,457,l),
(191,440,o),
(198,380,o),
(198,330,cs),
(198,319,o),
(239,371,o),
(235,365,c),
(169,344,o),
(44,307,o),
(17,163,cs),
(14,149,o),
(13,136,o),
(13,124,cs),
(13,33,o),
(82,-7,o),
(162,-7,cs)
);
},
{
closed = 1;
nodes = (
(337,46,l),
(338,54,o),
(339,67,o),
(339,80,cs),
(339,110,o),
(336,147,o),
(332,163,c),
(266,154,l),
(264,127,o),
(259,73,o),
(251,46,c)
);
},
{
angle = 180;
pos = (348,617);
ref = period;
}
);
width = 462;
}
);
unicode = 191;
}
{
glyphname = AE;
layers = (
{
anchors = (
{
name = bottom;
pos = (536,0);
},
{
name = top;
pos = (529,650);
}
);
layerId = "51BB9282-3B82-4DF1-A67A-294D3E37D73A";
shapes = (
{
closed = 1;
nodes = (
(247,0,l),
(239,39,l),
(212,39,o),
(193,38,o),
(193,70,cs),
(193,81,o),
(195,94,o),
(199,112,cs),
(210,164,o),
(323,410,o),
(399,568,c),
(373,548,l),
(385,551,o),
(397,554,o),
(407,554,cs),
(430,554,o),
(446,543,o),
(448,511,cs),
(450,460,o),
(452,405,o),
(452,351,cs),
(452,263,o),
(449,176,o),
(444,109,cs),
(440,71,o),
(436,52,o),
(377,47,c),
(381,0,l),
(831,0,l),
(834,40,o),
(834,89,o),
(834,123,cs),
(834,163,l),
(778,157,l),
(767,106,o),
(749,60,o),
(716,22,c),
(776,70,l),
(745,62,o),
(668,55,o),
(608,55,cs),
(593,55,o),
(574,55,o),
(564,56,cs),
(537,59,o),
(533,83,o),
(532,104,cs),
(531,146,o),
(529,203,o),
(529,266,cs),
(529,343,o),
(531,432,o),
(540,518,cs),
(542,539,o),
(551,562,o),
(590,562,cs),
(646,562,o),
(716,562,o),
(778,556,c),
(705,594,l),
(738,564,o),
(758,511,o),
(763,465,c),
(819,460,l),
(819,460,o),
(824,509,o),
(824,554,cs),
(823,617,l),
(748,613,o),
(662,612,o),
(616,612,cs),
(560,612,ls),
(529,612,o),
(337,616,o),
(333,615,c),
(289,496,o),
(198,289,o),
(104,105,cs),
(85,69,o),
(61,50,o),
(15,47,c),
(23,0,l)
);
},
{
closed = 1;
nodes = (
(288,276,o),
(610,280,o),
(673,280,cs),
(699,280,o),
(726,280,o),
(755,278,c),
(755,348,l),
(614,335,l),
(521,335,o),
(415,333,o),
(323,333,cs),
(289,333,o),
(257,333,o),
(228,334,c),
(220,268,l)
);
}
);
width = 887;
}
);
metricLeft = "=A";
unicode = 198;
}
{
glyphname = multiply;
layers = (
{
layerId = "51BB9282-3B82-4DF1-A67A-294D3E37D73A";
shapes = (
{
closed = 1;
nodes = (
(219,141,o),
(318,241,o),
(418,335,c),
(362,391,l),
(280,303,o),
(176,202,o),
(90,119,c),
(146,63,l)
);
},
{
closed = 1;
nodes = (
(421,121,l),
(349,188,o),
(242,295,o),
(147,392,c),
(92,337,l),
(179,255,o),
(285,149,o),
(365,65,c)
);
}
);
width = 462;
}
);
unicode = 215;
}
{
glyphname = Thorn;
layers = (
{
layerId = "51BB9282-3B82-4DF1-A67A-294D3E37D73A";
shapes = (
{
closed = 1;
nodes = (
(380,153,o),
(514,213,o),
(514,353,cs),
(514,464,o),
(427,514,o),
(322,514,cs),
(270,514,o),
(219,507,o),
(193,500,c),
(193,457,l),
(207,465,o),
(268,467,o),
(292,467,cs),
(377,465,o),
(414,415,o),
(414,357,cs),
(414,266,o),
(367,199,o),
(281,199,cs),
(223,199,o),
(182,231,o),
(182,231,c),
(152,163,l),
(169,156,o),
(199,153,o),
(232,153,cs)
);
},
{
ref = I;
}
);
width = 544;
}
);
metricRight = "=30";
unicode = 222;
}
{
glyphname = germandbls;
layers = (
{
layerId = "51BB9282-3B82-4DF1-A67A-294D3E37D73A";
shapes = (
{
closed = 1;
nodes = (
(468,-8,o),
(521,63,o),
(521,143,cs),
(521,226,o),
(459,316,o),
(322,359,c),
(337,329,l),
(368,360,o),
(441,427,o),
(441,500,cs),
(441,579,o),
(379,634,o),
(277,634,cs),
(192,634,o),
(108,596,o),
(108,497,cs),
(108,428,l),
(144,441,l),
(94,433,o),
(49,429,o),
(15,429,c),
(20,381,l),
(97,381,o),
(107,361,o),
(115,311,c),
(106,404,l),
(109,342,o),
(110,268,o),
(110,195,cs),
(110,160,o),
(107,126,o),
(103,105,cs),
(98,68,o),
(84,47,o),
(34,47,cs),
(24,47,l),
(32,0,l),
(202,0,l),
(197,44,o),
(194,88,o),
(193,132,cs),
(192,176,o),
(188,277,o),
(188,375,cs),
(188,431,o),
(189,485,o),
(193,527,cs),
(195,562,o),
(211,589,o),
(248,589,cs),
(305,589,o),
(345,544,o),
(345,484,cs),
(345,406,o),
(296,340,o),
(276,312,c),
(292,293,l),
(400,258,o),
(429,180,o),
(429,125,cs),
(429,74,o),
(401,33,o),
(362,33,cs),
(326,33,o),
(300,47,o),
(283,60,c),
(295,41,o),
(322,27,o),
(349,22,c),
(310,47,o),
(304,91,o),
(300,125,c),
(250,126,l),
(248,105,o),
(247,83,o),
(247,62,cs),
(247,42,o),
(249,19,o),
(252,9,c),
(252,9,o),
(307,-11,o),
(377,-8,cs)
);
}
);
width = 552;
}
);
metricRight = "=B";
unicode = 223;
}
{
glyphname = ae;
layers = (
{
anchors = (
{
name = bottom;
pos = (426,-10);
},
{
name = top;
pos = (419,470);
}
);
layerId = "51BB9282-3B82-4DF1-A67A-294D3E37D73A";
shapes = (
{
closed = 1;
nodes = (
(637,-15,o),
(691,42,o),
(703,59,c),
(688,85,l),
(686,85,o),
(640,41,o),
(566,41,cs),
(444,41,o),
(414,133,o),
(414,234,cs),
(414,348,o),
(464,422,o),
(531,422,cs),
(593,422,o),
(624,354,o),
(624,279,c),
(575,278,l),
(392,260,l),
(404,223,l),
(719,225,l),
(721,239,o),
(721,253,o),
(721,265,cs),
(721,396,o),
(645,463,o),
(546,463,cs),
(431,463,o),
(322,374,o),
(322,197,cs),
(322,59,o),
(417,-15,o),
(539,-15,cs)
);
},
{
closed = 1;
nodes = (
(298,-10,o),
(346,86,o),
(348,92,c),
(327,124,l),
(322,93,o),
(270,49,o),
(207,49,cs),
(163,49,o),
(136,75,o),
(136,119,cs),
(136,178,o),
(183,224,o),
(260,224,cs),
(305,224,o),
(339,210,o),
(339,210,c),
(339,274,l),
(339,274,o),
(282,271,o),
(211,255,cs),
(92,228,o),
(38,174,o),
(38,96,cs),
(38,25,o),
(98,-10,o),
(163,-10,cs)
);
},
{
closed = 1;
nodes = (
(434,103,l),
(408,157,o),
(400,100,o),
(400,162,cs),
(400,221,o),
(405,283,o),
(405,330,cs),
(405,438,o),
(369,470,o),
(266,470,cs),
(182,470,o),
(106,436,o),
(69,415,c),
(69,415,o),
(68,400,o),
(68,378,cs),
(68,356,o),
(69,328,o),
(71,302,c),
(139,309,l),
(143,359,o),
(156,394,o),
(173,429,c),
(133,365,l),
(157,391,o),
(179,427,o),
(234,427,cs),
(266,427,o),
(300,410,o),
(314,352,cs),
(319,331,o),
(321,288,o),
(321,240,cs),
(321,186,o),
(324,125,o),
(319,88,c),
(351,98,l),
(388,75,l)
);
}
);
width = 768;
}
);
unicode = 230;
}
{
glyphname = eth;
layers = (
{
layerId = "51BB9282-3B82-4DF1-A67A-294D3E37D73A";
shapes = (
{
closed = 1;
nodes = (
(363,-2,o),
(453,87,o),
(453,269,cs),
(453,460,o),
(309,628,o),
(165,684,c),
(153,678,o),
(145,658,o),
(145,644,c),
(291,554,o),
(365,461,o),
(365,277,cs),
(365,185,o),
(340,51,o),
(238,51,cs),
(154,51,o),
(120,132,o),
(120,207,cs),
(120,311,o),
(180,378,o),
(258,378,cs),
(315,378,o),
(352,364,o),
(375,341,c),
(370,400,l),
(352,407,o),
(317,420,o),
(271,420,cs),
(107,420,o),
(35,304,o),
(35,190,cs),
(35,85,o),
(102,-2,o),
(237,-2,cs)
);
},
{
closed = 1;
nodes = (
(281,543,o),
(364,580,o),
(423,603,c),
(401,651,l),
(337,619,o),
(248,577,o),
(153,535,c),
(173,489,l)
);
}
);
width = 488;
}
);
metricLeft = "=o";
metricRight = "=o";
unicode = 240;
}
{
glyphname = divide;
layers = (
{
layerId = "51BB9282-3B82-4DF1-A67A-294D3E37D73A";
shapes = (
{
closed = 1;
nodes = (
(77,188,o),
(133,188,o),
(193,188,cs),
(253,188,o),
(318,188,o),
(387,186,c),
(387,260,l),
(327,258,o),
(266,257,o),
(206,257,cs),
(145,257,o),
(85,258,o),
(25,260,c),
(25,186,l)
);
},
{
closed = 1;
nodes = (
(226,55,o),
(245,75,o),
(245,99,cs),
(245,123,o),
(226,142,o),
(202,142,cs),
(177,142,o),
(158,123,o),
(158,99,cs),
(158,75,o),
(177,55,o),
(202,55,cs)
);
},
{
closed = 1;
nodes = (
(226,302,o),
(245,321,o),
(245,346,cs),
(245,370,o),
(226,389,o),
(202,389,cs),
(177,389,o),
(158,370,o),
(158,346,cs),
(158,321,o),
(177,302,o),
(202,302,cs)
);
}
);
width = 462;
}
);
unicode = 247;
}
{
glyphname = thorn;
layers = (
{
layerId = "51BB9282-3B82-4DF1-A67A-294D3E37D73A";
shapes = (
{
closed = 1;
nodes = (
(313,-176,l),
(306,-139,l),
(302,-139,o),
(298,-139,o),
(294,-138,c),
(220,-132,o),
(216,-74,o),
(214,23,cs),
(213,103,o),
(213,332,o),
(213,369,cs),
(213,430,ls),
(213,496,o),
(214,545,o),
(219,622,c),
(219,622,o),
(140,611,o),
(68,611,cs),
(55,611,o),
(42,611,o),
(31,612,c),
(36,563,l),
(100,564,o),
(127,540,o),
(131,505,cs),
(132,492,o),
(133,470,o),
(133,443,cs),
(133,406,o),
(132,137,o),
(129,40,cs),
(127,-75,o),
(129,-118,o),
(69,-126,cs),
(62,-127,o),
(55,-128,o),
(46,-128,c),
(52,-176,l)
);
},
{
closed = 1;
nodes = (
(282,-3,o),
(306,-1,o),
(329,4,cs),
(484,39,o),
(548,174,o),
(548,282,cs),
(548,405,o),
(476,473,o),
(378,473,cs),
(287,473,o),
(213,412,o),
(187,355,c),
(211,323,l),
(228,365,o),
(281,411,o),
(339,410,cs),
(417,407,o),
(445,336,o),
(445,259,cs),
(445,141,o),
(399,62,o),
(330,48,cs),
(320,46,o),
(310,45,o),
(301,45,cs),
(245,45,o),
(206,77,o),
(206,77,c),
(175,9,l),
(194,2,o),
(225,-3,o),
(261,-3,cs)
);
}
);
width = 592;
}
);
unicode = 254;
}
{
glyphname = dcroat;
layers = (
{
layerId = "51BB9282-3B82-4DF1-A67A-294D3E37D73A";
shapes = (
{
closed = 1;
nodes = (
(493,-16,o),
(524,-6,o),
(551,10,c),
(541,44,l),
(534,42,o),
(527,42,o),
(521,42,cs),
(476,42,o),
(458,71,o),
(455,125,cs),
(454,142,o),
(451,220,o),
(451,321,cs),
(451,437,o),
(455,624,o),
(469,695,c),
(438,691,o),
(343,679,o),
(282,679,cs),
(273,679,l),
(277,630,l),
(283,630,ls),
(350,630,o),
(366,612,o),
(367,594,cs),
(370,539,o),
(373,394,o),
(373,305,cs),
(373,215,o),
(370,146,o),
(366,109,c),
(373,76,l),
(373,34,o),
(391,-16,o),
(460,-16,cs)
);
},
{
closed = 1;
nodes = (
(320,-10,o),
(369,51,o),
(393,108,c),
(370,139,l),
(350,93,o),
(313,52,o),
(254,52,cs),
(178,52,o),
(139,119,o),
(139,211,cs),
(139,313,o),
(186,420,o),
(293,420,cs),
(342,420,o),
(373,398,o),
(383,385,c),
(414,453,l),
(395,460,o),
(363,467,o),
(322,467,cs),
(132,467,o),
(43,314,o),
(43,188,cs),
(43,74,o),
(116,-10,o),
(226,-10,cs)
);
},
{
closed = 1;
nodes = (
(564,505,l),
(565,531,o),
(570,545,o),
(572,566,c),
(506,562,o),
(457,560,o),
(406,560,cs),
(354,560,o),
(301,562,o),
(227,566,c),
(217,505,l)
);
}
);
width = 595;
}
);
metricRight = d;
unicode = 273;
}
{
glyphname = Hbar;
layers = (
{
layerId = "51BB9282-3B82-4DF1-A67A-294D3E37D73A";
shapes = (
{
closed = 1;
nodes = (
(651,399,l),
(651,461,l),
(402,455,l),
(36,455,l),
(36,399,l)
);
},
{
ref = H;
}
);
width = 693;
}
);
unicode = 294;
}
{
glyphname = idotless;
layers = (
{
anchors = (
{
name = bottom;
pos = (156,0);
},
{
name = ogonek;
pos = (276,1);
},
{
name = top;
pos = (149,520);
}
);
layerId = "51BB9282-3B82-4DF1-A67A-294D3E37D73A";
shapes = (
{
closed = 1;
nodes = (
(277,0,l),
(269,39,l),
(265,39,ls),
(221,39,o),
(197,56,o),
(197,141,cs),
(197,210,o),
(202,351,o),
(217,477,c),
(199,474,o),
(90,459,o),
(30,459,c),
(35,413,l),
(95,413,o),
(120,410,o),
(122,377,cs),
(125,321,o),
(125,258,o),
(125,195,cs),
(125,160,o),
(121,126,o),
(118,105,cs),
(113,68,o),
(89,47,o),
(39,47,cs),
(29,47,l),
(37,0,l)
);
}
);
width = 305;
}
);
unicode = 305;
}
{
glyphname = kgreenlandic;
layers = (
{
layerId = "51BB9282-3B82-4DF1-A67A-294D3E37D73A";
shapes = (
{
closed = 1;
nodes = (
(603,0,l),
(594,47,l),
(553,46,o),
(536,62,o),
(356,263,c),
(359,230,l),
(388,266,o),
(467,339,o),
(515,381,cs),
(540,403,o),
(563,425,o),
(594,424,c),
(587,470,l),
(587,470,o),
(525,466,o),
(452,466,cs),
(434,466,o),
(416,466,o),
(397,467,c),
(404,420,l),
(440,422,o),
(452,413,o),
(452,402,cs),
(452,396,o),
(449,390,o),
(444,385,cs),
(394,330,o),
(325,268,o),
(296,242,c),
(303,213,l),
(368,143,o),
(402,96,o),
(414,79,cs),
(422,68,o),
(425,61,o),
(425,55,cs),
(425,47,o),
(417,44,o),
(402,44,cs),
(396,44,l),
(407,0,l)
);
},
{
closed = 1;
nodes = (
(347,0,l),
(339,44,l),
(299,41,o),
(261,55,o),
(258,110,cs),
(256,151,o),
(255,183,o),
(255,213,cs),
(255,264,o),
(258,306,o),
(262,363,cs),
(266,411,o),
(298,421,o),
(337,420,c),
(331,468,l),
(285,466,o),
(251,464,o),
(213,464,cs),
(184,464,o),
(152,465,o),
(111,467,c),
(112,460,o),
(115,431,o),
(117,419,c),
(177,420,o),
(187,396,o),
(187,347,cs),
(187,222,o),
(187,183,o),
(183,108,cs),
(181,59,o),
(167,50,o),
(116,49,c),
(122,-1,l)
);
}
);
width = 571;
}
);
unicode = 312;
}
{
glyphname = Lslash;
layers = (
{
layerId = "51BB9282-3B82-4DF1-A67A-294D3E37D73A";
shapes = (
{
ref = L;
},
{
closed = 1;
nodes = (
(87,242,o),
(241,334,o),
(335,380,c),
(335,444,l),
(233,386,o),
(66,291,o),
(-7,246,c),
(-7,186,l)
);
}
);
width = 518;
}
);
unicode = 321;
}
{
glyphname = Eng;
layers = (
{
layerId = "51BB9282-3B82-4DF1-A67A-294D3E37D73A";
shapes = (
{
closed = 1;
nodes = (
(553,-244,o),
(614,-173,o),
(614,-91,cs),
(614,34,o),
(612,157,o),
(612,262,cs),
(612,367,o),
(613,455,o),
(618,512,cs),
(621,554,o),
(643,569,o),
(690,568,c),
(683,617,l),
(636,611,o),
(604,611,o),
(573,611,cs),
(517,611,o),
(487,613,o),
(444,616,c),
(446,609,o),
(449,579,o),
(451,567,c),
(505,567,o),
(530,557,o),
(535,487,cs),
(540,416,o),
(547,260,o),
(547,160,cs),
(547,126,o),
(546,98,o),
(544,82,c),
(551,69,l),
(547,81,o),
(526,172,o),
(504,205,cs),
(410,338,o),
(273,542,o),
(226,614,c),
(189,613,o),
(159,612,o),
(129,612,cs),
(96,612,o),
(63,613,o),
(22,616,c),
(23,609,o),
(25,579,o),
(28,567,c),
(82,567,o),
(111,542,o),
(112,487,cs),
(112,403,ls),
(112,299,o),
(111,192,o),
(106,125,cs),
(102,61,o),
(80,48,o),
(24,47,c),
(30,-1,l),
(269,0,l),
(262,43,l),
(222,43,o),
(193,55,o),
(185,109,cs),
(182,128,o),
(180,210,o),
(180,303,cs),
(180,384,o),
(182,474,o),
(186,539,c),
(176,555,l),
(176,555,o),
(177,555,o),
(177,554,c),
(180,550,o),
(219,446,o),
(222,442,cs),
(329,295,o),
(411,192,o),
(541,-5,c),
(543,-7,l),
(543,-40,ls),
(543,-147,o),
(496,-196,o),
(443,-196,cs),
(436,-196,o),
(428,-195,o),
(420,-193,c),
(440,-226,l),
(429,-204,o),
(413,-181,o),
(410,-132,c),
(365,-131,l),
(357,-154,o),
(353,-179,o),
(351,-203,c),
(367,-226,o),
(417,-244,o),
(463,-244,cs)
);
}
);
width = 713;
}
);
metricLeft = "=N";
metricRight = "=N";
unicode = 330;
}
{
glyphname = eng;
layers = (
{
layerId = "51BB9282-3B82-4DF1-A67A-294D3E37D73A";
shapes = (
{
closed = 1;
nodes = (
(454,-244,o),
(517,-172,o),
(516,-89,cs),
(516,-12,o),
(523,218,o),
(523,287,cs),
(523,322,o),
(522,353,o),
(520,370,cs),
(509,443,o),
(464,471,o),
(406,471,cs),
(323,471,o),
(239,402,o),
(201,350,c),
(220,321,l),
(220,321,o),
(273,395,o),
(350,395,cs),
(396,395,o),
(427,370,o),
(434,321,cs),
(437,298,o),
(440,267,o),
(440,233,cs),
(440,-44,ls),
(440,-147,o),
(396,-196,o),
(343,-196,cs),
(336,-196,o),
(328,-195,o),
(320,-193,c),
(340,-226,l),
(329,-204,o),
(313,-181,o),
(310,-132,c),
(257,-131,l),
(249,-154,o),
(245,-179,o),
(243,-203,c),
(259,-226,o),
(317,-244,o),
(363,-244,cs)
);
},
{
closed = 1;
nodes = (
(295,0,l),
(287,37,l),
(258,37,o),
(222,42,o),
(222,105,cs),
(222,194,ls),
(222,252,o),
(222,311,o),
(225,368,c),
(208,358,l),
(213,378,o),
(226,468,o),
(226,468,c),
(226,468,o),
(99,457,o),
(38,458,c),
(43,411,l),
(139,409,o),
(140,374,o),
(140,291,cs),
(140,240,o),
(140,162,o),
(133,94,cs),
(129,53,o),
(97,46,o),
(47,48,c),
(53,0,l)
);
}
);
width = 462;
}
);
unicode = 331;
}
{
glyphname = OE;
layers = (
{
layerId = "51BB9282-3B82-4DF1-A67A-294D3E37D73A";
shapes = (
{
closed = 1;
nodes = (
(480,-12,o),
(592,119,o),
(592,336,cs),
(592,522,o),
(479,619,o),
(338,619,cs),
(167,619,o),
(36,477,o),
(36,263,cs),
(36,117,o),
(128,-12,o),
(303,-12,cs)
);
},
{
closed = 1;
nodes = (
(199,47,o),
(129,156,o),
(129,304,cs),
(129,488,o),
(230,565,o),
(316,565,cs),
(419,565,o),
(507,459,o),
(507,322,cs),
(507,162,o),
(434,47,o),
(315,47,cs)
);
},
{
closed = 1;
nodes = (
(607,285,o),
(677,287,o),
(740,287,cs),
(767,287,o),
(794,287,o),
(822,285,c),
(822,355,l),
(705,341,l),
(549,341,l),
(549,283,l)
);
},
{
closed = 1;
nodes = (
(898,0,l),
(901,40,o),
(901,89,o),
(901,123,cs),
(901,163,l),
(846,157,l),
(834,106,o),
(817,60,o),
(784,22,c),
(844,70,l),
(812,62,o),
(736,55,o),
(675,55,cs),
(660,55,o),
(642,55,o),
(632,56,cs),
(604,59,o),
(600,83,o),
(599,104,cs),
(597,146,o),
(596,203,o),
(596,266,cs),
(596,343,o),
(599,433,o),
(607,518,cs),
(609,541,o),
(619,564,o),
(657,564,cs),
(713,564,o),
(784,562,o),
(846,556,c),
(773,594,l),
(806,564,o),
(825,511,o),
(830,465,c),
(886,460,l),
(888,480,o),
(892,527,o),
(892,565,cs),
(892,582,o),
(892,600,o),
(891,617,c),
(816,613,o),
(730,612,o),
(683,612,cs),
(627,612,ls),
(565,612,o),
(559,613,o),
(505,616,c),
(509,569,l),
(516,511,ls),
(519,460,o),
(519,405,o),
(519,351,cs),
(519,263,o),
(516,176,o),
(511,109,c),
(509,0,l)
);
}
);
width = 934;
}
);
metricRight = E;
unicode = 338;
}
{
glyphname = oe;
layers = (
{
anchors = (
{
name = top;
pos = (449,470);
}
);
layerId = "51BB9282-3B82-4DF1-A67A-294D3E37D73A";
shapes = (
{
closed = 1;
nodes = (
(410,-14,o),
(475,124,o),
(475,261,cs),
(475,412,o),
(395,473,o),
(286,473,cs),
(139,473,o),
(35,361,o),
(35,198,cs),
(35,68,o),
(102,-14,o),
(236,-14,cs)
);
},
{
closed = 1;
nodes = (
(176,33,o),
(133,119,o),
(133,230,cs),
(133,343,o),
(178,429,o),
(258,429,cs),
(333,429,o),
(384,352,o),
(384,238,cs),
(384,131,o),
(339,33,o),
(255,33,cs)
);
},
{
closed = 1;
nodes = (
(704,-15,o),
(754,39,o),
(770,59,c),
(754,85,l),
(749,79,o),
(708,41,o),
(631,41,cs),
(513,41,o),
(481,132,o),
(481,228,cs),
(481,347,o),
(531,422,o),
(597,422,cs),
(660,422,o),
(691,352,o),
(691,278,c),
(642,278,l),
(458,260,l),
(471,223,l),
(786,225,l),
(788,239,o),
(788,252,o),
(788,265,cs),
(788,396,o),
(711,467,o),
(613,467,cs),
(497,467,o),
(388,369,o),
(388,207,cs),
(388,55,o),
(485,-15,o),
(602,-15,cs)
);
}
);
width = 823;
}
);
metricRight = "=e";
unicode = 339;
}
{
glyphname = Tbar;
layers = (
{
layerId = "51BB9282-3B82-4DF1-A67A-294D3E37D73A";
shapes = (
{
closed = 1;
nodes = (
(477,285,l),
(478,311,o),
(483,337,o),
(484,358,c),
(411,355,o),
(327,353,o),
(242,353,cs),
(174,353,o),
(105,354,o),
(41,358,c),
(30,285,l)
);
},
{
ref = T;
}
);
width = 532;
}
);
unicode = 358;
}
{
glyphname = tbar;
layers = (
{
layerId = "51BB9282-3B82-4DF1-A67A-294D3E37D73A";
shapes = (
{
closed = 1;
nodes = (
(258,-13,o),
(313,25,o),
(330,43,c),
(310,69,l),
(291,57,o),
(271,51,o),
(253,51,cs),
(223,51,o),
(194,60,o),
(182,93,cs),
(177,107,o),
(174,137,o),
(174,171,cs),
(174,255,o),
(175,331,o),
(182,390,c),
(311,400,l),
(302,450,l),
(183,450,l),
(185,506,o),
(188,562,o),
(192,610,c),
(106,591,l),
(106,450,l),
(12,450,l),
(19,398,l),
(54,398,o),
(86,391,o),
(101,386,c),
(102,364,o),
(102,342,o),
(102,320,cs),
(102,271,o),
(99,225,o),
(96,184,cs),
(92,133,o),
(91,119,o),
(91,99,cs),
(91,28,o),
(122,-13,o),
(195,-13,cs)
);
},
{
closed = 1;
nodes = (
(298,226,l),
(294,253,o),
(293,265,o),
(292,286,c),
(230,284,o),
(72,281,o),
(10,286,c),
(15,226,l)
);
}
);
width = 340;
}
);
metricRight = t;
unicode = 359;
}
{
glyphname = Schwa;
layers = (
{
layerId = "51BB9282-3B82-4DF1-A67A-294D3E37D73A";
shapes = (
{
closed = 1;
nodes = (
(392,3,o),
(520,114,o),
(520,333,cs),
(520,507,o),
(407,598,o),
(269,598,cs),
(142,597,o),
(69,526,o),
(53,506,c),
(72,480,l),
(74,480,o),
(133,535,o),
(224,535,cs),
(390,535,o),
(427,416,o),
(427,291,cs),
(427,107,o),
(350,54,o),
(283,54,cs),
(190,54,o),
(120,138,o),
(120,255,c),
(212,256,l),
(455,278,l),
(440,324,l),
(33,322,l),
(31,304,o),
(30,286,o),
(30,269,cs),
(30,104,o),
(121,3,o),
(266,3,cs)
);
}
);
width = 558;
}
);
unicode = 399;
}
{
glyphname = florin;
layers = (
{
layerId = "51BB9282-3B82-4DF1-A67A-294D3E37D73A";
shapes = (
{
closed = 1;
nodes = (
(92,-216,o),
(226,-175,o),
(230,33,cs),
(230,61,o),
(229,279,o),
(229,425,cs),
(229,517,ls),
(231,625,o),
(255,653,o),
(294,653,cs),
(347,653,o),
(389,599,o),
(419,553,c),
(435,584,o),
(452,640,o),
(452,682,c),
(452,682,o),
(401,699,o),
(350,699,cs),
(261,699,o),
(152,653,o),
(150,480,cs),
(150,464,o),
(149,450,o),
(149,436,cs),
(150,424,o),
(148,412,o),
(148,400,cs),
(150,326,o),
(152,88,o),
(152,-2,cs),
(152,-32,ls),
(151,-117,o),
(100,-137,o),
(44,-137,cs),
(16,-137,o),
(-14,-132,o),
(-39,-127,c),
(-45,-138,o),
(-47,-149,o),
(-47,-161,cs),
(-47,-183,o),
(-38,-204,o),
(-28,-216,c)
);
},
{
closed = 1;
nodes = (
(205,388,l),
(353,402,l),
(343,453,l),
(293,451,o),
(252,450,o),
(210,450,cs),
(168,450,o),
(125,451,o),
(70,453,c),
(78,400,l),
(115,400,o),
(172,390,o),
(172,339,c)
);
}
);
width = 509;
}
);
unicode = 402;
}
{
glyphname = jdotless;
layers = (
{
anchors = (
{
name = bottom;
pos = (156,-131);
},
{
name = top;
pos = (149,530);
}
);
layerId = "51BB9282-3B82-4DF1-A67A-294D3E37D73A";
shapes = (
{
closed = 1;
nodes = (
(153,-203,o),
(205,-144,o),
(205,-13,cs),
(205,65,ls),
(205,184,o),
(207,386,o),
(213,466,c),
(181,461,o),
(97,456,o),
(24,456,c),
(28,410,l),
(99,410,o),
(122,387,o),
(126,353,cs),
(130,322,o),
(134,242,o),
(134,147,cs),
(134,100,o),
(134,49,o),
(129,-2,cs),
(119,-100,o),
(76,-150,o),
(17,-150,cs),
(8,-150,o),
(-2,-148,o),
(-12,-146,c),
(-29,-185,l),
(-18,-191,o),
(21,-203,o),
(63,-203,cs)
);
}
);
width = 232;
}
);
unicode = 567;
}
{
glyphname = schwa;
layers = (
{
layerId = "51BB9282-3B82-4DF1-A67A-294D3E37D73A";
shapes = (
{
closed = 1;
nodes = (
(343,-15,o),
(453,73,o),
(453,250,cs),
(453,389,o),
(358,463,o),
(236,463,cs),
(137,463,o),
(84,405,o),
(72,389,c),
(87,362,l),
(89,362,o),
(136,407,o),
(211,407,cs),
(329,405,o),
(360,316,o),
(360,218,cs),
(360,101,o),
(312,25,o),
(244,25,cs),
(182,25,o),
(143,93,o),
(143,169,c),
(199,169,l),
(383,187,l),
(370,224,l),
(55,223,l),
(54,209,o),
(53,197,o),
(53,184,cs),
(53,53,o),
(128,-15,o),
(226,-15,cs)
);
}
);
width = 470;
}
);
unicode = 601;
}
{
glyphname = circumflex;
layers = (
{
layerId = "51BB9282-3B82-4DF1-A67A-294D3E37D73A";
shapes = (
{
closed = 1;
nodes = (
(72,704,o),
(141,760,o),
(153,783,c),
(124,783,l),
(134,767,o),
(218,702,o),
(253,689,c),
(260,698,o),
(269,720,o),
(272,732,c),
(223,761,o),
(172,786,o),
(138,822,c),
(111,788,o),
(54,752,o),
(8,727,c),
(33,690,l)
);
}
);
userData = {
com.typemytype.robofont.layerData = {
"Jan 29 17, 13:22" = {
anchors = (
{
name = _top;
x = 0;
y = 873;
}
);
components = (
);
contours = (
{
points = (
{
smooth = 0;
x = -90;
y = 934;
},
{
smooth = 0;
x = -30;
y = 969;
},
{
segmentType = curve;
smooth = 0;
x = 0;
y = 1002;
},
{
smooth = 0;
x = 30;
y = 979;
},
{
smooth = 0;
x = 92;
y = 918;
},
{
segmentType = curve;
smooth = 0;
x = 141;
y = 909;
},
{
segmentType = line;
smooth = 0;
x = 170;
y = 964;
},
{
smooth = 0;
x = 109;
y = 996;
},
{
smooth = 0;
x = 53;
y = 1058;
},
{
segmentType = curve;
smooth = 0;
x = 19;
y = 1103;
},
{
segmentType = line;
smooth = 0;
x = -13;
y = 1103;
},
{
smooth = 0;
x = -39;
y = 1069;
},
{
smooth = 0;
x = -105;
y = 1007;
},
{
segmentType = curve;
smooth = 0;
x = -165;
y = 964;
},
{
segmentType = line;
smooth = 0;
x = -133;
y = 909;
}
);
}
);
lib = {
};
name = circumflex;
unicodes = (
);
width = 0;
};
};
};
width = 278;
}
);
unicode = 710;
}
{
glyphname = caron;
layers = (
{
anchors = (
{
name = _top;
pos = (159,470);
}
);
layerId = "51BB9282-3B82-4DF1-A67A-294D3E37D73A";
shapes = (
{
closed = 1;
nodes = (
(28,758,l),
(74,742,o),
(146,700,o),
(173,666,c),
(207,702,o),
(263,737,o),
(312,766,c),
(309,778,o),
(290,810,o),
(283,819,c),
(248,806,o),
(179,735,o),
(169,719,c),
(188,710,l),
(176,733,o),
(102,801,o),
(63,815,c)
);
}
);
width = 332;
}
);
unicode = 711;
}
{
glyphname = firsttonechinese;
layers = (
{
layerId = "51BB9282-3B82-4DF1-A67A-294D3E37D73A";
shapes = (
{
closed = 1;
nodes = (
(306,582,l),
(299,639,l),
(15,639,l),
(23,582,l)
);
}
);
width = 0;
}
);
unicode = 713;
}
{
glyphname = breve;
layers = (
{
layerId = "51BB9282-3B82-4DF1-A67A-294D3E37D73A";
shapes = (
{
closed = 1;
nodes = (
(216,661,o),
(273,701,o),
(291,753,c),
(267,795,l),
(247,766,o),
(202,733,o),
(146,733,cs),
(98,733,o),
(54,757,o),
(32,787,c),
(10,748,l),
(22,696,o),
(83,661,o),
(147,661,cs)
);
}
);
width = 301;
}
);
unicode = 728;
}
{
glyphname = dotaccent;
layers = (
{
layerId = "51BB9282-3B82-4DF1-A67A-294D3E37D73A";
shapes = (
{
closed = 1;
nodes = (
(106,561,o),
(133,586,o),
(133,623,cs),
(133,660,o),
(105,683,o),
(72,683,cs),
(38,683,o),
(10,658,o),
(10,619,cs),
(10,584,o),
(33,561,o),
(69,561,cs)
);
}
);
width = 143;
}
);
unicode = 729;
}
{
glyphname = ring;
layers = (
{
anchors = (
{
name = _top;
pos = (89,618);
}
);
layerId = "51BB9282-3B82-4DF1-A67A-294D3E37D73A";
shapes = (
{
closed = 1;
nodes = (
(133,618,o),
(168,654,o),
(168,698,cs),
(168,742,o),
(133,777,o),
(89,777,cs),
(45,777,o),
(10,742,o),
(10,698,cs),
(10,654,o),
(45,618,o),
(89,618,cs)
);
},
{
closed = 1;
nodes = (
(70,665,o),
(55,680,o),
(55,698,cs),
(55,716,o),
(70,732,o),
(88,732,cs),
(106,732,o),
(121,716,o),
(121,698,cs),
(121,680,o),
(106,665,o),
(88,665,cs)
);
}
);
width = 178;
}
);
unicode = 730;
}
{
glyphname = ogonek;
layers = (
{
layerId = "51BB9282-3B82-4DF1-A67A-294D3E37D73A";
shapes = (
{
closed = 1;
nodes = (
(179,-217,o),
(210,-199,o),
(227,-189,c),
(213,-151,l),
(195,-161,o),
(179,-167,o),
(152,-167,cs),
(109,-167,o),
(90,-151,o),
(90,-116,cs),
(90,-52,o),
(149,-16,o),
(193,2,c),
(186,18,l),
(168,18,o),
(174,19,o),
(157,17,cs),
(122,13,o),
(10,-39,o),
(10,-128,cs),
(10,-179,o),
(46,-217,o),
(126,-217,cs)
);
}
);
width = 237;
}
);
unicode = 731;
}
{
glyphname = tilde;
layers = (
{
anchors = (
{
name = _top;
pos = (146,673);
}
);
layerId = "51BB9282-3B82-4DF1-A67A-294D3E37D73A";
shapes = (
{
closed = 1;
nodes = (
(302,760,l),
(278,783,o),
(251,793,o),
(211,793,cs),
(155,793,o),
(149,773,o),
(100,773,cs),
(65,773,o),
(61,783,o),
(38,798,c),
(10,756,l),
(24,739,o),
(44,721,o),
(96,721,cs),
(147,721,o),
(174,738,o),
(215,738,cs),
(243,738,o),
(255,730,o),
(274,718,c)
);
}
);
width = 312;
}
);
unicode = 732;
}
{
glyphname = hungarumlaut;
layers = (
{
anchors = (
{
name = _top;
pos = (148,440);
}
);
layerId = "51BB9282-3B82-4DF1-A67A-294D3E37D73A";
shapes = (
{
closed = 1;
nodes = (
(108,524,o),
(147,653,o),
(159,704,c),
(140,722,o),
(99,730,o),
(76,728,c),
(68,669,o),
(43,548,o),
(30,502,c),
(82,475,l)
);
},
{
closed = 1;
nodes = (
(254,524,o),
(293,653,o),
(305,704,c),
(286,722,o),
(245,730,o),
(222,728,c),
(214,669,o),
(189,548,o),
(176,502,c),
(228,475,l)
);
}
);
width = 335;
}
);
unicode = 733;
}
{
glyphname = gravecomb;
layers = (
{
anchors = (
{
name = _top;
pos = (1,410);
},
{
name = top;
pos = (1,594);
}
);
layerId = "51BB9282-3B82-4DF1-A67A-294D3E37D73A";
shapes = (
{
closed = 1;
nodes = (
(79,479,l),
(29,508,o),
(-21,548,o),
(-49,583,c),
(-69,572,o),
(-92,547,o),
(-102,523,c),
(-63,488,o),
(-3,451,o),
(47,435,c)
);
}
);
width = 0;
}
);
unicode = 768;
}
{
glyphname = acutecomb;
layers = (
{
anchors = (
{
name = _top;
pos = (1,460);
},
{
name = top;
pos = (1,614);
}
);
layerId = "51BB9282-3B82-4DF1-A67A-294D3E37D73A";
shapes = (
{
closed = 1;
nodes = (
(-53,483,o),
(54,521,o),
(103,557,c),
(99,582,o),
(82,610,o),
(65,627,c),
(14,581,o),
(-55,545,o),
(-104,530,c),
(-86,480,l)
);
}
);
width = 0;
}
);
unicode = 769;
}
{
glyphname = circumflexcomb;
layers = (
{
anchors = (
{
name = _top;
pos = (1,461);
},
{
name = top;
pos = (0,653);
}
);
layerId = "51BB9282-3B82-4DF1-A67A-294D3E37D73A";
shapes = (
{
closed = 1;
nodes = (
(-78,504,o),
(1,560,o),
(13,583,c),
(-16,583,l),
(-6,567,o),
(88,498,o),
(123,485,c),
(130,494,o),
(149,526,o),
(152,538,c),
(93,567,o),
(32,606,o),
(-2,642,c),
(-29,608,o),
(-106,562,o),
(-152,537,c),
(-117,490,l)
);
}
);
width = 0;
}
);
unicode = 770;
}
{
glyphname = tildecomb;
layers = (
{
anchors = (
{
name = _top;
pos = (0,460);
},
{
name = top;
pos = (0,614);
}
);
layerId = "51BB9282-3B82-4DF1-A67A-294D3E37D73A";
shapes = (
{
closed = 1;
nodes = (
(7,501,o),
(24,522,o),
(59,522,cs),
(76,522,o),
(97,517,o),
(118,503,c),
(125,513,o),
(136,532,o),
(141,542,c),
(118,568,o),
(95,586,o),
(59,586,cs),
(20,586,o),
(6,565,o),
(-35,565,cs),
(-63,565,o),
(-81,575,o),
(-100,588,c),
(-129,549,l),
(-115,532,o),
(-81,501,o),
(-33,501,cs)
);
}
);
width = 0;
}
);
unicode = 771;
}
{
glyphname = macroncomb;
layers = (
{
anchors = (
{
name = _top;
pos = (0,410);
},
{
name = top;
pos = (0,574);
}
);
layerId = "51BB9282-3B82-4DF1-A67A-294D3E37D73A";
shapes = (
{
closed = 1;
nodes = (
(155,457,l),
(156,483,o),
(161,504,o),
(162,525,c),
(96,522,o),
(55,520,o),
(12,520,cs),
(-31,520,o),
(-77,522,o),
(-151,525,c),
(-162,457,l)
);
}
);
width = 0;
}
);
unicode = 772;
}
{
glyphname = hookabovecomb;
layers = (
{
anchors = (
{
name = _top;
pos = (0,410);
},
{
name = top;
pos = (0,654);
}
);
layerId = "51BB9282-3B82-4DF1-A67A-294D3E37D73A";
shapes = (
{
closed = 1;
nodes = (
(22,435,l),
(33,487,o),
(65,492,o),
(65,546,cs),
(65,605,o),
(26,616,o),
(-7,616,cs),
(-37,616,o),
(-64,607,o),
(-80,600,c),
(-86,590,o),
(-89,578,o),
(-89,567,cs),
(-89,562,o),
(-88,557,o),
(-87,552,c),
(-72,559,o),
(-53,564,o),
(-38,564,cs),
(-15,564,o),
(-2,552,o),
(-2,525,cs),
(-2,485,o),
(-30,478,o),
(-31,432,c)
);
}
);
width = 0;
}
);
unicode = 777;
}
{
glyphname = caroncomb;
layers = (
{
anchors = (
{
name = _top;
pos = (1,410);
},
{
name = top;
pos = (1,564);
}
);
layerId = "51BB9282-3B82-4DF1-A67A-294D3E37D73A";
shapes = (
{
closed = 1;
nodes = (
(-145,518,l),
(-99,502,o),
(-27,460,o),
(0,426,c),
(34,462,o),
(90,497,o),
(139,526,c),
(136,538,o),
(117,570,o),
(110,579,c),
(75,566,o),
(6,495,o),
(-4,479,c),
(15,470,l),
(3,493,o),
(-71,561,o),
(-110,575,c)
);
}
);
width = 0;
}
);
unicode = 780;
}
{
glyphname = dblgravecomb;
layers = (
{
anchors = (
{
name = _top;
pos = (0,410);
},
{
name = top;
pos = (0,694);
}
);
layerId = "51BB9282-3B82-4DF1-A67A-294D3E37D73A";
shapes = (
{
closed = 1;
nodes = (
(57,479,l),
(9,517,o),
(-45,580,o),
(-72,614,c),
(-95,599,o),
(-116,575,o),
(-126,558,c),
(-99,525,o),
(-22,461,o),
(22,435,c)
);
},
{
closed = 1;
nodes = (
(143,541,l),
(99,582,o),
(55,642,o),
(31,678,c),
(8,672,o),
(-19,651,o),
(-32,635,c),
(-11,601,o),
(63,529,o),
(105,500,c)
);
}
);
width = 0;
}
);
unicode = 783;
}
{
glyphname = breveinvertedcomb;
layers = (
{
anchors = (
{
name = _top;
pos = (0,410);
},
{
name = top;
pos = (0,582);
}
);
layerId = "51BB9282-3B82-4DF1-A67A-294D3E37D73A";
shapes = (
{
closed = 1;
nodes = (
(-86,462,o),
(-51,488,o),
(5,488,cs),
(61,488,o),
(103,463,o),
(126,443,c),
(151,476,l),
(121,534,o),
(61,557,o),
(9,557,cs),
(-55,557,o),
(-112,518,o),
(-140,484,c),
(-116,442,l)
);
}
);
width = 0;
}
);
unicode = 785;
}
{
glyphname = horncomb;
layers = (
{
anchors = (
{
name = _top;
pos = (0,410);
},
{
name = top;
pos = (0,664);
}
);
layerId = "51BB9282-3B82-4DF1-A67A-294D3E37D73A";
shapes = (
{
closed = 1;
nodes = (
(-10,437,o),
(55,478,o),
(55,547,cs),
(55,583,o),
(38,603,o),
(18,614,c),
(-5,616,o),
(-25,608,o),
(-41,598,c),
(-25,581,o),
(-15,566,o),
(-15,537,cs),
(-15,494,o),
(-48,483,o),
(-74,483,cs),
(-81,483,o),
(-101,483,o),
(-110,487,c),
(-109,461,o),
(-82,435,o),
(-51,430,c)
);
}
);
width = 0;
}
);
unicode = 795;
}
{
glyphname = dieresisbelowcomb;
layers = (
{
anchors = (
{
name = _bottom;
pos = (0,4);
}
);
layerId = "51BB9282-3B82-4DF1-A67A-294D3E37D73A";
shapes = (
{
closed = 1;
nodes = (
(-44,-213,o),
(-22,-195,o),
(-22,-168,cs),
(-22,-141,o),
(-44,-119,o),
(-71,-119,cs),
(-98,-119,o),
(-119,-138,o),
(-119,-165,cs),
(-119,-192,o),
(-98,-213,o),
(-71,-213,cs)
);
},
{
closed = 1;
nodes = (
(97,-214,o),
(115,-193,o),
(115,-166,cs),
(115,-139,o),
(97,-117,o),
(70,-117,cs),
(43,-117,o),
(22,-139,o),
(22,-166,cs),
(22,-193,o),
(43,-214,o),
(70,-214,cs)
);
}
);
width = 0;
}
);
unicode = 804;
}
{
glyphname = commaaccentcomb;
layers = (
{
anchors = (
{
name = _bottom;
pos = (0,4);
}
);
layerId = "51BB9282-3B82-4DF1-A67A-294D3E37D73A";
shapes = (
{
closed = 1;
nodes = (
(-1,-238,o),
(39,-135,o),
(39,-68,c),
(20,-63,o),
(-8,-58,o),
(-33,-58,cs),
(-40,-58,o),
(-47,-58,o),
(-54,-59,c),
(-52,-136,o),
(-74,-216,o),
(-93,-267,c),
(-35,-290,l)
);
}
);
width = 0;
}
);
unicode = 806;
}
{
glyphname = ogonekcomb;
layers = (
{
anchors = (
{
name = _ogonek;
pos = (0,1);
}
);
layerId = "51BB9282-3B82-4DF1-A67A-294D3E37D73A";
shapes = (
{
closed = 1;
nodes = (
(54,-222,o),
(81,-214,o),
(105,-199,c),
(114,-151,l),
(97,-157,o),
(74,-164,o),
(51,-164,cs),
(-5,-164,o),
(-33,-129,o),
(-33,-92,cs),
(-33,-56,o),
(-25,-37,o),
(0,1,c),
(-43,1,l),
(-74,-21,o),
(-93,-76,o),
(-93,-115,cs),
(-93,-181,o),
(-55,-222,o),
(24,-222,cs)
);
}
);
width = 0;
}
);
unicode = 808;
}
{
glyphname = brevebelowcomb;
layers = (
{
anchors = (
{
name = _bottom;
pos = (1,-1);
}
);
layerId = "51BB9282-3B82-4DF1-A67A-294D3E37D73A";
shapes = (
{
closed = 1;
nodes = (
(64,-213,o),
(124,-174,o),
(141,-122,c),
(117,-79,l),
(97,-109,o),
(52,-142,o),
(-4,-142,cs),
(-52,-142,o),
(-96,-118,o),
(-118,-88,c),
(-140,-127,l),
(-126,-179,o),
(-69,-213,o),
(-5,-213,cs)
);
}
);
width = 0;
}
);
unicode = 814;
}
{
glyphname = macronbelowcomb;
layers = (
{
anchors = (
{
name = _bottom;
pos = (-1,2);
}
);
layerId = "51BB9282-3B82-4DF1-A67A-294D3E37D73A";
shapes = (
{
closed = 1;
nodes = (
(167,-89,l),
(160,-32,l),
(-124,-32,l),
(-116,-89,l)
);
}
);
width = 0;
}
);
unicode = 817;
}
{
category = Mark;
glyphname = sinAnusvara;
layers = (
{
layerId = "51BB9282-3B82-4DF1-A67A-294D3E37D73A";
shapes = (
{
closed = 1;
nodes = (
(362,54,o),
(408,156,o),
(408,250,cs),
(408,334,o),
(348,418,o),
(232,418,cs),
(140,418,o),
(59,345,o),
(59,230,cs),
(59,132,o),
(122,54,o),
(239,54,cs)
);
},
{
closed = 1;
nodes = (
(173,129,o),
(99,156,o),
(99,233,cs),
(99,304,o),
(158,343,o),
(234,343,cs),
(306,343,o),
(368,310,o),
(368,236,cs),
(368,180,o),
(318,129,o),
(239,129,cs)
);
}
);
width = 453;
}
);
script = sinhala;
subCategory = Spacing;
unicode = 3458;
}
{
category = Mark;
glyphname = sinVisarga;
layers = (
{
layerId = "51BB9282-3B82-4DF1-A67A-294D3E37D73A";
shapes = (
{
closed = 1;
nodes = (
(209,258,o),
(243,311,o),
(243,365,cs),
(243,413,o),
(202,455,o),
(140,455,cs),
(91,455,o),
(42,425,o),
(42,357,cs),
(42,302,o),
(80,258,o),
(138,258,cs)
);
},
{
closed = 1;
nodes = (
(197,2,o),
(237,50,o),
(237,110,cs),
(237,162,o),
(206,200,o),
(145,200,cs),
(90,200,o),
(39,161,o),
(39,88,cs),
(39,42,o),
(70,2,o),
(129,2,cs)
);
},
{
closed = 1;
nodes = (
(98,44,o),
(80,65,o),
(80,90,cs),
(80,135,o),
(112,157,o),
(144,157,cs),
(175,157,o),
(192,139,o),
(192,112,cs),
(192,80,o),
(170,44,o),
(129,44,cs)
);
},
{
closed = 1;
nodes = (
(98,300,o),
(80,318,o),
(80,344,cs),
(80,393,o),
(119,420,o),
(153,420,cs),
(182,420,o),
(197,401,o),
(197,375,cs),
(197,339,o),
(173,300,o),
(125,300,cs)
);
}
);
width = 276;
}
);
script = sinhala;
subCategory = Spacing;
unicode = 3459;
}
{
glyphname = sinA;
layers = (
{
layerId = "51BB9282-3B82-4DF1-A67A-294D3E37D73A";
shapes = (
{
closed = 1;
nodes = (
(373,-6,o),
(467,4,o),
(515,29,c),
(518,36,o),
(519,44,o),
(519,54,cs),
(519,70,o),
(515,89,o),
(510,102,c),
(436,45,o),
(373,32,o),
(315,32,cs),
(186,32,o),
(114,94,o),
(114,175,cs),
(114,243,o),
(166,295,o),
(237,295,cs),
(279,295,o),
(318,284,o),
(343,269,c),
(356,279,l),
(357,287,o),
(358,313,o),
(358,321,cs),
(358,422,o),
(288,495,o),
(195,495,cs),
(127,495,o),
(90,457,o),
(90,415,cs),
(90,378,o),
(114,360,o),
(132,359,c),
(143,367,l),
(157,411,o),
(190,441,o),
(235,441,cs),
(280,441,o),
(309,408,o),
(309,350,cs),
(309,321,o),
(302,315,o),
(300,312,c),
(333,344,l),
(308,347,o),
(287,349,o),
(265,349,cs),
(128,349,o),
(32,280,o),
(32,173,cs),
(32,52,o),
(158,-6,o),
(309,-6,cs)
);
},
{
closed = 1;
nodes = (
(445,-227,l),
(437,248,l),
(416,233,l),
(503,240,o),
(552,290,o),
(552,356,cs),
(552,424,o),
(500,445,o),
(446,491,c),
(429,483,l),
(416,466,o),
(392,426,o),
(392,386,cs),
(390,104,o),
(390,72,o),
(377,-227,c)
);
},
{
closed = 1;
nodes = (
(436,349,ls),
(436,388,o),
(435,405,o),
(447,449,c),
(487,416,o),
(501,387,o),
(501,351,cs),
(501,307,o),
(479,282,o),
(436,273,c)
);
}
);
width = 569;
}
);
unicode = 3461;
}
{
glyphname = sinI;
layers = (
{
layerId = "51BB9282-3B82-4DF1-A67A-294D3E37D73A";
shapes = (
{
closed = 1;
nodes = (
(539,-22,o),
(627,109,o),
(627,265,cs),
(627,430,o),
(498,501,o),
(363,501,cs),
(207,501,o),
(60,414,o),
(60,235,cs),
(60,147,o),
(120,50,o),
(258,50,cs),
(419,50,o),
(456,178,o),
(456,251,cs),
(456,325,o),
(403,358,o),
(352,358,cs),
(292,358,o),
(254,319,o),
(254,266,cs),
(254,226,o),
(278,192,o),
(339,192,cs),
(407,192,o),
(427,233,o),
(429,239,c),
(431,266,l),
(431,266,o),
(392,233,o),
(348,233,cs),
(313,233,o),
(287,251,o),
(287,267,cs),
(287,291,o),
(312,301,o),
(345,301,cs),
(380,301,o),
(425,281,o),
(425,238,cs),
(425,196,o),
(371,119,o),
(269,119,cs),
(166,119,o),
(98,175,o),
(98,247,cs),
(98,369,o),
(198,430,o),
(326,430,cs),
(519,430,o),
(588,340,o),
(588,249,cs),
(588,116,o),
(464,-5,o),
(223,-2,c),
(222,-25,o),
(231,-49,o),
(240,-71,c)
);
},
{
closed = 1;
nodes = (
(438,-253,o),
(495,-170,o),
(495,-130,cs),
(495,-74,o),
(442,-47,o),
(388,-47,cs),
(367,-47,o),
(347,-50,o),
(328,-52,c),
(237,-41,l),
(240,-71,l),
(394,-71,o),
(440,-97,o),
(440,-135,cs),
(440,-167,o),
(408,-188,o),
(339,-188,cs),
(270,-188,o),
(209,-165,o),
(201,-161,c),
(198,-170,o),
(194,-179,o),
(194,-197,cs),
(194,-210,o),
(197,-233,o),
(210,-249,c),
(234,-252,o),
(256,-255,o),
(278,-255,cs)
);
}
);
userData = {
com.typemytype.robofont.layerData = {
"Regular Nov 5 16, 14:31" = {
anchors = (
);
components = (
);
contours = (
{
points = (
{
segmentType = curve;
smooth = 0;
x = 275.133;
y = -320;
},
{
smooth = 0;
x = 493.49;
y = -351.212;
},
{
smooth = 0;
x = 638.41;
y = -272.795;
},
{
segmentType = curve;
smooth = 1;
x = 643.204;
y = -166;
},
{
smooth = 0;
x = 648.672;
y = -44.881;
},
{
smooth = 0;
x = 507.437;
y = -28;
},
{
segmentType = curve;
smooth = 0;
x = 507.437;
y = -28;
},
{
segmentType = line;
smooth = 0;
x = 368.432;
y = -19;
},
{
segmentType = line;
smooth = 0;
x = 363.55;
y = -74;
},
{
smooth = 0;
x = 491.874;
y = -73.686;
},
{
smooth = 0;
x = 543.527;
y = -89.077;
},
{
segmentType = curve;
smooth = 1;
x = 542.938;
y = -152;
},
{
smooth = 0;
x = 542.344;
y = -215.458;
},
{
smooth = 0;
x = 439.443;
y = -280.771;
},
{
segmentType = curve;
smooth = 0;
x = 263.326;
y = -240;
},
{
smooth = 0;
x = 252.43;
y = -267.338;
},
{
smooth = 0;
x = 267.87;
y = -310.09;
}
);
},
{
points = (
{
segmentType = curve;
smooth = 1;
x = 104.774;
y = 321;
},
{
smooth = 0;
x = 105;
y = 162;
},
{
smooth = 0;
x = 202.184;
y = 78.812;
},
{
segmentType = curve;
smooth = 1;
x = 338.563;
y = 78;
},
{
smooth = 0;
x = 496.363;
y = 77.06;
},
{
smooth = 0;
x = 575.313;
y = 169.413;
},
{
segmentType = curve;
smooth = 1;
x = 582.102;
y = 260;
},
{
smooth = 0;
x = 588.84;
y = 349.074;
},
{
smooth = 0;
x = 531.985;
y = 414.08;
},
{
segmentType = curve;
smooth = 1;
x = 462.226;
y = 415;
},
{
smooth = 0;
x = 388.605;
y = 416.035;
},
{
smooth = 0;
x = 335.713;
y = 367.065;
},
{
segmentType = curve;
smooth = 1;
x = 332.355;
y = 303;
},
{
smooth = 0;
x = 329.211;
y = 243;
},
{
smooth = 0;
x = 366.598;
y = 194.619;
},
{
segmentType = curve;
smooth = 1;
x = 445.643;
y = 194;
},
{
smooth = 0;
x = 532.394;
y = 193.32;
},
{
smooth = 0;
x = 559.25;
y = 263;
},
{
segmentType = curve;
smooth = 0;
x = 560.626;
y = 270;
},
{
segmentType = line;
smooth = 1;
x = 549.779;
y = 292;
},
{
smooth = 0;
x = 549.779;
y = 292;
},
{
smooth = 0;
x = 515.556;
y = 239;
},
{
segmentType = curve;
smooth = 1;
x = 460;
y = 239;
},
{
smooth = 0;
x = 415.796;
y = 239;
},
{
smooth = 0;
x = 385.154;
y = 261;
},
{
segmentType = curve;
smooth = 1;
x = 387.041;
y = 297;
},
{
smooth = 0;
x = 388.57;
y = 326.177;
},
{
smooth = 0;
x = 417.233;
y = 349;
},
{
segmentType = curve;
smooth = 1;
x = 455.767;
y = 349;
},
{
smooth = 0;
x = 501.463;
y = 349;
},
{
smooth = 0;
x = 545.692;
y = 309.436;
},
{
segmentType = curve;
smooth = 1;
x = 542.683;
y = 252;
},
{
smooth = 0;
x = 539.832;
y = 197.604;
},
{
smooth = 0;
x = 446.919;
y = 157.347;
},
{
segmentType = curve;
smooth = 1;
x = 335.28;
y = 168;
},
{
smooth = 0;
x = 240.734;
y = 177.022;
},
{
smooth = 0;
x = 161;
y = 226;
},
{
segmentType = curve;
smooth = 1;
x = 159;
y = 339;
},
{
smooth = 0;
x = 156;
y = 457;
},
{
smooth = 0;
x = 316;
y = 529;
},
{
segmentType = curve;
smooth = 1;
x = 487;
y = 522;
},
{
smooth = 0;
x = 662;
y = 515;
},
{
smooth = 0;
x = 733.907;
y = 388.635;
},
{
segmentType = curve;
smooth = 1;
x = 728.73;
y = 262;
},
{
smooth = 0;
x = 722.053;
y = 98.634;
},
{
smooth = 0;
x = 552.276;
y = -7.808;
},
{
segmentType = curve;
smooth = 0;
x = 331.166;
y = -5;
},
{
smooth = 0;
x = 326.07;
y = -25.909;
},
{
smooth = 0;
x = 334.116;
y = -63.182;
},
{
segmentType = curve;
smooth = 0;
x = 352.497;
y = -75;
},
{
smooth = 0;
x = 630.956;
y = -66.199;
},
{
smooth = 0;
x = 806;
y = 80;
},
{
segmentType = curve;
smooth = 1;
x = 806.932;
y = 314;
},
{
smooth = 0;
x = 808;
y = 522;
},
{
smooth = 0;
x = 643.643;
y = 623;
},
{
segmentType = curve;
smooth = 1;
x = 464.65;
y = 623;
},
{
smooth = 0;
x = 278.058;
y = 623;
},
{
smooth = 0;
x = 105;
y = 515;
}
);
}
);
lib = {
};
name = sinI;
unicodes = (
);
width = 867;
};
};
};
width = 663;
}
);
unicode = 3465;
}
{
glyphname = sinIi;
layers = (
{
layerId = "51BB9282-3B82-4DF1-A67A-294D3E37D73A";
shapes = (
{
closed = 1;
nodes = (
(255,555,o),
(277,579,o),
(277,607,cs),
(277,630,o),
(256,649,o),
(232,649,cs),
(206,649,o),
(183,625,o),
(183,596,cs),
(183,574,o),
(205,555,o),
(229,555,cs)
);
},
{
ref = sinRa;
},
{
closed = 1;
nodes = (
(502,447,o),
(523,471,o),
(523,497,cs),
(523,520,o),
(506,538,o),
(483,538,cs),
(457,538,o),
(433,514,o),
(433,487,cs),
(433,465,o),
(452,447,o),
(475,447,cs)
);
}
);
width = 558;
}
);
metricLeft = sinRa;
metricRight = sinRa;
unicode = 3466;
}
{
glyphname = sinU;
layers = (
{
layerId = "51BB9282-3B82-4DF1-A67A-294D3E37D73A";
shapes = (
{
closed = 1;
nodes = (
(553,-213,o),
(614,-149,o),
(639,-121,c),
(639,-105,o),
(634,-86,o),
(625,-81,c),
(593,-104,o),
(518,-124,o),
(423,-124,cs),
(225,-124,o),
(88,-51,o),
(88,74,cs),
(88,241,o),
(240,278,o),
(356,278,cs),
(378,278,o),
(479,277,o),
(505,273,c),
(523,291,l),
(525,301,o),
(525,312,o),
(525,323,cs),
(525,418,o),
(467,514,o),
(362,514,cs),
(287,514,o),
(227,477,o),
(227,419,cs),
(227,388,o),
(253,375,o),
(276,375,cs),
(279,375,o),
(284,375,o),
(287,376,c),
(298,428,o),
(320,475,o),
(382,475,cs),
(435,475,o),
(468,427,o),
(468,371,cs),
(468,357,o),
(465,341,o),
(460,327,c),
(482,344,l),
(473,348,o),
(437,357,o),
(360,357,cs),
(343,357,ls),
(214,357,o),
(45,268,o),
(45,61,cs),
(45,-86,o),
(147,-213,o),
(406,-213,cs)
);
}
);
width = 600;
}
);
unicode = 3467;
}
{
glyphname = sinRVocalic;
layers = (
{
layerId = "51BB9282-3B82-4DF1-A67A-294D3E37D73A";
shapes = (
{
closed = 1;
nodes = (
(590,-22,o),
(668,47,o),
(668,152,cs),
(668,245,o),
(610,330,o),
(498,331,cs),
(452,331,o),
(440,320,o),
(409,308,c),
(457,303,l),
(447,316,o),
(443,327,o),
(439,363,cs),
(436,400,o),
(472,436,o),
(511,436,cs),
(554,436,o),
(594,409,o),
(594,366,cs),
(594,338,o),
(575,301,o),
(572,295,c),
(596,308,o),
(658,333,o),
(654,390,cs),
(649,439,o),
(618,483,o),
(537,483,cs),
(442,483,o),
(395,406,o),
(395,295,cs),
(395,284,o),
(395,274,o),
(396,264,c),
(408,255,l),
(440,267,o),
(474,275,o),
(506,275,cs),
(571,273,o),
(632,247,o),
(632,172,cs),
(632,116,o),
(580,62,o),
(508,62,cs),
(418,62,o),
(374,103,o),
(374,157,cs),
(374,163,o),
(374,169,o),
(375,174,c),
(369,173,o),
(362,170,o),
(357,169,c),
(341,94,o),
(298,62,o),
(227,62,cs),
(150,62,o),
(97,93,o),
(90,148,cs),
(85,198,o),
(144,261,o),
(264,261,cs),
(284,261,o),
(307,259,o),
(332,255,c),
(342,266,l),
(345,278,o),
(346,292,o),
(346,306,cs),
(346,386,o),
(301,484,o),
(206,484,cs),
(141,484,o),
(104,446,o),
(104,405,cs),
(104,367,o),
(139,348,o),
(165,347,c),
(171,386,o),
(194,427,o),
(235,427,cs),
(269,427,o),
(300,381,o),
(300,342,cs),
(300,332,o),
(298,322,o),
(292,314,c),
(211,312,ls),
(106,309,o),
(58,220,o),
(58,141,cs),
(58,70,o),
(96,-20,o),
(213,-20,cs),
(315,-20,o),
(358,60,o),
(370,100,c),
(371,102,o),
(348,114,o),
(349,115,c),
(348,109,o),
(347,101,o),
(347,95,cs),
(347,36,o),
(402,-22,o),
(504,-22,cs)
);
},
{
pos = (648,0);
ref = sinMatraR;
}
);
width = 996;
}
);
unicode = 3469;
}
{
glyphname = sinLVocalic;
layers = (
{
layerId = "51BB9282-3B82-4DF1-A67A-294D3E37D73A";
shapes = (
{
closed = 1;
nodes = (
(609,-20,o),
(731,74,o),
(731,212,cs),
(731,296,o),
(667,345,o),
(583,345,cs),
(542,345,o),
(514,338,o),
(492,327,c),
(525,303,l),
(516,314,o),
(510,341,o),
(510,360,cs),
(510,416,o),
(565,435,o),
(599,435,cs),
(638,435,o),
(672,413,o),
(672,374,cs),
(672,337,o),
(650,320,o),
(645,312,c),
(658,298,l),
(686,308,o),
(725,336,o),
(725,392,cs),
(725,438,o),
(683,484,o),
(616,484,cs),
(517,484,o),
(472,409,o),
(472,312,cs),
(472,301,o),
(473,288,o),
(474,276,c),
(486,268,l),
(519,282,o),
(555,294,o),
(591,294,cs),
(648,294,o),
(696,271,o),
(696,212,cs),
(696,133,o),
(594,66,o),
(456,66,cs),
(292,66,o),
(207,122,o),
(207,188,cs),
(207,250,o),
(269,280,o),
(358,280,cs),
(378,280,o),
(399,278,o),
(423,275,c),
(434,287,l),
(438,305,o),
(440,327,o),
(440,347,cs),
(440,412,o),
(415,482,o),
(317,482,cs),
(254,482,o),
(214,446,o),
(214,408,cs),
(214,376,o),
(235,362,o),
(254,361,c),
(261,394,o),
(300,429,o),
(346,429,cs),
(388,429,o),
(404,405,o),
(404,372,cs),
(404,338,o),
(383,317,o),
(372,307,c),
(411,338,l),
(398,340,o),
(386,341,o),
(374,341,cs),
(275,341,o),
(173,281,o),
(173,177,cs),
(173,82,o),
(247,-20,o),
(460,-20,cs)
);
},
{
closed = 1;
nodes = (
(151,-8,o),
(168,4,o),
(172,9,c),
(152,43,o),
(123,97,o),
(123,191,cs),
(123,318,o),
(182,424,o),
(275,432,c),
(317,482,l),
(162,482,o),
(66,353,o),
(66,206,cs),
(66,93,o),
(111,27,o),
(139,-11,c)
);
},
{
closed = 1;
nodes = (
(808,27,o),
(845,110,o),
(845,212,cs),
(845,370,o),
(765,484,o),
(617,484,c),
(661,433,l),
(731,425,o),
(792,335,o),
(792,207,cs),
(792,114,o),
(766,44,o),
(748,9,c),
(753,3,o),
(770,-8,o),
(782,-10,c)
);
}
);
width = 883;
}
);
unicode = 3471;
}
{
glyphname = sinE;
layers = (
{
layerId = "51BB9282-3B82-4DF1-A67A-294D3E37D73A";
shapes = (
{
closed = 1;
nodes = (
(526,-32,o),
(640,111,o),
(640,296,cs),
(640,510,o),
(444,659,o),
(275,659,c),
(248,592,l),
(398,592,o),
(595,486,o),
(595,312,cs),
(595,179,o),
(513,64,o),
(357,60,cs),
(242,56,o),
(147,83,o),
(147,142,cs),
(147,201,o),
(224,231,o),
(305,231,cs),
(325,231,o),
(347,230,o),
(369,226,c),
(384,239,l),
(385,247,o),
(386,258,o),
(386,268,cs),
(386,342,o),
(336,433,o),
(228,433,cs),
(180,433,o),
(138,407,o),
(138,362,cs),
(138,334,o),
(160,315,o),
(200,319,c),
(200,328,o),
(218,373,o),
(268,373,cs),
(308,373,o),
(344,341,o),
(345,288,c),
(228,285,o),
(104,236,o),
(104,128,cs),
(104,39,o),
(191,-32,o),
(338,-32,cs)
);
},
{
closed = 1;
nodes = (
(69,218,o),
(177,268,o),
(306,275,c),
(351,288,l),
(260,288,o),
(97,284,o),
(30,271,c),
(24,254,o),
(21,222,o),
(20,198,c),
(30,190,l)
);
},
{
closed = 1;
nodes = (
(462,437,o),
(543,454,o),
(568,476,c),
(560,498,l),
(538,488,o),
(483,483,o),
(446,483,cs),
(392,483,o),
(337,496,o),
(306,538,cs),
(278,573,o),
(279,631,o),
(275,659,c),
(243,642,l),
(241,633,o),
(238,612,o),
(238,591,cs),
(238,562,o),
(244,532,o),
(258,505,cs),
(283,455,o),
(342,437,o),
(402,437,cs)
);
}
);
width = 667;
}
);
unicode = 3473;
}
{
glyphname = sinEe;
layers = (
{
layerId = "51BB9282-3B82-4DF1-A67A-294D3E37D73A";
shapes = (
{
closed = 1;
nodes = (
(517,-32,o),
(620,111,o),
(620,286,cs),
(620,510,o),
(381,659,o),
(214,659,c),
(187,592,l),
(337,592,o),
(575,486,o),
(575,301,cs),
(575,179,o),
(503,64,o),
(337,60,cs),
(232,56,o),
(127,83,o),
(127,142,cs),
(127,201,o),
(204,231,o),
(285,231,cs),
(305,231,o),
(327,230,o),
(349,226,c),
(364,239,l),
(365,247,o),
(366,258,o),
(366,268,cs),
(366,342,o),
(305,433,o),
(197,433,cs),
(150,433,o),
(118,407,o),
(118,362,cs),
(118,334,o),
(140,315,o),
(180,319,c),
(180,328,o),
(198,373,o),
(248,373,cs),
(288,373,o),
(324,341,o),
(325,288,c),
(208,285,o),
(84,236,o),
(84,128,cs),
(84,39,o),
(181,-32,o),
(318,-32,cs)
);
},
{
closed = 1;
nodes = (
(49,218,o),
(157,268,o),
(286,275,c),
(331,288,l),
(240,288,o),
(77,284,o),
(10,271,c),
(4,254,o),
(1,222,o),
(0,198,c),
(10,190,l)
);
},
{
closed = 1;
nodes = (
(402,432,o),
(481,448,o),
(507,471,c),
(499,498,l),
(476,488,o),
(422,483,o),
(384,483,cs),
(330,483,o),
(276,496,o),
(244,538,cs),
(217,573,o),
(218,631,o),
(214,659,c),
(181,642,l),
(179,633,o),
(176,612,o),
(176,591,cs),
(176,562,o),
(182,532,o),
(196,505,cs),
(221,455,o),
(290,432,o),
(351,432,cs)
);
},
{
pos = (556,17);
ref = sinVirama;
}
);
width = 673;
}
);
unicode = 3474;
}
{
glyphname = sinO;
layers = (
{
layerId = "51BB9282-3B82-4DF1-A67A-294D3E37D73A";
shapes = (
{
closed = 1;
nodes = (
(587,-15,o),
(648,136,o),
(648,287,cs),
(648,470,o),
(565,641,o),
(305,641,cs),
(216,641,o),
(136,619,o),
(88,582,c),
(80,568,o),
(82,527,o),
(90,519,c),
(134,547,o),
(211,571,o),
(308,571,cs),
(505,571,o),
(604,482,o),
(604,304,cs),
(604,193,o),
(558,75,o),
(442,75,cs),
(388,75,o),
(345,107,o),
(345,156,cs),
(345,161,o),
(345,166,o),
(346,172,c),
(325,166,l),
(311,109,o),
(275,73,o),
(211,73,cs),
(116,73,o),
(67,134,o),
(67,223,cs),
(67,318,o),
(142,350,o),
(170,353,c),
(161,382,l),
(161,379,o),
(148,185,o),
(343,185,cs),
(445,185,o),
(496,250,o),
(496,337,cs),
(496,419,o),
(436,486,o),
(362,486,cs),
(285,486,o),
(256,433,o),
(256,384,cs),
(256,334,o),
(291,300,o),
(340,300,cs),
(391,300,o),
(430,336,o),
(430,393,cs),
(430,408,o),
(428,424,o),
(422,442,c),
(407,445,l),
(403,362,o),
(364,350,o),
(339,350,cs),
(319,350,o),
(297,358,o),
(297,381,cs),
(297,406,o),
(323,433,o),
(371,433,cs),
(423,433,o),
(462,403,o),
(462,352,cs),
(462,281,o),
(415,250,o),
(347,250,cs),
(227,250,o),
(193,337,o),
(193,385,cs),
(193,392,o),
(193,400,o),
(195,406,c),
(188,414,o),
(179,422,o),
(172,425,c),
(107,413,o),
(28,341,o),
(28,208,cs),
(28,107,o),
(82,-14,o),
(210,-14,cs),
(292,-14,o),
(326,42,o),
(335,82,cs),
(335,83,o),
(325,82,o),
(326,83,c),
(325,41,o),
(367,-15,o),
(452,-15,cs)
);
}
);
width = 643;
}
);
unicode = 3476;
}
{
glyphname = sinOo;
layers = (
{
layerId = "51BB9282-3B82-4DF1-A67A-294D3E37D73A";
shapes = (
{
closed = 1;
nodes = (
(576,-14,o),
(637,137,o),
(637,288,cs),
(637,493,o),
(468,607,o),
(293,607,cs),
(229,607,o),
(168,597,o),
(131,572,c),
(123,552,o),
(121,530,o),
(120,503,c),
(122,503,o),
(199,548,o),
(293,548,cs),
(404,548,o),
(591,495,o),
(591,301,cs),
(591,190,o),
(547,72,o),
(441,72,cs),
(388,72,o),
(344,108,o),
(344,157,cs),
(344,162,o),
(344,167,o),
(345,173,c),
(325,167,l),
(310,110,o),
(274,73,o),
(203,73,cs),
(120,73,o),
(80,145,o),
(80,214,cs),
(80,305,o),
(141,351,o),
(170,354,c),
(160,383,l),
(160,380,o),
(165,186,o),
(342,186,cs),
(441,186,o),
(499,251,o),
(499,338,cs),
(499,420,o),
(434,487,o),
(359,487,cs),
(282,487,o),
(254,434,o),
(254,385,cs),
(254,335,o),
(288,301,o),
(337,301,cs),
(389,301,o),
(428,337,o),
(428,394,cs),
(428,409,o),
(426,425,o),
(419,443,c),
(405,446,l),
(401,363,o),
(361,351,o),
(336,351,cs),
(317,351,o),
(294,359,o),
(294,382,cs),
(294,407,o),
(321,434,o),
(368,434,cs),
(420,434,o),
(460,404,o),
(460,355,cs),
(460,282,o),
(411,247,o),
(340,247,cs),
(226,247,o),
(192,337,o),
(192,385,cs),
(192,393,o),
(192,401,o),
(194,407,c),
(188,416,o),
(179,424,o),
(172,426,c),
(106,416,o),
(38,327,o),
(38,205,cs),
(38,115,o),
(82,-13,o),
(203,-13,cs),
(291,-13,o),
(316,43,o),
(335,83,c),
(326,81,l),
(326,36,o),
(366,-14,o),
(451,-14,cs)
);
},
{
closed = 1;
nodes = (
(622,485,o),
(564,720,o),
(292,720,cs),
(198,720,o),
(143,681,o),
(143,681,c),
(130,656,o),
(125,630,o),
(124,618,c),
(147,635,o),
(158,639,o),
(186,649,c),
(209,680,l),
(194,670,o),
(148,632,o),
(127,562,c),
(156,557,l),
(175,607,o),
(230,663,o),
(265,668,c),
(242,669,o),
(218,670,o),
(191,649,c),
(191,649,o),
(206,659,o),
(270,659,cs),
(564,659,o),
(584,450,o),
(583,400,c),
(622,336,l)
);
}
);
width = 653;
}
);
unicode = 3477;
}
{
glyphname = sinKa;
layers = (
{
anchors = (
{
name = Virama;
pos = (734,420);
},
{
name = bottom;
pos = (842,250);
},
{
name = reph;
pos = (487,479);
},
{
name = top;
pos = (357,355);
}
);
layerId = "51BB9282-3B82-4DF1-A67A-294D3E37D73A";
shapes = (
{
closed = 1;
nodes = (
(289,-6,o),
(326,22,o),
(341,65,c),
(354,19,o),
(391,-6,o),
(437,-6,cs),
(532,-6,o),
(573,97,o),
(573,181,cs),
(573,266,o),
(526,333,o),
(438,333,cs),
(357,333,o),
(250,263,o),
(215,224,c),
(248,249,l),
(250,257,o),
(282,282,o),
(313,306,cs),
(380,357,o),
(468,394,o),
(570,394,cs),
(700,394,o),
(808,326,o),
(808,223,cs),
(808,159,o),
(758,73,o),
(651,73,cs),
(632,73,o),
(605,76,o),
(591,79,c),
(578,74,l),
(582,44,o),
(603,9,o),
(623,-6,c),
(768,3,o),
(849,107,o),
(849,230,cs),
(849,399,o),
(726,475,o),
(604,475,cs),
(483,475,o),
(392,414,o),
(287,327,cs),
(158,221,o),
(52,124,o),
(41,111,c),
(37,89,o),
(61,72,o),
(66,71,c),
(71,84,o),
(80,98,o),
(96,115,cs),
(127,150,o),
(178,184,o),
(212,206,cs),
(266,240,o),
(341,263,o),
(405,263,cs),
(482,263,o),
(540,229,o),
(540,168,cs),
(540,109,o),
(495,71,o),
(456,71,cs),
(388,71,o),
(363,125,o),
(363,175,cs),
(363,181,o),
(363,186,o),
(364,191,c),
(344,187,l),
(330,121,o),
(292,70,o),
(242,70,cs),
(177,70,o),
(167,134,o),
(122,134,cs),
(115,134,o),
(108,133,o),
(99,130,c),
(77,100,l),
(83,105,o),
(89,108,o),
(97,108,cs),
(109,108,o),
(124,101,o),
(129,90,cs),
(155,36,o),
(182,-6,o),
(244,-6,cs)
);
},
{
closed = 1;
nodes = (
(156,290,o),
(173,292,o),
(185,298,c),
(175,312,o),
(166,323,o),
(166,351,cs),
(166,401,o),
(195,434,o),
(236,434,cs),
(269,434,o),
(285,414,o),
(285,379,cs),
(285,349,o),
(273,320,o),
(257,302,c),
(281,311,l),
(297,327,o),
(335,371,o),
(335,414,cs),
(335,454,o),
(296,469,o),
(253,469,cs),
(169,469,o),
(93,411,o),
(93,339,cs),
(93,307,o),
(108,290,o),
(143,290,cs)
);
}
);
userData = {
com.typemytype.robofont.layerData = {
"Regular Oct 26 16, 18:32" = {
anchors = (
);
components = (
);
contours = (
{
points = (
{
segmentType = curve;
smooth = 0;
x = 35;
y = 125;
},
{
smooth = 0;
x = 59;
y = 149;
},
{
smooth = 0;
x = 135;
y = 250;
},
{
segmentType = curve;
smooth = 1;
x = 322;
y = 408;
},
{
smooth = 0;
x = 455;
y = 521;
},
{
smooth = 0;
x = 556;
y = 582;
},
{
segmentType = curve;
smooth = 1;
x = 706;
y = 582;
},
{
smooth = 0;
x = 862;
y = 582;
},
{
smooth = 0;
x = 1022;
y = 494;
},
{
segmentType = curve;
smooth = 1;
x = 1022;
y = 291;
},
{
smooth = 0;
x = 1022;
y = 135;
},
{
smooth = 0;
x = 940;
y = -8;
},
{
segmentType = curve;
smooth = 0;
x = 765.009;
y = -8;
},
{
smooth = 0;
x = 739.934;
y = 10.555;
},
{
smooth = 0;
x = 729;
y = 34;
},
{
segmentType = curve;
smooth = 0;
x = 731;
y = 72;
},
{
segmentType = line;
smooth = 0;
x = 747;
y = 79;
},
{
smooth = 0;
x = 766;
y = 74;
},
{
smooth = 0;
x = 792;
y = 68;
},
{
segmentType = curve;
smooth = 1;
x = 821;
y = 69;
},
{
smooth = 0;
x = 919;
y = 72;
},
{
smooth = 0;
x = 971;
y = 175;
},
{
segmentType = curve;
smooth = 1;
x = 971;
y = 278;
},
{
smooth = 0;
x = 971;
y = 419;
},
{
smooth = 0;
x = 835;
y = 515;
},
{
segmentType = curve;
smooth = 1;
x = 678;
y = 515;
},
{
smooth = 0;
x = 549;
y = 515;
},
{
smooth = 0;
x = 429;
y = 441;
},
{
segmentType = curve;
smooth = 1;
x = 354;
y = 380;
},
{
smooth = 0;
x = 337;
y = 366;
},
{
smooth = 0;
x = 261;
y = 303;
},
{
segmentType = curve;
smooth = 0;
x = 285;
y = 310;
},
{
segmentType = line;
smooth = 0;
x = 266;
y = 298;
},
{
smooth = 0;
x = 312;
y = 348;
},
{
smooth = 0;
x = 407;
y = 414;
},
{
segmentType = curve;
smooth = 1;
x = 502;
y = 414;
},
{
smooth = 0;
x = 613;
y = 414;
},
{
smooth = 0;
x = 683;
y = 325;
},
{
segmentType = curve;
smooth = 1;
x = 678;
y = 204;
},
{
smooth = 0;
x = 674;
y = 110;
},
{
smooth = 0;
x = 621;
y = -8;
},
{
segmentType = curve;
smooth = 1;
x = 509;
y = -8;
},
{
smooth = 0;
x = 451;
y = -8;
},
{
smooth = 0;
x = 405;
y = 23;
},
{
segmentType = curve;
smooth = 0;
x = 388.62;
y = 80;
},
{
smooth = 0;
x = 369;
y = 26;
},
{
smooth = 0;
x = 322;
y = -10;
},
{
segmentType = curve;
smooth = 1;
x = 262.009;
y = -8;
},
{
smooth = 0;
x = 192;
y = -6;
},
{
smooth = 0;
x = 178;
y = 49;
},
{
segmentType = curve;
smooth = 1;
x = 143;
y = 102;
},
{
smooth = 0;
x = 130;
y = 122;
},
{
smooth = 0;
x = 97;
y = 134;
},
{
segmentType = curve;
smooth = 0;
x = 79;
y = 115;
},
{
segmentType = line;
smooth = 0;
x = 104;
y = 152;
},
{
smooth = 0;
x = 186;
y = 176;
},
{
smooth = 0;
x = 164;
y = 70;
},
{
segmentType = curve;
smooth = 1;
x = 272;
y = 70;
},
{
smooth = 0;
x = 335;
y = 70;
},
{
smooth = 0;
x = 385;
y = 150;
},
{
segmentType = curve;
smooth = 0;
x = 383;
y = 232;
},
{
segmentType = line;
smooth = 0;
x = 418;
y = 232;
},
{
smooth = 0;
x = 420;
y = 116;
},
{
smooth = 0;
x = 447;
y = 64;
},
{
segmentType = curve;
smooth = 1;
x = 519;
y = 63;
},
{
smooth = 0;
x = 582;
y = 62;
},
{
smooth = 0;
x = 625;
y = 127;
},
{
segmentType = curve;
smooth = 1;
x = 626;
y = 205;
},
{
smooth = 0;
x = 627;
y = 288;
},
{
smooth = 0;
x = 563;
y = 347;
},
{
segmentType = curve;
smooth = 1;
x = 469;
y = 347;
},
{
smooth = 0;
x = 389;
y = 347;
},
{
smooth = 0;
x = 296;
y = 299;
},
{
segmentType = curve;
smooth = 1;
x = 228;
y = 256;
},
{
smooth = 0;
x = 178;
y = 225;
},
{
smooth = 0;
x = 72;
y = 125;
},
{
segmentType = curve;
smooth = 0;
x = 64;
y = 79;
},
{
smooth = 0;
x = 58;
y = 81;
},
{
smooth = 0;
x = 31;
y = 98;
}
);
},
{
points = (
{
segmentType = curve;
smooth = 1;
x = 80;
y = 428;
},
{
smooth = 0;
x = 84;
y = 517;
},
{
smooth = 0;
x = 158;
y = 584;
},
{
segmentType = curve;
smooth = 1;
x = 260;
y = 584;
},
{
smooth = 0;
x = 315;
y = 584;
},
{
smooth = 0;
x = 364;
y = 544;
},
{
segmentType = curve;
smooth = 1;
x = 362;
y = 491;
},
{
smooth = 0;
x = 360;
y = 440;
},
{
smooth = 0;
x = 335;
y = 408;
},
{
segmentType = curve;
smooth = 0;
x = 313.71;
y = 387;
},
{
segmentType = line;
smooth = 0;
x = 287.133;
y = 376;
},
{
smooth = 0;
x = 305;
y = 402;
},
{
smooth = 0;
x = 318;
y = 417;
},
{
segmentType = curve;
smooth = 1;
x = 320;
y = 454;
},
{
smooth = 0;
x = 322;
y = 501;
},
{
smooth = 0;
x = 302;
y = 538;
},
{
segmentType = curve;
smooth = 1;
x = 256;
y = 538;
},
{
smooth = 0;
x = 212;
y = 538;
},
{
smooth = 0;
x = 154;
y = 505;
},
{
segmentType = curve;
smooth = 1;
x = 151;
y = 442;
},
{
smooth = 0;
x = 149;
y = 407;
},
{
smooth = 0;
x = 161;
y = 389;
},
{
segmentType = curve;
smooth = 0;
x = 175;
y = 372;
},
{
smooth = 0;
x = 159;
y = 364;
},
{
smooth = 0;
x = 138;
y = 361;
},
{
segmentType = curve;
smooth = 1;
x = 122;
y = 361;
},
{
smooth = 0;
x = 98;
y = 361;
},
{
smooth = 0;
x = 78;
y = 385;
}
);
}
);
lib = {
};
name = sinKa;
unicodes = (
);
width = 1056;
};
};
};
width = 899;
}
);
unicode = 3482;
}
{
glyphname = sinKha;
layers = (
{
anchors = (
{
name = bottom;
pos = (638,237);
},
{
name = reph;
pos = (317,629);
}
);
layerId = "51BB9282-3B82-4DF1-A67A-294D3E37D73A";
shapes = (
{
closed = 1;
nodes = (
(574,-8,o),
(642,105,o),
(642,273,cs),
(642,495,o),
(531,626,o),
(317,626,cs),
(197,626,o),
(104,590,o),
(69,563,c),
(60,547,o),
(57,523,o),
(57,507,cs),
(57,496,o),
(59,487,o),
(60,483,c),
(63,484,o),
(153,552,o),
(307,552,cs),
(463,552,o),
(596,498,o),
(596,293,cs),
(596,172,o),
(539,60,o),
(464,60,cs),
(410,60,o),
(385,81,o),
(375,96,c),
(352,67,l),
(367,39,o),
(389,-8,o),
(466,-8,cs)
);
},
{
closed = 1;
nodes = (
(365,-8,o),
(440,126,o),
(440,230,cs),
(440,315,o),
(380,407,o),
(259,407,cs),
(121,407,o),
(24,306,o),
(24,167,cs),
(24,83,o),
(59,-13,o),
(160,-13,cs),
(230,-13,o),
(267,34,o),
(267,94,cs),
(267,150,o),
(230,182,o),
(180,182,cs),
(139,182,o),
(106,145,o),
(106,104,cs),
(106,79,o),
(116,60,o),
(126,43,c),
(163,25,l),
(147,41,o),
(144,53,o),
(144,67,cs),
(144,115,o),
(175,126,o),
(195,126,cs),
(215,126,o),
(236,113,o),
(236,90,cs),
(236,55,o),
(196,41,o),
(168,41,cs),
(127,41,o),
(63,83,o),
(63,186,cs),
(63,280,o),
(140,329,o),
(233,329,cs),
(316,329,o),
(392,292,o),
(392,201,cs),
(392,132,o),
(338,45,o),
(293,-13,c),
(303,-29,o),
(325,-43,o),
(337,-44,c)
);
}
);
width = 682;
}
);
unicode = 3483;
}
{
glyphname = sinGa;
layers = (
{
anchors = (
{
name = bottom;
pos = (738,272);
},
{
name = reph;
pos = (367,479);
}
);
layerId = "51BB9282-3B82-4DF1-A67A-294D3E37D73A";
shapes = (
{
closed = 1;
nodes = (
(663,-3,o),
(741,123,o),
(741,259,cs),
(741,387,o),
(653,473,o),
(540,473,cs),
(393,473,o),
(303,348,o),
(298,178,c),
(303,176,o),
(308,176,o),
(313,176,cs),
(321,176,o),
(328,176,o),
(336,178,c),
(334,185,o),
(333,199,o),
(333,206,cs),
(333,318,o),
(397,382,o),
(517,382,cs),
(598,382,o),
(697,338,o),
(698,236,cs),
(698,138,o),
(636,79,o),
(533,79,cs),
(516,79,o),
(493,81,o),
(476,86,c),
(466,79,l),
(466,62,o),
(486,12,o),
(506,-6,c)
);
},
{
closed = 1;
nodes = (
(386,-9,o),
(456,83,o),
(456,181,cs),
(456,258,o),
(403,315,o),
(335,314,c),
(331,260,l),
(362,259,o),
(420,240,o),
(420,188,cs),
(420,118,o),
(332,84,o),
(261,84,cs),
(160,84,o),
(82,136,o),
(82,224,cs),
(82,310,o),
(146,371,o),
(260,371,c),
(265,379,o),
(270,426,o),
(270,451,cs),
(270,457,o),
(270,463,o),
(269,466,c),
(159,465,o),
(44,372,o),
(44,203,cs),
(44,74,o),
(127,-9,o),
(257,-9,cs)
);
}
);
width = 781;
}
);
unicode = 3484;
}
{
glyphname = sinGha;
layers = (
{
anchors = (
{
name = bottom;
pos = (671,172);
},
{
name = reph;
pos = (377,479);
},
{
name = top;
pos = (249,440);
}
);
layerId = "51BB9282-3B82-4DF1-A67A-294D3E37D73A";
shapes = (
{
closed = 1;
nodes = (
(612,-19,o),
(680,53,o),
(680,169,cs),
(680,268,o),
(610,332,o),
(516,332,cs),
(465,332,o),
(450,323,o),
(418,311,c),
(475,298,l),
(468,306,o),
(454,330,o),
(454,353,cs),
(454,411,o),
(486,439,o),
(530,439,cs),
(570,439,o),
(608,413,o),
(608,369,cs),
(608,340,o),
(585,304,o),
(581,298,c),
(599,292,l),
(629,306,o),
(667,343,o),
(667,387,cs),
(667,441,o),
(630,486,o),
(555,486,cs),
(450,486,o),
(392,394,o),
(394,267,c),
(405,258,l),
(439,270,o),
(480,271,o),
(514,271,cs),
(573,271,o),
(643,252,o),
(643,183,cs),
(643,108,o),
(580,62,o),
(515,62,cs),
(447,62,o),
(429,97,o),
(429,126,cs),
(429,142,o),
(432,159,o),
(435,174,c),
(420,180,o),
(402,184,o),
(383,184,cs),
(358,184,o),
(332,178,o),
(314,166,c),
(315,119,o),
(284,65,o),
(204,65,cs),
(145,65,o),
(111,97,o),
(111,143,cs),
(111,202,o),
(159,263,o),
(272,263,cs),
(292,263,o),
(312,262,o),
(336,258,c),
(349,269,l),
(355,287,o),
(358,308,o),
(358,331,cs),
(358,406,o),
(321,487,o),
(228,487,cs),
(162,487,o),
(113,446,o),
(113,403,cs),
(113,369,o),
(146,351,o),
(170,350,c),
(179,389,o),
(204,430,o),
(249,430,cs),
(288,430,o),
(312,407,o),
(312,365,cs),
(312,341,o),
(302,328,o),
(295,317,c),
(222,315,l),
(219,314,o),
(221,319,o),
(219,318,cs),
(143,289,o),
(75,219,o),
(75,131,cs),
(75,46,o),
(121,-17,o),
(207,-17,cs),
(336,-17,o),
(343,112,o),
(344,121,c),
(346,122,o),
(357,126,o),
(373,126,cs),
(376,126,o),
(389,125,o),
(393,122,c),
(389,107,o),
(388,95,o),
(388,78,cs),
(388,39,o),
(421,-19,o),
(515,-19,cs)
);
},
{
closed = 1;
nodes = (
(57,258,o),
(158,299,o),
(286,299,cs),
(315,299,l),
(329,322,l),
(302,322,ls),
(213,322,o),
(81,319,o),
(22,308,c),
(7,239,l),
(16,232,l)
);
}
);
width = 720;
}
);
metricRight = sinSa;
unicode = 3485;
}
{
glyphname = sinNga;
layers = (
{
anchors = (
{
name = bottom;
pos = (621,182);
},
{
name = reph;
pos = (337,599);
}
);
layerId = "51BB9282-3B82-4DF1-A67A-294D3E37D73A";
shapes = (
{
closed = 1;
nodes = (
(591,-19,o),
(636,133,o),
(636,267,cs),
(636,463,o),
(543,628,o),
(281,628,cs),
(219,628,o),
(140,611,o),
(99,586,c),
(91,569,o),
(88,531,o),
(89,513,c),
(128,537,o),
(190,557,o),
(281,557,cs),
(467,557,o),
(589,479,o),
(589,287,cs),
(589,191,o),
(554,66,o),
(453,66,cs),
(400,66,o),
(359,101,o),
(359,153,cs),
(359,162,o),
(360,168,o),
(361,175,c),
(340,170,l),
(324,111,o),
(286,67,o),
(208,67,cs),
(148,67,o),
(85,87,o),
(85,155,cs),
(85,224,o),
(154,248,o),
(235,248,cs),
(276,248,o),
(337,247,o),
(359,237,c),
(374,249,l),
(380,274,o),
(382,281,o),
(382,308,cs),
(382,404,o),
(297,441,o),
(233,441,cs),
(124,441,o),
(67,386,o),
(67,320,cs),
(67,289,o),
(80,248,o),
(139,248,cs),
(180,248,o),
(219,283,o),
(219,342,cs),
(219,355,o),
(212,382,o),
(200,393,c),
(172,393,l),
(188,310,o),
(156,292,o),
(134,292,cs),
(111,292,o),
(101,308,o),
(101,325,cs),
(101,366,o),
(144,387,o),
(220,387,cs),
(275,387,o),
(344,368,o),
(344,309,cs),
(344,279,o),
(327,277,o),
(306,258,c),
(347,271,l),
(318,285,o),
(274,295,o),
(237,295,cs),
(140,295,o),
(40,258,o),
(40,134,cs),
(40,45,o),
(110,-15,o),
(188,-15,cs),
(296,-15,o),
(340,52,o),
(343,98,c),
(345,100,o),
(338,95,o),
(339,97,c),
(338,90,o),
(338,84,o),
(338,79,cs),
(338,32,o),
(374,-19,o),
(457,-19,cs)
);
}
);
width = 676;
}
);
unicode = 3486;
}
{
glyphname = sinNnga;
layers = (
{
anchors = (
{
name = reph;
pos = (467,479);
},
{
name = top;
pos = (599,471);
}
);
layerId = "51BB9282-3B82-4DF1-A67A-294D3E37D73A";
shapes = (
{
closed = 1;
nodes = (
(124,-8,o),
(136,-4,o),
(140,-1,c),
(124,27,o),
(93,114,o),
(93,193,cs),
(93,322,o),
(157,424,o),
(264,424,c),
(374,466,l),
(359,469,o),
(351,472,o),
(305,472,cs),
(167,472,o),
(35,382,o),
(35,205,cs),
(35,125,o),
(78,24,o),
(105,-8,c)
);
},
{
pos = (100,0);
ref = sinGa;
}
);
width = 881;
}
);
metricRight = sinGa;
unicode = 3487;
}
{
glyphname = sinCa;
layers = (
{
anchors = (
{
name = bottom;
pos = (634,262);
},
{
name = reph;
pos = (327,619);
}
);
layerId = "51BB9282-3B82-4DF1-A67A-294D3E37D73A";
shapes = (
{
closed = 1;
nodes = (
(544,-23,o),
(642,137,o),
(642,296,cs),
(642,513,o),
(515,628,o),
(311,628,cs),
(236,628,o),
(160,604,o),
(112,570,c),
(104,553,o),
(103,525,o),
(103,517,cs),
(103,509,o),
(104,500,o),
(105,497,c),
(162,527,o),
(222,553,o),
(304,553,cs),
(448,553,o),
(599,493,o),
(599,297,cs),
(599,187,o),
(544,69,o),
(347,69,cs),
(240,69,o),
(142,96,o),
(142,169,cs),
(142,231,o),
(210,258,o),
(287,258,cs),
(308,258,o),
(328,256,o),
(349,253,c),
(366,265,l),
(368,277,o),
(370,290,o),
(370,304,cs),
(370,376,o),
(321,459,o),
(224,459,cs),
(163,459,o),
(126,425,o),
(126,387,cs),
(126,361,o),
(144,344,o),
(175,344,cs),
(179,344,o),
(182,344,o),
(186,345,c),
(187,353,o),
(207,400,o),
(257,400,cs),
(297,400,o),
(332,372,o),
(330,319,c),
(324,317,o),
(313,317,o),
(307,317,cs),
(292,317,o),
(98,293,o),
(98,143,cs),
(98,36,o),
(205,-23,o),
(347,-23,cs)
);
},
{
closed = 1;
nodes = (
(80,251,o),
(181,297,o),
(325,304,c),
(331,320,l),
(241,320,o),
(103,313,o),
(39,300,c),
(32,285,o),
(26,256,o),
(26,232,c),
(36,224,l)
);
}
);
userData = {
com.typemytype.robofont.layerData = {
"Jan 19 17, 02:22" = {
anchors = (
{
name = rakaransaya;
x = 822;
y = 393;
}
);
components = (
);
contours = (
{
points = (
{
segmentType = curve;
smooth = 1;
x = 122.757;
y = 178;
},
{
smooth = 0;
x = 130.67;
y = 326.801;
},
{
smooth = 0;
x = 299.59;
y = 351.437;
},
{
segmentType = curve;
smooth = 1;
x = 408.553;
y = 381;
},
{
smooth = 0;
x = 417.23;
y = 381;
},
{
smooth = 0;
x = 430.553;
y = 381;
},
{
segmentType = curve;
smooth = 0;
x = 438.5;
y = 383;
},
{
smooth = 0;
x = 440.959;
y = 449;
},
{
smooth = 0;
x = 396.741;
y = 483;
},
{
segmentType = curve;
smooth = 1;
x = 347.741;
y = 483;
},
{
smooth = 0;
x = 285.741;
y = 483;
},
{
smooth = 0;
x = 260.754;
y = 426;
},
{
segmentType = curve;
smooth = 0;
x = 260.177;
y = 415;
},
{
smooth = 0;
x = 255;
y = 414;
},
{
smooth = 0;
x = 250;
y = 414;
},
{
segmentType = curve;
smooth = 1;
x = 245;
y = 414;
},
{
smooth = 0;
x = 206;
y = 414;
},
{
smooth = 0;
x = 184;
y = 436;
},
{
segmentType = curve;
smooth = 1;
x = 184;
y = 466;
},
{
smooth = 0;
x = 184;
y = 524;
},
{
smooth = 0;
x = 242;
y = 558;
},
{
segmentType = curve;
smooth = 1;
x = 300.671;
y = 558;
},
{
smooth = 0;
x = 431;
y = 558;
},
{
smooth = 0;
x = 488;
y = 454;
},
{
segmentType = curve;
smooth = 1;
x = 488;
y = 364;
},
{
smooth = 0;
x = 488;
y = 347;
},
{
smooth = 0;
x = 486;
y = 331;
},
{
segmentType = curve;
smooth = 0;
x = 482.988;
y = 316;
},
{
segmentType = line;
smooth = 0;
x = 462.15;
y = 300;
},
{
smooth = 0;
x = 437.359;
y = 304;
},
{
smooth = 0;
x = 410.465;
y = 306;
},
{
segmentType = curve;
smooth = 1;
x = 384.465;
y = 306;
},
{
smooth = 0;
x = 275;
y = 306;
},
{
smooth = 0;
x = 172;
y = 274;
},
{
segmentType = curve;
smooth = 1;
x = 172;
y = 198;
},
{
smooth = 0;
x = 172;
y = 138;
},
{
smooth = 0;
x = 286;
y = 96;
},
{
segmentType = curve;
smooth = 1;
x = 427;
y = 96;
},
{
smooth = 0;
x = 644;
y = 96;
},
{
smooth = 0;
x = 759;
y = 216;
},
{
segmentType = curve;
smooth = 1;
x = 770.597;
y = 423;
},
{
smooth = 0;
x = 781;
y = 605;
},
{
smooth = 0;
x = 646.552;
y = 715;
},
{
segmentType = curve;
smooth = 1;
x = 464.899;
y = 715;
},
{
smooth = 0;
x = 327.994;
y = 715;
},
{
smooth = 0;
x = 233.945;
y = 655;
},
{
segmentType = curve;
smooth = 0;
x = 231.755;
y = 655;
},
{
smooth = 0;
x = 231;
y = 658;
},
{
smooth = 0;
x = 230;
y = 662;
},
{
segmentType = curve;
smooth = 1;
x = 230;
y = 667;
},
{
smooth = 0;
x = 230;
y = 692;
},
{
smooth = 0;
x = 243;
y = 738;
},
{
segmentType = curve;
smooth = 0;
x = 252.048;
y = 756;
},
{
smooth = 0;
x = 297.869;
y = 777.808;
},
{
smooth = 0;
x = 370.62;
y = 798;
},
{
segmentType = curve;
smooth = 1;
x = 467.249;
y = 798;
},
{
smooth = 0;
x = 686;
y = 798;
},
{
smooth = 0;
x = 827;
y = 651;
},
{
segmentType = curve;
smooth = 1;
x = 827;
y = 424;
},
{
smooth = 0;
x = 827;
y = 169;
},
{
smooth = 0;
x = 688;
y = -17;
},
{
segmentType = curve;
smooth = 1;
x = 442;
y = -17;
},
{
smooth = 0;
x = 260;
y = -17;
},
{
smooth = 0;
x = 116.258;
y = 54;
}
);
},
{
points = (
{
segmentType = line;
smooth = 0;
x = 34.312;
y = 275;
},
{
segmentType = line;
smooth = 0;
x = 49.767;
y = 360;
},
{
smooth = 0;
x = 130.359;
y = 374.609;
},
{
smooth = 0;
x = 327.429;
y = 385.043;
},
{
segmentType = curve;
smooth = 0;
x = 439.972;
y = 384;
},
{
segmentType = line;
smooth = 0;
x = 433.186;
y = 369;
},
{
smooth = 0;
x = 252.505;
y = 359.913;
},
{
smooth = 0;
x = 100.774;
y = 298.32;
},
{
segmentType = curve;
smooth = 0;
x = 46.787;
y = 265;
}
);
}
);
lib = {
};
name = sinCa;
unicodes = (
);
width = 877;
};
};
};
width = 682;
}
);
unicode = 3488;
}
{
glyphname = sinCha;
layers = (
{
anchors = (
{
name = bottom;
pos = (581,182);
},
{
name = reph;
pos = (157,479);
}
);
layerId = "51BB9282-3B82-4DF1-A67A-294D3E37D73A";
shapes = (
{
closed = 1;
nodes = (
(487,-20,o),
(602,76,o),
(602,199,cs),
(602,287,o),
(544,336,o),
(451,336,cs),
(421,336,o),
(397,331,o),
(373,319,c),
(360,309,l),
(382,314,l),
(382,376,o),
(418,421,o),
(469,421,cs),
(511,421,o),
(552,388,o),
(552,331,cs),
(552,278,o),
(519,210,o),
(453,210,cs),
(377,210,o),
(382,300,o),
(382,332,c),
(370,345,l),
(375,375,o),
(389,429,o),
(409,474,cs),
(463,595,o),
(570,695,o),
(570,695,c),
(566,713,o),
(539,733,o),
(523,737,c),
(523,737,o),
(437,644,o),
(381,511,cs),
(344,424,o),
(335,353,o),
(335,312,cs),
(335,228,o),
(376,163,o),
(447,163,cs),
(541,163,o),
(590,272,o),
(590,350,cs),
(590,423,o),
(548,475,o),
(487,475,cs),
(403,475,o),
(340,375,o),
(340,291,cs),
(340,282,o),
(340,275,o),
(341,268,c),
(357,260,l),
(390,271,o),
(425,284,o),
(467,284,cs),
(518,284,o),
(563,263,o),
(563,209,cs),
(563,133,o),
(473,63,o),
(314,63,cs),
(169,63,o),
(86,122,o),
(86,189,cs),
(86,242,o),
(140,272,o),
(230,272,cs),
(248,272,o),
(271,271,o),
(294,268,c),
(306,279,l),
(310,297,o),
(312,318,o),
(312,339,cs),
(312,405,o),
(286,475,o),
(192,475,cs),
(125,475,o),
(86,440,o),
(86,397,cs),
(86,360,o),
(114,347,o),
(141,345,c),
(149,377,o),
(181,421,o),
(224,421,cs),
(260,421,o),
(275,396,o),
(275,364,cs),
(275,330,o),
(254,308,o),
(243,299,c),
(281,331,l),
(270,332,o),
(258,333,o),
(247,333,cs),
(146,333,o),
(45,278,o),
(45,173,cs),
(45,69,o),
(140,-20,o),
(311,-20,cs)
);
}
);
width = 642;
}
);
metricLeft = sinPa;
unicode = 3489;
}
{
glyphname = sinJa;
layers = (
{
anchors = (
{
name = reph;
pos = (167,479);
}
);
layerId = "51BB9282-3B82-4DF1-A67A-294D3E37D73A";
shapes = (
{
closed = 1;
nodes = (
(459,297,o),
(459,364,o),
(503,456,cs),
(555,567,o),
(657,663,o),
(657,663,c),
(655,679,o),
(626,708,o),
(612,707,c),
(612,707,o),
(521,619,o),
(471,494,cs),
(430,396,o),
(425,317,o),
(425,317,c),
(459,297,l)
);
},
{
ref = sinPa;
}
);
width = 671;
}
);
unicode = 3490;
}
{
glyphname = sinJha;
layers = (
{
anchors = (
{
name = bottom;
pos = (1091,262);
},
{
name = reph;
pos = (677,579);
}
);
layerId = "51BB9282-3B82-4DF1-A67A-294D3E37D73A";
shapes = (
{
closed = 1;
nodes = (
(1019,-18,o),
(1090,123,o),
(1090,268,cs),
(1090,460,o),
(977,606,o),
(773,606,cs),
(698,606,o),
(633,586,o),
(597,564,c),
(581,545,o),
(565,518,o),
(565,501,cs),
(565,493,o),
(566,488,o),
(567,485,c),
(576,485,o),
(637,539,o),
(771,539,cs),
(931,539,o),
(1041,460,o),
(1041,300,cs),
(1041,179,o),
(980,84,o),
(898,83,cs),
(854,82,o),
(807,111,o),
(807,170,cs),
(807,174,o),
(807,179,o),
(808,185,c),
(786,179,l),
(770,119,o),
(734,85,o),
(671,85,cs),
(583,85,o),
(551,152,o),
(555,199,cs),
(563,290,o),
(703,326,o),
(774,326,cs),
(785,326,o),
(794,325,o),
(801,324,c),
(799,353,o),
(798,374,o),
(784,399,c),
(677,404,o),
(511,326,o),
(511,160,cs),
(511,79,o),
(550,-15,o),
(659,-15,cs),
(754,-15,o),
(790,59,o),
(795,107,c),
(798,107,o),
(776,112,o),
(778,114,c),
(777,107,o),
(776,101,o),
(776,92,cs),
(776,45,o),
(813,-18,o),
(895,-18,cs)
);
},
{
closed = 1;
nodes = (
(126,290,o),
(144,293,o),
(156,299,c),
(146,312,o),
(137,324,o),
(137,351,cs),
(137,404,o),
(167,441,o),
(205,441,cs),
(242,441,o),
(258,411,o),
(256,376,cs),
(256,344,o),
(243,320,o),
(228,303,c),
(252,311,l),
(268,329,o),
(306,372,o),
(306,414,cs),
(306,454,o),
(267,470,o),
(225,470,cs),
(141,470,o),
(64,413,o),
(64,339,cs),
(64,307,o),
(80,290,o),
(114,290,cs)
);
},
{
closed = 1;
nodes = (
(260,-6,o),
(297,23,o),
(312,65,c),
(325,20,o),
(362,-6,o),
(408,-6,cs),
(503,-6,o),
(544,99,o),
(544,180,cs),
(544,267,o),
(497,334,o),
(413,334,cs),
(328,334,o),
(221,264,o),
(186,225,c),
(219,250,l),
(221,257,o),
(246,278,o),
(284,306,cs),
(356,361,o),
(453,397,o),
(565,397,cs),
(666,397,o),
(747,369,o),
(780,353,c),
(784,399,l),
(744,431,o),
(670,455,o),
(579,455,cs),
(480,455,o),
(384,428,o),
(258,329,cs),
(167,257,o),
(31,121,o),
(12,101,c),
(8,79,o),
(29,65,o),
(35,64,c),
(41,101,o),
(143,181,o),
(183,206,cs),
(237,240,o),
(312,264,o),
(376,264,cs),
(452,264,o),
(511,231,o),
(511,169,cs),
(511,106,o),
(453,83,o),
(412,83,cs),
(362,83,o),
(334,120,o),
(334,182,cs),
(334,186,o),
(334,184,o),
(335,192,c),
(315,188,l),
(301,122,o),
(253,81,o),
(202,81,cs),
(148,81,o),
(136,127,o),
(91,127,cs),
(84,127,o),
(77,126,o),
(68,123,c),
(46,93,l),
(52,99,o),
(58,101,o),
(65,101,cs),
(78,101,o),
(91,93,o),
(98,83,cs),
(128,40,o),
(155,-6,o),
(216,-6,cs)
);
}
);
width = 1130;
}
);
metricRight = sinDha;
unicode = 3491;
}
{
glyphname = sinNya;
layers = (
{
anchors = (
{
name = MatraI;
pos = (472,365);
},
{
name = reph;
pos = (657,479);
},
{
name = top;
pos = (799,481);
}
);
layerId = "51BB9282-3B82-4DF1-A67A-294D3E37D73A";
shapes = (
{
closed = 1;
nodes = (
(404,4,o),
(440,33,o),
(456,75,c),
(469,29,o),
(505,4,o),
(552,4,cs),
(647,4,o),
(688,108,o),
(688,191,cs),
(688,276,o),
(640,343,o),
(553,343,cs),
(472,343,o),
(364,273,o),
(330,234,c),
(362,260,l),
(364,267,o),
(397,292,o),
(428,316,cs),
(494,367,o),
(621,410,o),
(695,417,cs),
(755,423,o),
(780,433,o),
(812,423,c),
(866,492,l),
(831,492,o),
(810,492,o),
(771,490,cs),
(629,482,o),
(506,423,o),
(402,338,cs),
(272,231,o),
(167,133,o),
(156,121,c),
(151,99,o),
(176,82,o),
(181,81,c),
(186,95,o),
(194,109,o),
(210,125,cs),
(242,160,o),
(292,194,o),
(327,216,cs),
(381,251,o),
(456,273,o),
(519,273,cs),
(596,273,o),
(654,239,o),
(654,179,cs),
(654,119,o),
(611,81,o),
(570,81,cs),
(502,81,o),
(478,134,o),
(478,186,cs),
(478,191,o),
(478,196,o),
(479,201,c),
(459,197,l),
(444,131,o),
(407,80,o),
(356,80,cs),
(291,80,o),
(282,144,o),
(237,144,cs),
(230,144,o),
(222,143,o),
(213,139,c),
(192,111,l),
(197,116,o),
(203,118,o),
(211,118,cs),
(223,118,o),
(239,112,o),
(245,100,cs),
(269,46,o),
(296,4,o),
(358,4,cs)
);
},
{
closed = 1;
nodes = (
(130,0,o),
(142,4,o),
(146,7,c),
(130,35,o),
(106,108,o),
(106,178,cs),
(106,302,o),
(187,437,o),
(295,427,c),
(381,479,l),
(366,481,o),
(351,482,o),
(336,482,cs),
(194,482,o),
(42,376,o),
(42,203,cs),
(42,113,o),
(84,33,o),
(111,0,c)
);
},
{
closed = 1;
nodes = (
(270,300,o),
(287,302,o),
(299,308,c),
(289,323,o),
(281,334,o),
(281,361,cs),
(281,412,o),
(310,444,o),
(350,444,cs),
(384,444,o),
(400,423,o),
(400,388,cs),
(400,358,o),
(389,331,o),
(371,312,c),
(396,321,l),
(412,338,o),
(449,381,o),
(449,423,cs),
(449,463,o),
(411,480,o),
(367,480,cs),
(283,480,o),
(208,421,o),
(208,349,cs),
(208,317,o),
(222,300,o),
(258,300,cs)
);
},
{
pos = (611,0);
ref = sinDa;
}
);
width = 1094;
}
);
metricRight = sinDa;
unicode = 3492;
}
{
glyphname = sinJnya;
layers = (
{
anchors = (
{
name = reph;
pos = (567,479);
},
{
name = top;
pos = (659,481);
}
);
layerId = "51BB9282-3B82-4DF1-A67A-294D3E37D73A";
shapes = (
{
closed = 1;
nodes = (
(490,1,o),
(560,93,o),
(560,191,cs),
(560,268,o),
(507,326,o),
(439,325,c),
(435,270,l),
(467,269,o),
(525,251,o),
(525,198,cs),
(525,128,o),
(436,94,o),
(365,94,cs),
(264,94,o),
(186,146,o),
(186,234,cs),
(186,320,o),
(251,381,o),
(364,381,c),
(369,388,o),
(375,436,o),
(375,460,cs),
(375,467,o),
(375,474,o),
(374,477,c),
(263,476,o),
(149,382,o),
(149,212,cs),
(149,84,o),
(232,1,o),
(361,1,cs)
);
},
{
closed = 1;
nodes = (
(124,2,o),
(136,6,o),
(140,9,c),
(124,38,o),
(93,124,o),
(93,202,cs),
(93,333,o),
(157,434,o),
(264,434,c),
(374,477,l),
(359,480,o),
(351,483,o),
(305,483,cs),
(167,483,o),
(35,392,o),
(35,215,cs),
(35,134,o),
(78,35,o),
(105,2,c)
);
},
{
pos = (480,0);
ref = sinDa;
},
{
closed = 1;
nodes = (
(425,187,o),
(432,187,o),
(440,188,c),
(438,195,o),
(437,208,o),
(437,216,cs),
(437,329,o),
(511,419,o),
(670,419,c),
(730,492,l),
(479,492,o),
(408,357,o),
(403,188,c),
(408,187,o),
(412,187,o),
(417,187,cs)
);
}
);
width = 963;
}
);
metricLeft = sinNnga;
metricRight = sinDa;
unicode = 3493;
}
{
glyphname = sinNyja;
layers = (
{
anchors = (
{
name = reph;
pos = (267,469);
}
);
layerId = "51BB9282-3B82-4DF1-A67A-294D3E37D73A";
shapes = (
{
closed = 1;
nodes = (
(115,3,o),
(127,7,o),
(131,10,c),
(115,39,o),
(88,115,o),
(88,194,cs),
(88,323,o),
(163,425,o),
(254,425,cs),
(263,425,o),
(264,424,o),
(270,424,c),
(316,480,l),
(307,481,o),
(296,481,o),
(286,481,cs),
(133,481,o),
(30,371,o),
(30,219,cs),
(30,125,o),
(69,36,o),
(96,3,c)
);
},
{
pos = (109,0);
ref = sinJa;
}
);
width = 780;
}
);
metricLeft = sinNda;
metricRight = sinJa;
unicode = 3494;
}
{
glyphname = sinTta;
layers = (
{
anchors = (
{
name = bottom;
pos = (571,232);
},
{
name = reph;
pos = (207,629);
}
);
layerId = "51BB9282-3B82-4DF1-A67A-294D3E37D73A";
shapes = (
{
closed = 1;
nodes = (
(470,-27,o),
(583,113,o),
(583,307,cs),
(583,512,o),
(459,632,o),
(274,632,cs),
(195,632,o),
(113,612,o),
(82,588,c),
(73,569,o),
(69,542,o),
(71,511,c),
(111,528,o),
(168,558,o),
(278,558,cs),
(425,558,o),
(537,485,o),
(537,324,cs),
(537,172,o),
(439,70,o),
(279,70,cs),
(174,70,o),
(88,116,o),
(88,192,cs),
(88,266,o),
(168,296,o),
(250,296,cs),
(270,296,o),
(292,294,o),
(312,290,c),
(322,304,l),
(320,327,o),
(310,349,o),
(295,371,c),
(293,371,o),
(287,372,o),
(282,372,cs),
(142,372,o),
(44,293,o),
(44,176,cs),
(44,65,o),
(130,-27,o),
(282,-27,cs)
);
}
);
userData = {
com.typemytype.robofont.layerData = {
"Jan 26 17, 16:33" = {
anchors = (
{
name = rakaransaya;
x = 719;
y = 343;
}
);
components = (
);
contours = (
{
points = (
{
smooth = 0;
x = 570;
y = -48;
},
{
smooth = 0;
x = 708;
y = 116;
},
{
segmentType = curve;
smooth = 1;
x = 716;
y = 344;
},
{
smooth = 0;
x = 725;
y = 599;
},
{
smooth = 0;
x = 570;
y = 746;
},
{
segmentType = curve;
smooth = 1;
x = 368;
y = 746;
},
{
smooth = 0;
x = 276;
y = 746;
},
{
smooth = 0;
x = 217;
y = 724;
},
{
segmentType = curve;
smooth = 0;
x = 174;
y = 696;
},
{
smooth = 0;
x = 159;
y = 667;
},
{
smooth = 0;
x = 138;
y = 608;
},
{
segmentType = curve;
smooth = 1;
x = 149;
y = 600;
},
{
smooth = 0;
x = 151;
y = 600;
},
{
smooth = 0;
x = 234;
y = 659;
},
{
segmentType = curve;
smooth = 1;
x = 359;
y = 659;
},
{
smooth = 0;
x = 547;
y = 659;
},
{
smooth = 0;
x = 671;
y = 566;
},
{
segmentType = curve;
smooth = 1;
x = 651;
y = 358;
},
{
smooth = 0;
x = 635;
y = 190;
},
{
smooth = 0;
x = 536;
y = 75;
},
{
segmentType = curve;
smooth = 1;
x = 343;
y = 71;
},
{
smooth = 0;
x = 212;
y = 68;
},
{
smooth = 0;
x = 107;
y = 127;
},
{
segmentType = curve;
smooth = 1;
x = 109;
y = 204;
},
{
smooth = 0;
x = 112;
y = 332;
},
{
smooth = 0;
x = 267;
y = 356;
},
{
segmentType = curve;
smooth = 0;
x = 388;
y = 335;
},
{
segmentType = line;
smooth = 0;
x = 400;
y = 353;
},
{
segmentType = line;
smooth = 0;
x = 367;
y = 436;
},
{
smooth = 0;
x = 359;
y = 437;
},
{
smooth = 0;
x = 349;
y = 437;
},
{
segmentType = curve;
smooth = 1;
x = 340;
y = 437;
},
{
smooth = 0;
x = 236;
y = 437;
},
{
smooth = 0;
x = 56;
y = 358;
},
{
segmentType = curve;
smooth = 1;
x = 51;
y = 181;
},
{
smooth = 0;
x = 47;
y = 54;
},
{
smooth = 0;
x = 156;
y = -50;
},
{
segmentType = curve;
smooth = 1;
x = 337;
y = -49;
}
);
}
);
lib = {
};
name = sinTta;
unicodes = (
);
width = 760;
};
};
};
width = 628;
}
);
unicode = 3495;
}
{
glyphname = sinTtha;
layers = (
{
anchors = (
{
name = bottom;
pos = (591,182);
},
{
name = reph;
pos = (57,479);
}
);
layerId = "51BB9282-3B82-4DF1-A67A-294D3E37D73A";
shapes = (
{
closed = 1;
nodes = (
(560,-18,o),
(624,123,o),
(624,265,cs),
(624,533,o),
(394,659,o),
(227,659,c),
(216,587,l),
(384,587,o),
(578,458,o),
(578,270,cs),
(578,165,o),
(518,83,o),
(434,83,cs),
(383,83,o),
(340,113,o),
(340,167,cs),
(340,173,o),
(340,178,o),
(341,185,c),
(321,179,l),
(302,119,o),
(258,81,o),
(193,81,cs),
(133,81,o),
(85,113,o),
(85,176,cs),
(85,253,o),
(160,288,o),
(249,288,cs),
(270,288,o),
(292,286,o),
(315,282,c),
(326,295,l),
(323,320,o),
(308,357,o),
(297,368,c),
(197,372,o),
(44,309,o),
(44,157,cs),
(44,66,o),
(98,-15,o),
(188,-15,cs),
(272,-15,o),
(324,57,o),
(329,107,c),
(330,107,o),
(310,112,o),
(311,114,c),
(312,72,o),
(332,-18,o),
(434,-18,cs)
);
},
{
closed = 1;
nodes = (
(410,431,o),
(477,449,o),
(502,468,c),
(486,494,l),
(466,486,o),
(436,479,o),
(395,479,cs),
(264,479,o),
(237,543,o),
(227,659,c),
(196,641,l),
(193,621,o),
(191,600,o),
(191,581,cs),
(191,494,o),
(236,431,o),
(349,431,cs)
);
}
);
userData = {
com.typemytype.robofont.layerData = {
background = {
anchors = (
);
components = (
);
contours = (
{
points = (
{
smooth = 0;
x = 326;
y = 562;
},
{
smooth = 0;
x = 282;
y = 683;
},
{
segmentType = curve;
smooth = 0;
x = 306;
y = 837;
},
{
segmentType = line;
smooth = 0;
x = 346;
y = 858;
},
{
smooth = 0;
x = 353;
y = 817;
},
{
smooth = 0;
x = 351;
y = 738;
},
{
segmentType = curve;
smooth = 1;
x = 400;
y = 682;
},
{
smooth = 0;
x = 465;
y = 607;
},
{
smooth = 0;
x = 613;
y = 613;
},
{
segmentType = curve;
smooth = 0;
x = 674;
y = 638;
},
{
segmentType = line;
smooth = 0;
x = 685;
y = 611;
},
{
smooth = 0;
x = 653;
y = 584;
},
{
smooth = 0;
x = 578;
y = 562;
},
{
segmentType = curve;
smooth = 1;
x = 504;
y = 562;
}
);
},
{
points = (
{
segmentType = move;
smooth = 0;
x = 700;
y = 395;
},
{
smooth = 0;
x = 698;
y = 597;
},
{
smooth = 0;
x = 536;
y = 764;
},
{
segmentType = curve;
smooth = 0;
x = 331;
y = 764;
},
{
segmentType = line;
smooth = 0;
x = 346;
y = 857;
},
{
smooth = 0;
x = 550;
y = 857;
},
{
smooth = 0;
x = 756;
y = 666;
},
{
segmentType = curve;
smooth = 0;
x = 752;
y = 403;
}
);
}
);
lib = {
};
name = sinTtha;
unicodes = (
);
width = 827;
};
};
};
width = 669;
}
);
unicode = 3496;
}
{
glyphname = sinDda;
layers = (
{
anchors = (
{
name = bottom;
pos = (671,252);
},
{
name = reph;
pos = (347,619);
}
);
layerId = "51BB9282-3B82-4DF1-A67A-294D3E37D73A";
shapes = (
{
closed = 1;
nodes = (
(619,-19,o),
(679,132,o),
(679,270,cs),
(679,464,o),
(560,628,o),
(347,628,cs),
(250,628,o),
(182,605,o),
(140,586,c),
(129,569,o),
(125,533,o),
(127,512,c),
(136,516,o),
(211,557,o),
(343,557,cs),
(487,557,o),
(631,479,o),
(631,297,cs),
(631,191,o),
(581,66,o),
(480,66,cs),
(427,66,o),
(396,101,o),
(396,153,cs),
(396,162,o),
(397,168,o),
(398,175,c),
(377,170,l),
(360,111,o),
(323,67,o),
(250,67,cs),
(180,67,o),
(142,106,o),
(142,165,cs),
(142,238,o),
(191,272,o),
(279,272,cs),
(318,272,o),
(344,266,o),
(360,259,c),
(372,267,l),
(374,276,o),
(374,280,o),
(374,301,cs),
(374,393,o),
(315,463,o),
(229,463,cs),
(172,463,o),
(135,432,o),
(135,395,cs),
(135,369,o),
(154,345,o),
(197,349,c),
(197,368,o),
(216,408,o),
(263,408,cs),
(293,408,o),
(328,392,o),
(328,346,cs),
(328,339,o),
(327,330,o),
(325,320,c),
(309,313,o),
(318,317,o),
(306,315,cs),
(188,309,o),
(93,263,o),
(93,135,cs),
(93,40,o),
(151,-15,o),
(238,-15,cs),
(334,-15,o),
(377,52,o),
(380,98,c),
(382,100,o),
(374,95,o),
(376,97,c),
(374,85,l),
(374,28,o),
(409,-19,o),
(484,-19,cs)
);
},
{
closed = 1;
nodes = (
(89,253,o),
(166,303,o),
(326,310,c),
(361,323,l),
(269,324,o),
(119,314,o),
(52,302,c),
(45,280,o),
(41,258,o),
(40,233,c),
(50,226,l)
);
}
);
width = 724;
}
);
metricRight = sinDda;
unicode = 3497;
}
{
glyphname = sinDdha;
layers = (
{
anchors = (
{
name = bottom;
pos = (651,182);
},
{
name = reph;
pos = (67,479);
}
);
layerId = "51BB9282-3B82-4DF1-A67A-294D3E37D73A";
shapes = (
{
closed = 1;
nodes = (
(619,-19,o),
(672,153,o),
(672,274,cs),
(672,512,o),
(469,658,o),
(302,658,c),
(274,582,l),
(288,584,o),
(284,584,o),
(290,584,cs),
(485,584,o),
(630,447,o),
(630,282,cs),
(630,194,o),
(589,66,o),
(483,66,cs),
(427,66,o),
(396,101,o),
(396,153,cs),
(396,162,o),
(397,168,o),
(398,175,c),
(378,170,l),
(361,111,o),
(322,67,o),
(245,67,cs),
(180,67,o),
(143,97,o),
(143,150,cs),
(143,217,o),
(203,251,o),
(271,251,cs),
(296,251,o),
(318,247,o),
(340,237,c),
(352,246,l),
(354,256,o),
(354,260,o),
(354,280,cs),
(354,372,o),
(295,443,o),
(209,443,cs),
(152,443,o),
(115,412,o),
(115,374,cs),
(115,348,o),
(134,324,o),
(177,329,c),
(177,347,o),
(196,386,o),
(243,386,cs),
(273,386,o),
(308,371,o),
(308,325,cs),
(308,318,o),
(307,308,o),
(305,299,c),
(300,297,o),
(298,297,o),
(286,295,cs),
(205,280,o),
(94,249,o),
(94,128,cs),
(94,41,o),
(153,-15,o),
(239,-15,cs),
(334,-15,o),
(378,52,o),
(381,98,c),
(377,97,l),
(376,85,l),
(376,21,o),
(418,-19,o),
(484,-19,cs)
);
},
{
closed = 1;
nodes = (
(69,232,o),
(177,282,o),
(306,289,c),
(341,302,l),
(249,303,o),
(99,294,o),
(32,281,c),
(25,260,o),
(21,236,o),
(20,212,c),
(30,205,l)
);
},
{
closed = 1;
nodes = (
(498,435,o),
(557,459,o),
(574,472,c),
(565,497,l),
(543,488,o),
(509,482,o),
(471,482,cs),
(331,482,o),
(302,562,o),
(302,658,c),
(270,641,l),
(268,633,o),
(265,611,o),
(265,589,cs),
(265,488,o),
(326,435,o),
(428,435,cs)
);
}
);
width = 717;
}
);
metricRight = "=sinTta";
unicode = 3498;
}
{
glyphname = sinNna;
layers = (
{
anchors = (
{
name = Virama;
pos = (863,388);
},
{
name = bottom;
pos = (911,182);
},
{
name = reph;
pos = (167,479);
}
);
layerId = "51BB9282-3B82-4DF1-A67A-294D3E37D73A";
shapes = (
{
closed = 1;
nodes = (
(507,-11,o),
(550,165,o),
(550,255,cs),
(550,372,o),
(481,486,o),
(331,486,cs),
(215,486,o),
(118,410,o),
(118,288,cs),
(118,194,o),
(203,128,o),
(293,128,cs),
(363,128,o),
(412,170,o),
(412,228,cs),
(412,273,o),
(377,308,o),
(318,308,cs),
(276,308,o),
(254,289,o),
(216,253,c),
(205,216,l),
(232,243,o),
(261,274,o),
(300,274,cs),
(331,274,o),
(351,259,o),
(351,233,cs),
(351,191,o),
(315,171,o),
(284,171,cs),
(248,171,o),
(156,190,o),
(156,289,cs),
(156,379,o),
(220,426,o),
(324,426,cs),
(441,426,o),
(515,338,o),
(515,254,cs),
(515,152,o),
(447,74,o),
(315,74,cs),
(182,74,o),
(147,92,o),
(74,92,cs),
(62,92,o),
(50,90,o),
(35,84,c),
(77,69,l),
(175,199,o),
(470,487,o),
(652,601,c),
(649,621,o),
(625,654,o),
(605,659,c),
(422,500,o),
(180,260,o),
(52,92,c),
(30,90,o),
(10,75,o),
(10,51,cs),
(10,41,o),
(14,33,o),
(16,30,c),
(24,24,o),
(40,25,o),
(51,34,c),
(51,39,o),
(49,51,o),
(74,51,cs),
(155,51,o),
(186,-11,o),
(333,-11,cs)
);
},
{
closed = 1;
nodes = (
(862,-26,o),
(924,111,o),
(924,242,cs),
(924,367,o),
(870,423,o),
(803,423,cs),
(738,423,o),
(693,361,o),
(676,301,c),
(677,292,l),
(680,326,o),
(667,369,o),
(627,369,cs),
(578,369,o),
(541,312,o),
(537,265,c),
(545,200,l),
(557,266,o),
(571,301,o),
(603,301,cs),
(655,301,o),
(656,229,o),
(653,171,c),
(659,170,o),
(675,170,o),
(684,173,c),
(696,271,o),
(725,335,o),
(797,335,cs),
(835,335,o),
(890,311,o),
(890,221,cs),
(890,130,o),
(834,54,o),
(724,54,cs),
(678,54,o),
(638,67,o),
(605,83,c),
(595,77,o),
(585,64,o),
(583,54,c),
(589,23,o),
(633,-26,o),
(720,-26,cs)
);
}
);
userData = {
com.typemytype.robofont.layerData = {
"Regular Oct 20 16, 02:48" = {
anchors = (
);
components = (
);
contours = (
{
points = (
{
segmentType = line;
smooth = 0;
x = 28;
y = 97;
},
{
smooth = 0;
x = 25;
y = 102.963;
},
{
smooth = 0;
x = 18.592;
y = 120.812;
},
{
segmentType = curve;
smooth = 1;
x = 25;
y = 142;
},
{
smooth = 0;
x = 32.234;
y = 165.92;
},
{
smooth = 0;
x = 60.559;
y = 176.889;
},
{
segmentType = curve;
smooth = 0;
x = 87;
y = 183;
},
{
smooth = 0;
x = 258.424;
y = 398.788;
},
{
smooth = 0;
x = 415.657;
y = 637.287;
},
{
segmentType = curve;
smooth = 0;
x = 644.114;
y = 834;
},
{
smooth = 0;
x = 655.424;
y = 828.275;
},
{
smooth = 0;
x = 693.356;
y = 807.518;
},
{
segmentType = curve;
smooth = 0;
x = 692.551;
y = 766;
},
{
smooth = 0;
x = 477.663;
y = 629.514;
},
{
smooth = 0;
x = 271.488;
y = 349.133;
},
{
segmentType = curve;
smooth = 0;
x = 137.643;
y = 182;
},
{
smooth = 0;
x = 253.335;
y = 187.191;
},
{
smooth = 0;
x = 258.601;
y = 95.489;
},
{
segmentType = curve;
smooth = 1;
x = 441.04;
y = 91;
},
{
smooth = 0;
x = 615.771;
y = 86.701;
},
{
smooth = 0;
x = 689.237;
y = 184.328;
},
{
segmentType = curve;
smooth = 1;
x = 698.723;
y = 300;
},
{
smooth = 0;
x = 707.12;
y = 402.947;
},
{
smooth = 0;
x = 610.03;
y = 489;
},
{
segmentType = curve;
smooth = 1;
x = 496.89;
y = 489;
},
{
smooth = 0;
x = 382.726;
y = 489;
},
{
smooth = 0;
x = 340.663;
y = 410.417;
},
{
segmentType = curve;
smooth = 1;
x = 338.988;
y = 346;
},
{
smooth = 0;
x = 334.993;
y = 220.082;
},
{
smooth = 0;
x = 414.476;
y = 206;
},
{
segmentType = curve;
smooth = 1;
x = 440;
y = 206;
},
{
smooth = 0;
x = 469.212;
y = 206;
},
{
smooth = 0;
x = 500.479;
y = 221.47;
},
{
segmentType = curve;
smooth = 1;
x = 502.988;
y = 256;
},
{
smooth = 0;
x = 506;
y = 297;
},
{
smooth = 0;
x = 471;
y = 337;
},
{
segmentType = curve;
smooth = 1;
x = 420;
y = 340;
},
{
smooth = 0;
x = 381;
y = 342;
},
{
smooth = 0;
x = 346;
y = 329;
},
{
segmentType = curve;
smooth = 0;
x = 311.403;
y = 293;
},
{
segmentType = line;
smooth = 1;
x = 321.496;
y = 352;
},
{
smooth = 0;
x = 369.448;
y = 398.244;
},
{
smooth = 0;
x = 411.263;
y = 409.109;
},
{
segmentType = curve;
smooth = 1;
x = 450.432;
y = 408.938;
},
{
smooth = 0;
x = 539.853;
y = 408.546;
},
{
smooth = 0;
x = 588.079;
y = 348.131;
},
{
segmentType = curve;
smooth = 1;
x = 584.465;
y = 279;
},
{
smooth = 0;
x = 580.692;
y = 206.85;
},
{
smooth = 0;
x = 528.761;
y = 162;
},
{
segmentType = curve;
smooth = 1;
x = 448.966;
y = 162;
},
{
smooth = 0;
x = 346.22;
y = 162;
},
{
smooth = 0;
x = 281.097;
y = 242.486;
},
{
segmentType = curve;
smooth = 1;
x = 286.456;
y = 334;
},
{
smooth = 0;
x = 291.518;
y = 440.308;
},
{
smooth = 0;
x = 340.537;
y = 481.553;
},
{
segmentType = curve;
smooth = 0;
x = 410;
y = 515;
},
{
smooth = 0;
x = 434;
y = 540;
},
{
smooth = 0;
x = 469;
y = 556;
},
{
segmentType = curve;
smooth = 0;
x = 486;
y = 561.193;
},
{
smooth = 0;
x = 495.386;
y = 563.717;
},
{
smooth = 0;
x = 505.11;
y = 565;
},
{
segmentType = curve;
smooth = 1;
x = 515.086;
y = 565;
},
{
smooth = 0;
x = 662.006;
y = 565;
},
{
smooth = 0;
x = 756.191;
y = 453.418;
},
{
segmentType = curve;
smooth = 1;
x = 748.308;
y = 303;
},
{
smooth = 0;
x = 742.426;
y = 190.77;
},
{
smooth = 0;
x = 668.449;
y = -9.409;
},
{
segmentType = curve;
smooth = 1;
x = 471.799;
y = -11;
},
{
smooth = 0;
x = 235.818;
y = -12.909;
},
{
smooth = 0;
x = 243.882;
y = 132.151;
},
{
segmentType = curve;
smooth = 1;
x = 112.019;
y = 133;
},
{
smooth = 0;
x = 84.627;
y = 133.176;
},
{
smooth = 0;
x = 72.632;
y = 120.883;
},
{
segmentType = curve;
smooth = 0;
x = 60.241;
y = 114;
}
);
},
{
points = (
{
segmentType = curve;
smooth = 0;
x = 740.425;
y = 248;
},
{
smooth = 0;
x = 732.964;
y = 248;
},
{
smooth = 0;
x = 730.169;
y = 259.429;
},
{
segmentType = curve;
smooth = 0;
x = 731.617;
y = 328;
},
{
smooth = 0;
x = 736.165;
y = 385.644;
},
{
smooth = 0;
x = 779.953;
y = 458.204;
},
{
segmentType = curve;
smooth = 1;
x = 841.012;
y = 459;
},
{
smooth = 0;
x = 891.771;
y = 459.662;
},
{
smooth = 0;
x = 916.444;
y = 417.347;
},
{
segmentType = curve;
smooth = 0;
x = 912.032;
y = 375;
},
{
segmentType = line;
smooth = 0;
x = 901.976;
y = 393;
},
{
smooth = 0;
x = 924.749;
y = 458.921;
},
{
smooth = 0;
x = 990.364;
y = 526.474;
},
{
segmentType = curve;
smooth = 1;
x = 1065.99;
y = 526;
},
{
smooth = 0;
x = 1150.03;
y = 525.473;
},
{
smooth = 0;
x = 1214.1;
y = 461.982;
},
{
segmentType = curve;
smooth = 1;
x = 1214.05;
y = 299;
},
{
smooth = 0;
x = 1214;
y = 160.093;
},
{
smooth = 0;
x = 1127.67;
y = -10.06;
},
{
segmentType = curve;
smooth = 1;
x = 991.855;
y = -30;
},
{
smooth = 0;
x = 872.116;
y = -47.579;
},
{
smooth = 0;
x = 782.128;
y = 13.315;
},
{
segmentType = curve;
smooth = 0;
x = 777.979;
y = 74;
},
{
smooth = 0;
x = 783.117;
y = 89;
},
{
smooth = 0;
x = 793.567;
y = 104;
},
{
segmentType = curve;
smooth = 0;
x = 806.918;
y = 110;
},
{
smooth = 0;
x = 848.814;
y = 82.349;
},
{
smooth = 0;
x = 935.935;
y = 60.869;
},
{
segmentType = curve;
smooth = 1;
x = 978.468;
y = 68;
},
{
smooth = 0;
x = 1109.99;
y = 90.05;
},
{
smooth = 0;
x = 1160.37;
y = 195.087;
},
{
segmentType = curve;
smooth = 1;
x = 1158.27;
y = 287;
},
{
smooth = 0;
x = 1155.96;
y = 387.717;
},
{
smooth = 0;
x = 1101.95;
y = 418.24;
},
{
segmentType = curve;
smooth = 1;
x = 1050.23;
y = 415;
},
{
smooth = 0;
x = 966.716;
y = 409.768;
},
{
smooth = 0;
x = 920.161;
y = 308.776;
},
{
segmentType = curve;
smooth = 0;
x = 916.368;
y = 266;
},
{
smooth = 0;
x = 903.848;
y = 262;
},
{
smooth = 0;
x = 883.219;
y = 262;
},
{
segmentType = curve;
smooth = 0;
x = 875.211;
y = 263;
},
{
smooth = 0;
x = 881.463;
y = 337.694;
},
{
smooth = 0;
x = 844.281;
y = 375.648;
},
{
segmentType = curve;
smooth = 1;
x = 815.028;
y = 374;
},
{
smooth = 0;
x = 773.101;
y = 371.638;
},
{
smooth = 0;
x = 758.611;
y = 337.557;
}
);
}
);
lib = {
};
name = sinNna;
unicodes = (
);
width = 1253;
};
};
};
width = 964;
}
);
metricRight = sinGa;
unicode = 3499;
}
{
glyphname = sinNndda;
layers = (
{
anchors = (
{
name = bottom;
pos = (771,182);
}
);
layerId = "51BB9282-3B82-4DF1-A67A-294D3E37D73A";
shapes = (
{
closed = 1;
nodes = (
(150,-6,o),
(161,-2,o),
(166,2,c),
(144,35,o),
(100,84,o),
(100,193,cs),
(100,271,o),
(119,395,o),
(266,395,cs),
(279,395,o),
(279,395,o),
(287,393,c),
(292,405,l),
(395,409,l),
(392,439,l),
(384,441,o),
(372,443,o),
(353,444,cs),
(340,445,o),
(329,446,o),
(302,446,cs),
(139,446,o),
(44,354,o),
(44,190,cs),
(44,90,o),
(93,29,o),
(130,-6,c)
);
},
{
pos = (121,0);
ref = sinDda;
}
);
width = 845;
}
);
metricRight = sinDda;
unicode = 3500;
}
{
glyphname = sinTa;
layers = (
{
anchors = (
{
name = Virama;
pos = (692,411);
},
{
name = bottom;
pos = (787,276);
},
{
name = top;
pos = (297,355);
}
);
layerId = "51BB9282-3B82-4DF1-A67A-294D3E37D73A";
shapes = (
{
closed = 1;
nodes = (
(424,-7,o),
(512,111,o),
(512,210,cs),
(512,287,o),
(460,326,o),
(387,326,cs),
(340,326,o),
(299,311,o),
(268,293,cs),
(221,265,o),
(227,269,o),
(211,256,c),
(222,268,o),
(237,281,o),
(258,297,cs),
(320,345,o),
(399,389,o),
(514,389,cs),
(648,389,o),
(745,329,o),
(745,217,cs),
(745,129,o),
(685,75,o),
(557,75,cs),
(553,75,o),
(552,75,o),
(527,79,c),
(516,74,l),
(520,45,o),
(542,5,o),
(555,-6,c),
(729,-1,o),
(791,134,o),
(791,243,cs),
(791,391,o),
(680,475,o),
(552,475,cs),
(440,475,o),
(327,411,o),
(248,336,cs),
(186,278,o),
(84,159,o),
(32,93,c),
(28,70,o),
(58,56,o),
(59,55,c),
(83,118,o),
(136,167,o),
(166,191,cs),
(214,232,o),
(264,258,o),
(351,258,cs),
(422,258,o),
(471,240,o),
(471,192,cs),
(471,145,o),
(425,73,o),
(294,73,cs),
(182,73,o),
(158,126,o),
(111,126,cs),
(96,126,o),
(72,120,o),
(58,106,c),
(62,61,l),
(62,81,o),
(81,99,o),
(96,99,cs),
(132,99,o),
(150,-7,o),
(283,-7,cs)
);
},
{
closed = 1;
nodes = (
(210,288,l),
(229,307,o),
(274,370,o),
(274,415,cs),
(274,454,o),
(237,471,o),
(191,471,cs),
(110,471,o),
(32,415,o),
(32,343,cs),
(32,310,o),
(47,292,o),
(81,292,cs),
(98,292,o),
(115,296,o),
(124,301,c),
(117,309,o),
(105,332,o),
(105,360,cs),
(105,393,o),
(122,435,o),
(170,435,cs),
(205,435,o),
(221,413,o),
(221,378,cs),
(221,345,o),
(206,292,o),
(186,270,c)
);
}
);
width = 831;
}
);
metricRight = sinKa;
unicode = 3501;
}
{
glyphname = sinTha;
layers = (
{
anchors = (
{
name = bottom;
pos = (541,182);
}
);
layerId = "51BB9282-3B82-4DF1-A67A-294D3E37D73A";
shapes = (
{
closed = 1;
nodes = (
(462,-18,o),
(574,118,o),
(574,289,cs),
(574,513,o),
(384,658,o),
(221,658,c),
(197,591,l),
(362,591,o),
(526,470,o),
(526,304,cs),
(526,182,o),
(437,72,o),
(274,72,cs),
(167,72,o),
(82,121,o),
(82,202,cs),
(82,271,o),
(144,308,o),
(237,308,cs),
(250,308,o),
(260,307,o),
(266,306,c),
(276,322,l),
(276,342,o),
(266,381,o),
(255,397,c),
(154,398,o),
(40,306,o),
(40,177,cs),
(40,49,o),
(151,-18,o),
(279,-18,cs)
);
},
{
closed = 1;
nodes = (
(408,435,o),
(469,453,o),
(493,476,c),
(485,497,l),
(464,488,o),
(429,482,o),
(392,482,cs),
(269,482,o),
(221,538,o),
(221,658,c),
(189,641,l),
(187,632,o),
(184,611,o),
(184,589,cs),
(184,491,o),
(239,435,o),
(346,435,cs)
);
}
);
width = 617;
}
);
unicode = 3502;
}
{
glyphname = sinDa;
layers = (
{
anchors = (
{
name = Virama;
pos = (367,435);
},
{
name = top;
pos = (239,481);
}
);
layerId = "51BB9282-3B82-4DF1-A67A-294D3E37D73A";
shapes = (
{
closed = 1;
nodes = (
(342,-27,o),
(394,-16,o),
(428,-3,c),
(436,14,o),
(441,35,o),
(441,64,c),
(433,75,l),
(385,54,o),
(328,42,o),
(263,42,cs),
(163,42,o),
(81,68,o),
(81,141,cs),
(81,219,o),
(150,278,o),
(304,278,cs),
(327,278,o),
(378,275,o),
(405,271,c),
(419,290,l),
(425,378,o),
(379,492,o),
(253,492,cs),
(176,492,o),
(121,454,o),
(121,400,cs),
(121,369,o),
(143,350,o),
(178,350,cs),
(188,350,o),
(198,352,o),
(211,354,c),
(209,362,o),
(209,368,o),
(209,375,cs),
(209,418,o),
(246,441,o),
(282,441,cs),
(334,441,o),
(354,404,o),
(358,340,c),
(345,343,o),
(333,344,o),
(307,344,cs),
(142,344,o),
(40,263,o),
(40,137,cs),
(40,26,o),
(146,-27,o),
(266,-27,cs)
);
},
{
closed = 1;
nodes = (
(427,-243,o),
(456,-237,o),
(491,-220,c),
(494,-197,o),
(489,-156,o),
(471,-144,c),
(434,-168,o),
(404,-174,o),
(381,-174,cs),
(316,-174,o),
(292,-145,o),
(292,-112,cs),
(292,-20,o),
(390,-18,o),
(427,-4,c),
(422,-2,o),
(419,9,o),
(415,11,c),
(408,12,o),
(393,-1,o),
(395,6,cs),
(401,32,l),
(345,7,o),
(238,-20,o),
(238,-129,cs),
(238,-185,o),
(278,-243,o),
(382,-243,cs)
);
}
);
width = 483;
}
);
unicode = 3503;
}
{
glyphname = sinDha;
layers = (
{
anchors = (
{
name = bottom;
pos = (631,222);
},
{
name = reph;
pos = (337,629);
}
);
layerId = "51BB9282-3B82-4DF1-A67A-294D3E37D73A";
shapes = (
{
closed = 1;
nodes = (
(581,-16,o),
(636,122,o),
(636,279,cs),
(636,480,o),
(523,624,o),
(302,624,cs),
(198,624,o),
(133,602,o),
(101,578,c),
(91,563,o),
(86,539,o),
(86,521,cs),
(86,512,o),
(87,505,o),
(89,500,c),
(122,521,o),
(176,548,o),
(297,548,cs),
(436,548,o),
(588,494,o),
(588,297,cs),
(588,158,o),
(539,68,o),
(455,68,cs),
(411,68,o),
(358,83,o),
(358,156,c),
(359,165,l),
(339,161,l),
(321,114,o),
(290,72,o),
(218,72,cs),
(144,72,o),
(84,117,o),
(84,201,cs),
(84,274,o),
(141,325,o),
(264,325,cs),
(289,325,o),
(316,322,o),
(344,315,c),
(356,329,l),
(353,352,o),
(345,379,o),
(335,399,c),
(324,400,o),
(311,401,o),
(297,401,cs),
(152,401,o),
(44,323,o),
(44,180,cs),
(44,53,o),
(121,-15,o),
(213,-15,cs),
(302,-15,o),
(340,51,o),
(345,87,c),
(337,110,l),
(336,104,o),
(335,98,o),
(335,89,cs),
(335,31,o),
(386,-16,o),
(465,-16,cs)
);
}
);
width = 676;
}
);
unicode = 3504;
}
